M48
; DRILL file {KiCad 6.0.7-f9a2dced07~116~ubuntu22.04.1} date Thu 06 Apr 2023 13:37:28 BST
; FORMAT={-:-/ absolute / inch / decimal}
; #@! TF.CreationDate,2023-04-06T13:37:28+01:00
; #@! TF.GenerationSoftware,Kicad,Pcbnew,6.0.7-f9a2dced07~116~ubuntu22.04.1
; #@! TF.FileFunction,Plated,1,6,PTH
FMAT,2
INCH
; #@! TA.AperFunction,Plated,PTH,ViaDrill
T1C0.0118
; #@! TA.AperFunction,Plated,PTH,ViaDrill
T2C0.0157
; #@! TA.AperFunction,Plated,PTH,ViaDrill
T3C0.0197
; #@! TA.AperFunction,Plated,PTH,ComponentDrill
T4C0.0197
; #@! TA.AperFunction,Plated,PTH,ComponentDrill
T5C0.0315
; #@! TA.AperFunction,Plated,PTH,ComponentDrill
T6C0.0551
; #@! TA.AperFunction,Plated,PTH,ComponentDrill
T7C0.1142
%
G90
G05
T1
X1.7717Y-2.2638
X1.7717Y-2.5591
X1.7717Y-3.248
X1.7717Y-3.937
X1.8701Y-1.2795
X1.8701Y-2.2638
X1.8701Y-2.5591
X1.8701Y-2.8543
X1.8701Y-3.1496
X1.8701Y-3.248
X1.8701Y-3.937
X1.8701Y-4.3307
X1.8701Y-4.626
X1.8701Y-4.9213
X1.937Y-2.1417
X1.96Y-1.8457
X1.9685Y-2.0236
X1.9705Y-2.5374
X1.974Y-2.2004
X2.0Y-2.2598
X2.02Y-1.8457
X2.0236Y-1.6772
X2.0413Y-2.7795
X2.0669Y-4.9213
X2.0689Y-2.7795
X2.0827Y-1.6447
X2.1299Y-1.9788
X2.1311Y-2.0236
X2.1343Y-2.2598
X2.1417Y-3.2913
X2.1496Y-3.8339
X2.163Y-2.0232
X2.1654Y-3.937
X2.166Y-3.54
X2.1935Y-3.54
X2.2047Y-2.937
X2.2146Y-3.8425
X2.2146Y-3.8701
X2.2638Y-4.626
X2.2953Y-2.4685
X2.3189Y-2.3622
X2.3307Y-1.685
X2.3594Y-3.5354
X2.3622Y-4.2323
X2.3622Y-4.7244
X2.3622Y-4.9213
X2.37Y-3.7339
X2.3821Y-2.0321
X2.3821Y-2.1479
X2.4291Y-2.5276
X2.44Y-2.09
X2.4441Y-3.3894
X2.45Y-3.263
X2.4508Y-2.3091
X2.4606Y-1.2795
X2.4646Y-3.8587
X2.4685Y-2.5276
X2.4732Y-2.6134
X2.4835Y-3.787
X2.489Y-3.5539
X2.4969Y-3.2724
X2.4979Y-2.0321
X2.4979Y-2.1479
X2.5102Y-1.8228
X2.5165Y-3.787
X2.5189Y-4.9236
X2.5193Y-3.0197
X2.5217Y-2.4488
X2.539Y-1.872
X2.5492Y-2.4488
X2.5618Y-4.689
X2.5669Y-1.6555
X2.5756Y-3.3941
X2.5787Y-2.6028
X2.5929Y-3.711
X2.6106Y-3.7587
X2.6276Y-3.815
X2.6295Y-3.6805
X2.6447Y-3.3071
X2.6496Y-4.7169
X2.6551Y-5.048
X2.6571Y-3.474
X2.6654Y-2.0591
X2.6654Y-2.1555
X2.6657Y-2.7634
X2.6693Y-4.2756
X2.6811Y-4.7185
X2.6823Y-3.3185
X2.6925Y-2.3409
X2.6953Y-4.978
X2.7159Y-4.8734
X2.7165Y-4.3346
X2.7343Y-3.5343
X2.7343Y-3.7657
X2.7346Y-2.9098
X2.7374Y-3.8908
X2.7541Y-4.7108
X2.761Y-2.774
X2.7646Y-5.0488
X2.7696Y-3.8978
X2.77Y-4.0039
X2.7756Y-2.1575
X2.7795Y-2.0394
X2.7795Y-2.5748
X2.7953Y-3.8768
X2.8012Y-1.813
X2.8189Y-2.3858
X2.8228Y-4.6811
X2.8425Y-2.5748
X2.8476Y-2.9098
X2.85Y-3.65
X2.8504Y-3.278
X2.8543Y-1.2795
X2.872Y-3.865
X2.8748Y-3.3681
X2.875Y-4.7569
X2.8835Y-5.0465
X2.926Y-3.9201
X2.9331Y-5.0409
X2.9488Y-4.2864
X2.952Y-3.4358
X2.9528Y-2.6575
X2.9528Y-3.5343
X2.9528Y-3.7657
X2.9646Y-3.065
X2.9665Y-3.1933
X2.9699Y-3.3998
X2.972Y-4.2594
X2.9783Y-3.9799
X3.0098Y-2.3031
X3.0374Y-2.3031
X3.0471Y-3.3525
X3.0691Y-4.2383
X3.074Y-3.7591
X3.0808Y-1.5414
X3.0825Y-3.7051
X3.0906Y-4.186
X3.095Y-3.6805
X3.1003Y-1.5609
X3.1067Y-3.5854
X3.1102Y-3.6378
X3.1102Y-4.0236
X3.122Y-3.6654
X3.1281Y-1.6044
X3.1475Y-1.6239
X3.1496Y-3.8012
X3.1724Y-3.8567
X3.2156Y-5.0827
X3.2156Y-3.6565
X3.2164Y-3.5576
X3.2165Y-4.0197
X3.2244Y-3.9764
X3.2402Y-3.937
X3.248Y-1.2795
X3.2691Y-5.0036
X3.2839Y-3.5689
X3.2933Y-5.0167
X3.2973Y-5.0587
X3.314Y-5.0355
X3.3307Y-3.4488
X3.3386Y-5.0566
X3.3415Y-3.9332
X3.3465Y-2.4606
X3.3465Y-2.7559
X3.378Y-3.8819
X3.3967Y-4.6254
X3.4239Y-5.0181
X3.425Y-4.6037
X3.4329Y-5.0445
X3.4585Y-4.9722
X3.4957Y-4.8732
X3.4999Y-4.9855
X3.5036Y-5.0266
X3.5354Y-4.9986
X3.5367Y-4.5894
X3.5382Y-4.8736
X3.5384Y-4.6169
X3.5508Y-5.0441
X3.5803Y-4.7118
X3.5906Y-3.9016
X3.5906Y-4.3583
X3.6063Y-4.4803
X3.6243Y-5.0095
X3.6378Y-3.8661
X3.6417Y-1.2795
X3.6417Y-2.7559
X3.6417Y-4.3661
X3.6604Y-3.8819
X3.6614Y-4.2992
X3.6693Y-5.0394
X3.672Y-4.7142
X3.6732Y-3.8386
X3.6752Y-4.9417
X3.685Y-4.2728
X3.7028Y-3.7175
X3.7059Y-3.8717
X3.7069Y-5.0438
X3.7171Y-3.7411
X3.7333Y-3.8886
X3.7953Y-4.9094
X3.8425Y-4.9488
X3.8504Y-4.8937
X3.8543Y-3.2165
X3.8632Y-5.0355
X3.8701Y-3.9055
X3.8994Y-3.6108
X3.9016Y-4.0256
X3.9016Y-4.2953
X3.9134Y-3.9291
X3.9228Y-4.2683
X3.9231Y-3.587
X3.937Y-3.9724
X3.9421Y-3.3394
X3.9528Y-3.9961
X3.9566Y-4.1014
X3.9681Y-3.3661
X3.9713Y-3.5201
X3.9736Y-3.4902
X3.983Y-4.1171
X3.9843Y-4.9134
X3.9941Y-3.4291
X4.0005Y-4.1428
X4.004Y-4.1701
X4.0189Y-3.4567
X4.0354Y-1.2795
X4.0354Y-2.4606
X4.0354Y-2.7559
X4.0551Y-4.1772
X4.0709Y-3.8425
X4.0709Y-3.874
X4.0748Y-4.248
X4.0827Y-4.1575
X4.0866Y-3.6732
X4.0957Y-2.2354
X4.0961Y-2.3071
X4.0961Y-2.376
X4.0965Y-2.1429
X4.0972Y-2.448
X4.0976Y-2.5169
X4.0984Y-4.2283
X4.1063Y-4.9488
X4.1068Y-4.8919
X4.1173Y-3.6567
X4.1177Y-3.5091
X4.1181Y-3.5827
X4.1189Y-3.7913
X4.1209Y-2.9504
X4.1209Y-3.0146
X4.1209Y-3.1634
X4.1209Y-4.1469
X4.1213Y-2.861
X4.1213Y-3.2264
X4.122Y-2.8012
X4.122Y-3.2992
X4.122Y-4.4094
X4.122Y-4.4724
X4.1232Y-2.7319
X4.1232Y-3.0835
X4.1236Y-3.3689
X4.124Y-3.4398
X4.1244Y-4.2189
X4.126Y-4.5276
X4.126Y-4.7362
X4.1356Y-4.9208
X4.1379Y-4.7909
X4.2047Y-4.8228
X4.2205Y-4.6579
X4.2244Y-2.5748
X4.2303Y-2.622
X4.2362Y-4.7047
X4.2402Y-2.6673
X4.2441Y-3.3209
X4.2449Y-4.3169
X4.252Y-3.3898
X4.252Y-3.6575
X4.252Y-3.7874
X4.2559Y-3.252
X4.2677Y-3.2798
X4.2677Y-3.4134
X4.2702Y-2.8924
X4.2717Y-2.752
X4.2717Y-2.7795
X4.2717Y-2.8228
X4.2717Y-2.8504
X4.2717Y-2.9213
X4.2717Y-2.9646
X4.2717Y-2.9921
X4.2717Y-3.0354
X4.2717Y-3.063
X4.2717Y-3.1063
X4.2717Y-3.1339
X4.2717Y-3.1772
X4.2717Y-3.2047
X4.2755Y-3.3413
X4.2913Y-3.5866
X4.2913Y-3.6575
X4.2989Y-2.4627
X4.304Y-2.1765
X4.3056Y-2.2485
X4.306Y-2.3863
X4.3071Y-3.689
X4.3127Y-2.3186
X4.3184Y-2.4822
X4.3228Y-4.7559
X4.3235Y-2.196
X4.3251Y-2.268
X4.3255Y-2.4058
X4.3322Y-2.3381
X4.3465Y-3.8661
X4.3465Y-3.9331
X4.3465Y-4.0079
X4.3465Y-4.0748
X4.3468Y-3.5463
X4.3614Y-2.2122
X4.3819Y-4.1102
X4.3858Y-2.9409
X4.3898Y-4.3386
X4.3937Y-2.8622
X4.3937Y-3.0118
X4.3937Y-3.5315
X4.3937Y-4.3031
X4.3976Y-4.5354
X4.4016Y-3.5
X4.4016Y-3.9646
X4.4016Y-4.7598
X4.4055Y-3.811
X4.4055Y-3.9252
X4.4094Y-3.4685
X4.4094Y-3.8504
X4.4094Y-3.8898
X4.4094Y-4.0
X4.4094Y-4.0394
X4.4134Y-4.0787
X4.4173Y-4.1102
X4.4291Y-1.2795
X4.4331Y-2.8307
X4.4331Y-3.2244
X4.4331Y-3.437
X4.435Y-1.9921
X4.4363Y-4.4921
X4.4402Y-4.4213
X4.4449Y-3.3346
X4.4465Y-2.3256
X4.4472Y-2.472
X4.4476Y-2.3984
X4.4484Y-2.5311
X4.4626Y-1.9921
X4.4646Y-1.8268
X4.4961Y-4.7205
X4.522Y-2.0764
X4.5668Y-3.3105
X4.5669Y-3.2126
X4.5669Y-4.3346
X4.5671Y-3.4522
X4.5687Y-3.3813
X4.5705Y-2.8126
X4.5705Y-4.0896
X4.5706Y-3.5231
X4.5709Y-3.7323
X4.5713Y-4.0177
X4.5827Y-3.934
X4.5836Y-3.6603
X4.5945Y-2.9488
X4.6004Y-3.5925
X4.6024Y-4.0118
X4.6063Y-3.5236
X4.6102Y-2.7559
X4.6142Y-3.4685
X4.6181Y-4.1191
X4.622Y-3.374
X4.6299Y-3.3425
X4.6299Y-3.4055
X4.6299Y-3.437
X4.6378Y-3.6772
X4.6427Y-3.4834
X4.6427Y-3.5388
X4.6535Y-3.7047
X4.6654Y-3.6496
X4.6887Y-3.1617
X4.689Y-3.3189
X4.7008Y-3.6496
X4.7087Y-3.8021
X4.7283Y-3.4843
X4.7559Y-3.748
X4.7795Y-3.7008
X4.7795Y-3.7677
X4.811Y-5.0787
X4.8228Y-3.3661
X4.8228Y-5.5118
X4.8228Y-6.1024
X4.8543Y-3.3268
X4.8701Y-3.6496
X4.878Y-4.0157
X4.8898Y-3.4094
X4.9025Y-3.7559
X4.91Y-3.8386
X4.9213Y-1.2795
X4.9291Y-4.0197
X4.9606Y-2.7008
X4.9764Y-4.0276
X4.9896Y-3.7939
X5.0Y-3.7362
X5.0147Y-3.4646
X5.028Y-3.6472
X5.0315Y-3.437
X5.0385Y-3.007
X5.0551Y-3.4134
X5.0827Y-3.3799
X5.1181Y-3.2283
X5.1373Y-3.8474
X5.1719Y-3.8551
X5.1929Y-3.8228
X5.2165Y-6.1024
X5.2323Y-4.189
X5.2323Y-4.3189
X5.235Y-3.8774
X5.2717Y-4.189
X5.2717Y-4.3228
X5.311Y-4.189
X5.311Y-4.3228
X5.3128Y-3.7796
X5.315Y-1.2795
X5.3465Y-4.189
X5.3504Y-4.3228
X5.3543Y-4.8583
X5.3898Y-4.189
X5.3898Y-4.3228
X5.3997Y-2.3761
X5.4192Y-2.3956
X5.4331Y-1.9685
X5.4368Y-3.9884
X5.4528Y-3.0315
X5.4764Y-4.0039
X5.5197Y-3.4961
X5.5512Y-3.9646
X5.5551Y-4.397
X5.5551Y-4.5033
X5.5906Y-4.5033
X5.5945Y-4.397
X5.6102Y-5.5118
X5.6102Y-6.1024
X5.6234Y-4.0865
X5.6299Y-3.5039
X5.6339Y-4.1457
X5.6339Y-4.3976
X5.6339Y-4.5039
X5.6654Y-4.1593
X5.6732Y-4.3982
X5.6732Y-4.5045
X5.676Y-4.0777
X5.7087Y-1.2795
X5.7126Y-4.3982
X5.7126Y-4.5045
X5.7205Y-4.1102
X5.7488Y-4.2758
X5.7579Y-3.0591
X5.8031Y-3.1299
X5.8346Y-4.4252
X5.8386Y-4.9843
X5.874Y-3.8268
X5.8931Y-3.7215
X5.9094Y-3.1555
X5.9213Y-5.1969
X5.9291Y-3.2992
X5.9902Y-3.2864
X5.9921Y-3.8583
X5.9961Y-3.6602
X6.0039Y-6.1024
X6.0079Y-3.5079
X6.0099Y-1.9273
X6.0156Y-3.4758
X6.0294Y-1.9468
X6.0315Y-1.8189
X6.0433Y-3.7677
X6.0472Y-3.3543
X6.0528Y-3.6402
X6.0709Y-3.7165
X6.0736Y-3.6169
X6.0748Y-4.0183
X6.0748Y-4.0502
X6.0945Y-3.3583
X6.1024Y-1.2795
X6.4567Y-3.7244
X6.4961Y-1.2795
X6.4961Y-6.1024
X6.5394Y-3.3465
X6.5689Y-3.3248
X6.5945Y-3.122
X6.5945Y-3.6417
X6.5945Y-5.6102
X6.6201Y-3.1535
X6.6363Y-3.3236
X6.6929Y-2.9528
X6.6929Y-3.8386
X6.6929Y-4.1339
X6.7315Y-2.4594
X6.7591Y-2.4594
X6.7658Y-2.3525
X6.7835Y-2.2752
X6.7835Y-2.3028
X6.7853Y-2.3719
X6.7992Y-3.126
X6.8307Y-3.1496
X6.8898Y-1.2795
X6.9882Y-6.1024
X7.0827Y-5.6059
X7.0866Y-3.8386
X7.0866Y-4.1339
X7.126Y-1.7717
X7.1453Y-5.7177
X7.1594Y-3.3287
X7.185Y-4.5276
X7.1989Y-1.821
X7.2184Y-1.8405
X7.2205Y-2.0472
X7.2835Y-1.2795
X7.2835Y-6.1024
X7.3252Y-5.5917
X7.6772Y-1.2795
X7.6772Y-6.1024
X7.7165Y-4.1339
X7.7374Y-4.239
X7.748Y-4.0169
X7.7559Y-4.1496
X7.8228Y-4.0512
X7.8346Y-3.685
X7.8583Y-2.8307
X7.874Y-1.8268
X7.874Y-4.3307
X7.874Y-5.2165
X7.874Y-5.5118
X7.8873Y-2.5768
X7.8873Y-2.6043
X7.939Y-2.3449
X7.9449Y-2.2126
X7.9665Y-2.3449
X7.9685Y-2.626
X7.9685Y-4.8425
X7.9965Y-4.522
X8.0157Y-2.6752
X8.0157Y-2.7028
X8.0157Y-2.7657
X8.0157Y-2.7933
X8.0157Y-2.872
X8.0157Y-2.8996
X8.0157Y-2.9744
X8.0157Y-3.002
X8.0236Y-4.8386
X8.0669Y-3.0689
X8.0669Y-3.0965
X8.0709Y-1.2795
X8.0709Y-6.1024
X8.0728Y-2.5512
X8.0787Y-4.8425
X8.1004Y-2.5512
X8.1797Y-2.6338
X8.1909Y-2.5039
X8.1988Y-2.7407
X8.1992Y-2.6533
X8.2005Y-2.8554
X8.2036Y-2.9556
X8.2047Y-4.685
X8.2185Y-2.5039
X8.2264Y-2.7407
X8.228Y-2.8554
X8.2312Y-2.9556
X8.2598Y-4.688
X8.2677Y-2.9528
X8.3071Y-3.3465
X8.3366Y-3.0433
X8.3465Y-3.7008
X8.3557Y-3.5932
X8.361Y-4.6208
X8.3642Y-3.0433
X8.3661Y-4.3307
X8.3937Y-3.563
X8.4331Y-4.1496
X8.4646Y-1.2795
X8.4646Y-6.1024
X8.4803Y-4.1339
X8.4961Y-4.0472
X8.563Y-5.6102
X8.8346Y-1.9606
X8.8504Y-4.2402
X8.8583Y-1.2598
X8.8583Y-5.6102
X8.8583Y-6.1024
X8.9921Y-3.685
X9.0472Y-2.8307
X9.07Y-3.4678
X9.0907Y-3.4045
X9.1162Y-1.7717
X9.126Y-3.4055
X9.1357Y-1.7912
X9.1476Y-5.6276
X9.1535Y-3.0512
X9.185Y-2.2752
X9.185Y-2.3028
X9.2028Y-3.1594
X9.2461Y-3.1969
X9.2756Y-5.8504
X9.2835Y-4.5354
X9.2913Y-1.2598
X9.2913Y-6.1024
X9.3307Y-2.4409
X9.3346Y-4.7244
X9.4016Y-4.7244
X9.437Y-3.3567
X9.4488Y-3.0512
X9.4488Y-5.6102
X9.4882Y-3.5433
X9.5099Y-1.5964
X9.5256Y-1.7834
X9.5256Y-2.2165
X9.5294Y-1.5769
X9.5531Y-1.7834
X9.5531Y-2.2165
X9.5846Y-1.5759
X9.6122Y-1.5759
X9.6299Y-5.3425
X9.6476Y-1.6024
X9.6752Y-1.6024
X9.7244Y-1.2598
X9.7244Y-4.2402
X9.7244Y-6.1024
X9.7264Y-3.3258
X10.0394Y-1.2598
X10.0394Y-6.1024
X10.0709Y-3.2402
X10.0787Y-1.9291
X10.1024Y-3.2402
X10.1102Y-4.2559
X10.1417Y-3.2402
X10.1811Y-3.2402
X10.2205Y-2.7205
X10.2205Y-3.378
X10.2283Y-3.7008
X10.2441Y-3.4252
X10.4016Y-4.5591
X10.4567Y-2.5433
X10.4724Y-6.1024
X10.5118Y-1.2598
X10.6575Y-3.878
X10.685Y-1.7795
X10.7795Y-5.5315
X10.7854Y-4.9055
X10.7854Y-5.0433
X10.813Y-4.9055
X10.813Y-5.0433
X10.8524Y-4.7992
X10.8531Y-4.6909
X10.8799Y-4.7992
X10.8806Y-4.6909
X10.9055Y-6.1024
X10.9173Y-3.2205
X10.9449Y-1.2598
X11.1969Y-2.0
X11.2205Y-1.2598
X11.2598Y-3.189
X11.2598Y-6.1024
X11.3799Y-3.3996
X11.4173Y-3.6457
X11.4258Y-3.3774
X11.4488Y-4.5512
X11.5669Y-4.8346
X11.5827Y-2.2752
X11.5827Y-2.3028
X11.6142Y-4.5197
X11.6378Y-4.8347
X11.6535Y-2.5591
X11.685Y-4.8346
X11.6929Y-1.2598
X11.6929Y-6.1024
X11.8189Y-4.6929
X11.88Y-1.8247
X11.8819Y-3.5276
X11.8898Y-4.685
X11.8995Y-1.8052
X11.937Y-4.5276
X12.0079Y-2.6772
X12.0157Y-1.9606
X12.0157Y-3.5709
X12.0394Y-3.2756
X12.0472Y-3.5394
X12.0728Y-5.4665
X12.126Y-1.2598
X12.126Y-6.1024
X12.4409Y-1.2598
X12.4803Y-6.1024
X12.5309Y-3.3774
X12.5846Y-3.3996
X12.7953Y-1.2598
X13.1102Y-1.2598
X13.1102Y-1.7323
X13.1102Y-2.4016
X13.1102Y-2.9921
X13.1102Y-3.8583
X13.1102Y-4.685
X13.1102Y-5.5118
X13.1102Y-6.1024
T2
X4.252Y-4.5
X4.3937Y-4.5
X5.0709Y-4.5591
X5.2126Y-4.4016
X6.6159Y-2.7262
T3
X3.5441Y-3.5146
X3.62Y-3.37
X3.6953Y-3.5098
X3.7439Y-3.5108
X4.1614Y-1.5551
X4.248Y-4.4449
X4.252Y-4.5669
X4.2598Y-4.374
X4.4094Y-4.3858
X4.4173Y-4.4567
X4.437Y-4.5748
X5.1606Y-4.182
X5.163Y-4.1388
X5.1642Y-4.4209
X5.1654Y-4.3661
X6.5512Y-2.2047
X6.563Y-1.5551
X6.6457Y-1.6929
X7.1063Y-3.248
X7.185Y-3.248
X7.7165Y-1.5551
X7.752Y-2.2047
X7.7717Y-1.6929
X8.236Y-3.2325
X8.2787Y-3.2323
X8.9528Y-2.2087
X8.9646Y-1.5551
X9.0276Y-1.6929
X9.4182Y-3.245
X9.4606Y-3.2441
X10.1496Y-2.2008
X10.2205Y-1.5551
X10.3071Y-1.6693
X10.4372Y-3.2325
X10.488Y-3.2325
X11.1969Y-1.5551
X11.3543Y-2.2008
X11.4213Y-1.6929
X11.4252Y-2.7205
X11.8266Y-3.2325
X11.8856Y-3.2325
X12.5591Y-2.2008
X12.622Y-2.7283
X12.685Y-1.5551
X12.7047Y-1.6929
X12.8388Y-3.2325
X12.8895Y-3.2325
T4
X1.8425Y-1.5118
X2.4488Y-4.3307
X2.5394Y-4.1417
X2.6614Y-4.6142
X2.6654Y-4.1457
X2.689Y-4.0197
X2.8031Y-4.1496
X2.8228Y-4.5984
X2.8398Y-4.0213
X2.874Y-4.8189
X2.9272Y-4.0008
X3.035Y-3.1118
X3.1543Y-2.3807
X3.1969Y-3.4331
X3.2402Y-2.2323
X3.4606Y-3.4331
X3.748Y-2.3465
X3.811Y-3.2913
X3.8193Y-3.387
X3.9213Y-4.2244
X3.9213Y-4.3504
X4.0106Y-1.5488
X4.0354Y-4.3307
X4.0394Y-4.4173
X4.3094Y-1.8193
X4.8976Y-5.2165
X4.9921Y-5.2165
X5.0866Y-5.2165
X5.4331Y-4.9606
X5.5591Y-4.9606
X5.6929Y-4.9606
T5
X6.1835Y-2.139
X6.1835Y-2.239
X6.1835Y-2.339
X6.1835Y-2.439
X6.1835Y-2.539
X6.1835Y-2.639
X6.1835Y-2.739
X6.1835Y-2.839
X6.1835Y-2.939
X6.1835Y-3.039
X6.1835Y-3.139
X6.1835Y-3.239
X6.1835Y-3.339
X6.1835Y-3.439
X6.1835Y-3.539
X6.1835Y-3.639
X6.1835Y-3.739
X6.1835Y-3.839
X6.1835Y-3.939
X6.1835Y-4.039
X6.1835Y-4.139
X6.1835Y-4.239
X6.1835Y-4.339
X6.1835Y-4.439
X6.1835Y-4.539
X6.1835Y-4.639
X6.1835Y-4.739
X6.1835Y-4.839
X6.1835Y-4.939
X6.1835Y-5.039
X6.1835Y-5.139
X6.1835Y-5.239
X6.2835Y-2.139
X6.2835Y-2.239
X6.2835Y-2.339
X6.2835Y-2.439
X6.2835Y-2.539
X6.2835Y-2.639
X6.2835Y-2.739
X6.2835Y-2.839
X6.2835Y-2.939
X6.2835Y-3.039
X6.2835Y-3.139
X6.2835Y-3.239
X6.2835Y-3.339
X6.2835Y-3.439
X6.2835Y-3.539
X6.2835Y-3.639
X6.2835Y-3.739
X6.2835Y-3.839
X6.2835Y-3.939
X6.2835Y-4.039
X6.2835Y-4.139
X6.2835Y-4.239
X6.2835Y-4.339
X6.2835Y-4.439
X6.2835Y-4.539
X6.2835Y-4.639
X6.2835Y-4.739
X6.2835Y-4.839
X6.2835Y-4.939
X6.2835Y-5.039
X6.2835Y-5.139
X6.2835Y-5.239
X6.3835Y-2.139
X6.3835Y-2.239
X6.3835Y-2.339
X6.3835Y-2.439
X6.3835Y-2.539
X6.3835Y-2.639
X6.3835Y-2.739
X6.3835Y-2.839
X6.3835Y-2.939
X6.3835Y-3.039
X6.3835Y-3.139
X6.3835Y-3.239
X6.3835Y-3.339
X6.3835Y-3.439
X6.3835Y-3.539
X6.3835Y-3.639
X6.3835Y-3.739
X6.3835Y-3.839
X6.3835Y-3.939
X6.3835Y-4.039
X6.3835Y-4.139
X6.3835Y-4.239
X6.3835Y-4.339
X6.3835Y-4.439
X6.3835Y-4.539
X6.3835Y-4.639
X6.3835Y-4.739
X6.3835Y-4.839
X6.3835Y-4.939
X6.3835Y-5.039
X6.3835Y-5.139
X6.3835Y-5.239
X7.3835Y-2.139
X7.3835Y-2.239
X7.3835Y-2.339
X7.3835Y-2.439
X7.3835Y-2.539
X7.3835Y-2.639
X7.3835Y-2.739
X7.3835Y-2.839
X7.3835Y-2.939
X7.3835Y-3.039
X7.3835Y-3.139
X7.3835Y-3.239
X7.3835Y-3.339
X7.3835Y-3.439
X7.3835Y-3.539
X7.3835Y-3.639
X7.3835Y-3.739
X7.3835Y-3.839
X7.3835Y-3.939
X7.3835Y-4.039
X7.3835Y-4.139
X7.3835Y-4.239
X7.3835Y-4.339
X7.3835Y-4.439
X7.3835Y-4.539
X7.3835Y-4.639
X7.3835Y-4.739
X7.3835Y-4.839
X7.3835Y-4.939
X7.3835Y-5.039
X7.3835Y-5.139
X7.3835Y-5.239
X7.4835Y-2.139
X7.4835Y-2.239
X7.4835Y-2.339
X7.4835Y-2.439
X7.4835Y-2.539
X7.4835Y-2.639
X7.4835Y-2.739
X7.4835Y-2.839
X7.4835Y-2.939
X7.4835Y-3.039
X7.4835Y-3.139
X7.4835Y-3.239
X7.4835Y-3.339
X7.4835Y-3.439
X7.4835Y-3.539
X7.4835Y-3.639
X7.4835Y-3.739
X7.4835Y-3.839
X7.4835Y-3.939
X7.4835Y-4.039
X7.4835Y-4.139
X7.4835Y-4.239
X7.4835Y-4.339
X7.4835Y-4.439
X7.4835Y-4.539
X7.4835Y-4.639
X7.4835Y-4.739
X7.4835Y-4.839
X7.4835Y-4.939
X7.4835Y-5.039
X7.4835Y-5.139
X7.4835Y-5.239
X7.5835Y-2.139
X7.5835Y-2.239
X7.5835Y-2.339
X7.5835Y-2.439
X7.5835Y-2.539
X7.5835Y-2.639
X7.5835Y-2.739
X7.5835Y-2.839
X7.5835Y-2.939
X7.5835Y-3.039
X7.5835Y-3.139
X7.5835Y-3.239
X7.5835Y-3.339
X7.5835Y-3.439
X7.5835Y-3.539
X7.5835Y-3.639
X7.5835Y-3.739
X7.5835Y-3.839
X7.5835Y-3.939
X7.5835Y-4.039
X7.5835Y-4.139
X7.5835Y-4.239
X7.5835Y-4.339
X7.5835Y-4.439
X7.5835Y-4.539
X7.5835Y-4.639
X7.5835Y-4.739
X7.5835Y-4.839
X7.5835Y-4.939
X7.5835Y-5.039
X7.5835Y-5.139
X7.5835Y-5.239
X8.5835Y-2.139
X8.5835Y-2.239
X8.5835Y-2.339
X8.5835Y-2.439
X8.5835Y-2.539
X8.5835Y-2.639
X8.5835Y-2.739
X8.5835Y-2.839
X8.5835Y-2.939
X8.5835Y-3.039
X8.5835Y-3.139
X8.5835Y-3.239
X8.5835Y-3.339
X8.5835Y-3.439
X8.5835Y-3.539
X8.5835Y-3.639
X8.5835Y-3.739
X8.5835Y-3.839
X8.5835Y-3.939
X8.5835Y-4.039
X8.5835Y-4.139
X8.5835Y-4.239
X8.5835Y-4.339
X8.5835Y-4.439
X8.5835Y-4.539
X8.5835Y-4.639
X8.5835Y-4.739
X8.5835Y-4.839
X8.5835Y-4.939
X8.5835Y-5.039
X8.5835Y-5.139
X8.5835Y-5.239
X8.6835Y-2.139
X8.6835Y-2.239
X8.6835Y-2.339
X8.6835Y-2.439
X8.6835Y-2.539
X8.6835Y-2.639
X8.6835Y-2.739
X8.6835Y-2.839
X8.6835Y-2.939
X8.6835Y-3.039
X8.6835Y-3.139
X8.6835Y-3.239
X8.6835Y-3.339
X8.6835Y-3.439
X8.6835Y-3.539
X8.6835Y-3.639
X8.6835Y-3.739
X8.6835Y-3.839
X8.6835Y-3.939
X8.6835Y-4.039
X8.6835Y-4.139
X8.6835Y-4.239
X8.6835Y-4.339
X8.6835Y-4.439
X8.6835Y-4.539
X8.6835Y-4.639
X8.6835Y-4.739
X8.6835Y-4.839
X8.6835Y-4.939
X8.6835Y-5.039
X8.6835Y-5.139
X8.6835Y-5.239
X8.7835Y-2.139
X8.7835Y-2.239
X8.7835Y-2.339
X8.7835Y-2.439
X8.7835Y-2.539
X8.7835Y-2.639
X8.7835Y-2.739
X8.7835Y-2.839
X8.7835Y-2.939
X8.7835Y-3.039
X8.7835Y-3.139
X8.7835Y-3.239
X8.7835Y-3.339
X8.7835Y-3.439
X8.7835Y-3.539
X8.7835Y-3.639
X8.7835Y-3.739
X8.7835Y-3.839
X8.7835Y-3.939
X8.7835Y-4.039
X8.7835Y-4.139
X8.7835Y-4.239
X8.7835Y-4.339
X8.7835Y-4.439
X8.7835Y-4.539
X8.7835Y-4.639
X8.7835Y-4.739
X8.7835Y-4.839
X8.7835Y-4.939
X8.7835Y-5.039
X8.7835Y-5.139
X8.7835Y-5.239
X9.7835Y-2.139
X9.7835Y-2.239
X9.7835Y-2.339
X9.7835Y-2.439
X9.7835Y-2.539
X9.7835Y-2.639
X9.7835Y-2.739
X9.7835Y-2.839
X9.7835Y-2.939
X9.7835Y-3.039
X9.7835Y-3.139
X9.7835Y-3.239
X9.7835Y-3.339
X9.7835Y-3.439
X9.7835Y-3.539
X9.7835Y-3.639
X9.7835Y-3.739
X9.7835Y-3.839
X9.7835Y-3.939
X9.7835Y-4.039
X9.7835Y-4.139
X9.7835Y-4.239
X9.7835Y-4.339
X9.7835Y-4.439
X9.7835Y-4.539
X9.7835Y-4.639
X9.7835Y-4.739
X9.7835Y-4.839
X9.7835Y-4.939
X9.7835Y-5.039
X9.7835Y-5.139
X9.7835Y-5.239
X9.8835Y-2.139
X9.8835Y-2.239
X9.8835Y-2.339
X9.8835Y-2.439
X9.8835Y-2.539
X9.8835Y-2.639
X9.8835Y-2.739
X9.8835Y-2.839
X9.8835Y-2.939
X9.8835Y-3.039
X9.8835Y-3.139
X9.8835Y-3.239
X9.8835Y-3.339
X9.8835Y-3.439
X9.8835Y-3.539
X9.8835Y-3.639
X9.8835Y-3.739
X9.8835Y-3.839
X9.8835Y-3.939
X9.8835Y-4.039
X9.8835Y-4.139
X9.8835Y-4.239
X9.8835Y-4.339
X9.8835Y-4.439
X9.8835Y-4.539
X9.8835Y-4.639
X9.8835Y-4.739
X9.8835Y-4.839
X9.8835Y-4.939
X9.8835Y-5.039
X9.8835Y-5.139
X9.8835Y-5.239
X9.9835Y-2.139
X9.9835Y-2.239
X9.9835Y-2.339
X9.9835Y-2.439
X9.9835Y-2.539
X9.9835Y-2.639
X9.9835Y-2.739
X9.9835Y-2.839
X9.9835Y-2.939
X9.9835Y-3.039
X9.9835Y-3.139
X9.9835Y-3.239
X9.9835Y-3.339
X9.9835Y-3.439
X9.9835Y-3.539
X9.9835Y-3.639
X9.9835Y-3.739
X9.9835Y-3.839
X9.9835Y-3.939
X9.9835Y-4.039
X9.9835Y-4.139
X9.9835Y-4.239
X9.9835Y-4.339
X9.9835Y-4.439
X9.9835Y-4.539
X9.9835Y-4.639
X9.9835Y-4.739
X9.9835Y-4.839
X9.9835Y-4.939
X9.9835Y-5.039
X9.9835Y-5.139
X9.9835Y-5.239
X10.9835Y-2.139
X10.9835Y-2.239
X10.9835Y-2.339
X10.9835Y-2.439
X10.9835Y-2.539
X10.9835Y-2.639
X10.9835Y-2.739
X10.9835Y-2.839
X10.9835Y-2.939
X10.9835Y-3.039
X10.9835Y-3.139
X10.9835Y-3.239
X10.9835Y-3.339
X10.9835Y-3.439
X10.9835Y-3.539
X10.9835Y-3.639
X10.9835Y-3.739
X10.9835Y-3.839
X10.9835Y-3.939
X10.9835Y-4.039
X10.9835Y-4.139
X10.9835Y-4.239
X10.9835Y-4.339
X10.9835Y-4.439
X10.9835Y-4.539
X10.9835Y-4.639
X10.9835Y-4.739
X10.9835Y-4.839
X10.9835Y-4.939
X10.9835Y-5.039
X10.9835Y-5.139
X10.9835Y-5.239
X11.0835Y-2.139
X11.0835Y-2.239
X11.0835Y-2.339
X11.0835Y-2.439
X11.0835Y-2.539
X11.0835Y-2.639
X11.0835Y-2.739
X11.0835Y-2.839
X11.0835Y-2.939
X11.0835Y-3.039
X11.0835Y-3.139
X11.0835Y-3.239
X11.0835Y-3.339
X11.0835Y-3.439
X11.0835Y-3.539
X11.0835Y-3.639
X11.0835Y-3.739
X11.0835Y-3.839
X11.0835Y-3.939
X11.0835Y-4.039
X11.0835Y-4.139
X11.0835Y-4.239
X11.0835Y-4.339
X11.0835Y-4.439
X11.0835Y-4.539
X11.0835Y-4.639
X11.0835Y-4.739
X11.0835Y-4.839
X11.0835Y-4.939
X11.0835Y-5.039
X11.0835Y-5.139
X11.0835Y-5.239
X11.1835Y-2.139
X11.1835Y-2.239
X11.1835Y-2.339
X11.1835Y-2.439
X11.1835Y-2.539
X11.1835Y-2.639
X11.1835Y-2.739
X11.1835Y-2.839
X11.1835Y-2.939
X11.1835Y-3.039
X11.1835Y-3.139
X11.1835Y-3.239
X11.1835Y-3.339
X11.1835Y-3.439
X11.1835Y-3.539
X11.1835Y-3.639
X11.1835Y-3.739
X11.1835Y-3.839
X11.1835Y-3.939
X11.1835Y-4.039
X11.1835Y-4.139
X11.1835Y-4.239
X11.1835Y-4.339
X11.1835Y-4.439
X11.1835Y-4.539
X11.1835Y-4.639
X11.1835Y-4.739
X11.1835Y-4.839
X11.1835Y-4.939
X11.1835Y-5.039
X11.1835Y-5.139
X11.1835Y-5.239
X12.1835Y-2.139
X12.1835Y-2.239
X12.1835Y-2.339
X12.1835Y-2.439
X12.1835Y-2.539
X12.1835Y-2.639
X12.1835Y-2.739
X12.1835Y-2.839
X12.1835Y-2.939
X12.1835Y-3.039
X12.1835Y-3.139
X12.1835Y-3.239
X12.1835Y-3.339
X12.1835Y-3.439
X12.1835Y-3.539
X12.1835Y-3.639
X12.1835Y-3.739
X12.1835Y-3.839
X12.1835Y-3.939
X12.1835Y-4.039
X12.1835Y-4.139
X12.1835Y-4.239
X12.1835Y-4.339
X12.1835Y-4.439
X12.1835Y-4.539
X12.1835Y-4.639
X12.1835Y-4.739
X12.1835Y-4.839
X12.1835Y-4.939
X12.1835Y-5.039
X12.1835Y-5.139
X12.1835Y-5.239
X12.2835Y-2.139
X12.2835Y-2.239
X12.2835Y-2.339
X12.2835Y-2.439
X12.2835Y-2.539
X12.2835Y-2.639
X12.2835Y-2.739
X12.2835Y-2.839
X12.2835Y-2.939
X12.2835Y-3.039
X12.2835Y-3.139
X12.2835Y-3.239
X12.2835Y-3.339
X12.2835Y-3.439
X12.2835Y-3.539
X12.2835Y-3.639
X12.2835Y-3.739
X12.2835Y-3.839
X12.2835Y-3.939
X12.2835Y-4.039
X12.2835Y-4.139
X12.2835Y-4.239
X12.2835Y-4.339
X12.2835Y-4.439
X12.2835Y-4.539
X12.2835Y-4.639
X12.2835Y-4.739
X12.2835Y-4.839
X12.2835Y-4.939
X12.2835Y-5.039
X12.2835Y-5.139
X12.2835Y-5.239
X12.3835Y-2.139
X12.3835Y-2.239
X12.3835Y-2.339
X12.3835Y-2.439
X12.3835Y-2.539
X12.3835Y-2.639
X12.3835Y-2.739
X12.3835Y-2.839
X12.3835Y-2.939
X12.3835Y-3.039
X12.3835Y-3.139
X12.3835Y-3.239
X12.3835Y-3.339
X12.3835Y-3.439
X12.3835Y-3.539
X12.3835Y-3.639
X12.3835Y-3.739
X12.3835Y-3.839
X12.3835Y-3.939
X12.3835Y-4.039
X12.3835Y-4.139
X12.3835Y-4.239
X12.3835Y-4.339
X12.3835Y-4.439
X12.3835Y-4.539
X12.3835Y-4.639
X12.3835Y-4.739
X12.3835Y-4.839
X12.3835Y-4.939
X12.3835Y-5.039
X12.3835Y-5.139
X12.3835Y-5.239
T6
X3.31Y-1.7035
X3.31Y-1.92
X3.46Y-3.01
X3.46Y-3.2265
X3.4754Y-1.7035
X3.4754Y-1.92
X3.54Y-2.3535
X3.54Y-2.57
X3.6254Y-3.01
X3.6254Y-3.2265
X3.6407Y-1.7035
X3.6407Y-1.92
X3.8061Y-1.7035
X3.8061Y-1.92
T7
X6.2835Y-1.9175
X6.2835Y-5.4605
X7.4835Y-1.9175
X7.4835Y-5.4605
X8.6835Y-1.9175
X8.6835Y-5.4605
X9.8835Y-1.9175
X9.8835Y-5.4605
X11.0835Y-1.9175
X11.0835Y-5.4605
X12.2835Y-1.9175
X12.2835Y-5.4605
T0
M30
