G04 #@! TF.GenerationSoftware,KiCad,Pcbnew,6.0.7-f9a2dced07~116~ubuntu22.04.1*
G04 #@! TF.CreationDate,2023-04-06T14:06:26+01:00*
G04 #@! TF.ProjectId,hiltop_backplane_brd,68696c74-6f70-45f6-9261-636b706c616e,A*
G04 #@! TF.SameCoordinates,Original*
G04 #@! TF.FileFunction,OtherDrawing,Comment*
%FSLAX46Y46*%
G04 Gerber Fmt 4.6, Leading zero omitted, Abs format (unit mm)*
G04 Created by KiCad (PCBNEW 6.0.7-f9a2dced07~116~ubuntu22.04.1) date 2023-04-06 14:06:26*
%MOMM*%
%LPD*%
G01*
G04 APERTURE LIST*
%ADD10C,0.150000*%
G04 #@! TA.AperFunction,Profile*
%ADD11C,0.150000*%
G04 #@! TD*
%ADD12C,0.300000*%
%ADD13C,0.100000*%
G04 APERTURE END LIST*
D10*
X154300000Y-29200000D02*
X154300000Y-158200000D01*
X98600000Y-157700000D02*
X98600000Y-146500000D01*
X63200000Y-129800000D02*
X99700000Y-129800000D01*
D11*
X179840000Y-50700000D02*
G75*
G03*
X179840000Y-50700000I-5000000J0D01*
G01*
X210320000Y-50700000D02*
G75*
G03*
X210320000Y-50700000I-5000000J0D01*
G01*
X240800000Y-50700000D02*
G75*
G03*
X240800000Y-50700000I-5000000J0D01*
G01*
X210320000Y-93700000D02*
G75*
G03*
X210320000Y-93700000I-5000000J0D01*
G01*
X240800000Y-93700000D02*
G75*
G03*
X240800000Y-93700000I-5000000J0D01*
G01*
X179840000Y-136700000D02*
G75*
G03*
X179840000Y-136700000I-5000000J0D01*
G01*
X210320000Y-136700000D02*
G75*
G03*
X210320000Y-136700000I-5000000J0D01*
G01*
X240800000Y-136700000D02*
G75*
G03*
X240800000Y-136700000I-5000000J0D01*
G01*
X179840000Y-93700000D02*
G75*
G03*
X179840000Y-93700000I-5000000J0D01*
G01*
X248500000Y-31150000D02*
X248500000Y-33750000D01*
X284000000Y-33750000D02*
X284000000Y-31150000D01*
X271600000Y-136700000D02*
G75*
G03*
X271600000Y-136700000I-5000000J0D01*
G01*
X65300000Y-136200000D02*
X74500000Y-136200000D01*
X75500000Y-135200000D02*
X75500000Y-127700000D01*
X248500000Y-33750000D02*
X253500000Y-33750000D01*
X131600000Y-156250000D02*
X131600000Y-153650000D01*
X157100000Y-31150000D02*
X157100000Y-33750000D01*
X131600000Y-153650000D02*
X126600000Y-153650000D01*
X192550000Y-153650000D02*
X187550000Y-153650000D01*
X65650000Y-33750000D02*
X70650000Y-33750000D01*
X162100000Y-31150000D02*
X157100000Y-31150000D01*
X101150000Y-33750000D02*
X101150000Y-31150000D01*
X126600000Y-156250000D02*
X131600000Y-156250000D01*
X162100000Y-156250000D02*
X162100000Y-153650000D01*
X279000000Y-31150000D02*
X279000000Y-33750000D01*
X126600000Y-31150000D02*
X126600000Y-33750000D01*
X96150000Y-31150000D02*
X96150000Y-33750000D01*
X98600000Y-126200000D02*
X119300000Y-126200000D01*
X131600000Y-31150000D02*
X126600000Y-31150000D01*
X223050000Y-153650000D02*
X218050000Y-153650000D01*
X192550000Y-33750000D02*
X192550000Y-31150000D01*
X309450000Y-153650000D02*
X309450000Y-156250000D01*
X284000000Y-153650000D02*
X279000000Y-153650000D01*
X70650000Y-31150000D02*
X65650000Y-31150000D01*
X162100000Y-33750000D02*
X162100000Y-31150000D01*
X302080000Y-136700000D02*
G75*
G03*
X302080000Y-136700000I-5000000J0D01*
G01*
X309450000Y-156250000D02*
X314450000Y-156250000D01*
X284000000Y-156250000D02*
X284000000Y-153650000D01*
X248500000Y-156250000D02*
X253500000Y-156250000D01*
X157100000Y-156250000D02*
X162100000Y-156250000D01*
X248500000Y-153650000D02*
X248500000Y-156250000D01*
X218050000Y-156250000D02*
X223050000Y-156250000D01*
X218050000Y-31150000D02*
X218050000Y-33750000D01*
X162100000Y-153650000D02*
X157100000Y-153650000D01*
X332560000Y-93700000D02*
G75*
G03*
X332560000Y-93700000I-5000000J0D01*
G01*
X75500000Y-135200000D02*
X74500000Y-136200000D01*
X126600000Y-153650000D02*
X126600000Y-156250000D01*
X314450000Y-153650000D02*
X309450000Y-153650000D01*
X97600000Y-136200000D02*
X98600000Y-135200000D01*
X157100000Y-33750000D02*
X162100000Y-33750000D01*
X332560000Y-50700000D02*
G75*
G03*
X332560000Y-50700000I-5000000J0D01*
G01*
X70650000Y-33750000D02*
X70650000Y-31150000D01*
X223050000Y-156250000D02*
X223050000Y-153650000D01*
X271600000Y-50700000D02*
G75*
G03*
X271600000Y-50700000I-5000000J0D01*
G01*
X65650000Y-31150000D02*
X65650000Y-33750000D01*
X192550000Y-31150000D02*
X187550000Y-31150000D01*
X302080000Y-93700000D02*
G75*
G03*
X302080000Y-93700000I-5000000J0D01*
G01*
X187550000Y-153650000D02*
X187550000Y-156250000D01*
X44300000Y-29200000D02*
X335300000Y-29200000D01*
X131600000Y-33750000D02*
X131600000Y-31150000D01*
X96150000Y-33750000D02*
X101150000Y-33750000D01*
X187550000Y-33750000D02*
X192550000Y-33750000D01*
X64300000Y-135200000D02*
X64300000Y-126200000D01*
X314500000Y-31150000D02*
X309500000Y-31150000D01*
X218050000Y-153650000D02*
X218050000Y-156250000D01*
X271600000Y-93700000D02*
G75*
G03*
X271600000Y-93700000I-5000000J0D01*
G01*
X253500000Y-33750000D02*
X253500000Y-31150000D01*
X279000000Y-156250000D02*
X284000000Y-156250000D01*
X332560000Y-136700000D02*
G75*
G03*
X332560000Y-136700000I-5000000J0D01*
G01*
X77400000Y-135200000D02*
X78400000Y-136200000D01*
X119300000Y-136200000D02*
X119300000Y-158200000D01*
X309500000Y-31150000D02*
X309500000Y-33750000D01*
X44300000Y-126200000D02*
X44300000Y-29200000D01*
X218050000Y-33750000D02*
X223050000Y-33750000D01*
X314450000Y-156250000D02*
X314450000Y-153650000D01*
X284000000Y-31150000D02*
X279000000Y-31150000D01*
X119300000Y-126200000D02*
X119300000Y-136200000D01*
X78400000Y-136200000D02*
X97600000Y-136200000D01*
X279000000Y-153650000D02*
X279000000Y-156250000D01*
X279000000Y-33750000D02*
X284000000Y-33750000D01*
X253500000Y-153650000D02*
X248500000Y-153650000D01*
X64300000Y-135200000D02*
X65300000Y-136200000D01*
X187550000Y-156250000D02*
X192550000Y-156250000D01*
X75500000Y-127700000D02*
X77400000Y-127700000D01*
X101150000Y-31150000D02*
X96150000Y-31150000D01*
X192550000Y-156250000D02*
X192550000Y-153650000D01*
X253500000Y-31150000D02*
X248500000Y-31150000D01*
X126600000Y-33750000D02*
X131600000Y-33750000D01*
X98600000Y-135200000D02*
X98600000Y-127700000D01*
X335300000Y-29200000D02*
X335300000Y-158200000D01*
X187550000Y-31150000D02*
X187550000Y-33750000D01*
X302080000Y-50700000D02*
G75*
G03*
X302080000Y-50700000I-5000000J0D01*
G01*
X157100000Y-153650000D02*
X157100000Y-156250000D01*
X223050000Y-31150000D02*
X218050000Y-31150000D01*
X98600000Y-127700000D02*
X98600000Y-126200000D01*
X335300000Y-158200000D02*
X119300000Y-158200000D01*
X309500000Y-33750000D02*
X314500000Y-33750000D01*
X253500000Y-156250000D02*
X253500000Y-153650000D01*
X77400000Y-127700000D02*
X77400000Y-135200000D01*
X314500000Y-33750000D02*
X314500000Y-31150000D01*
X64300000Y-126200000D02*
X44300000Y-126200000D01*
X223050000Y-33750000D02*
X223050000Y-31150000D01*
D12*
X343935714Y-95033571D02*
X343221428Y-95033571D01*
X343221428Y-93533571D01*
X344364285Y-94605000D02*
X345078571Y-94605000D01*
X344221428Y-95033571D02*
X344721428Y-93533571D01*
X345221428Y-95033571D01*
X346007142Y-94319285D02*
X346007142Y-95033571D01*
X345507142Y-93533571D02*
X346007142Y-94319285D01*
X346507142Y-93533571D01*
X347007142Y-94247857D02*
X347507142Y-94247857D01*
X347721428Y-95033571D02*
X347007142Y-95033571D01*
X347007142Y-93533571D01*
X347721428Y-93533571D01*
X349221428Y-95033571D02*
X348721428Y-94319285D01*
X348364285Y-95033571D02*
X348364285Y-93533571D01*
X348935714Y-93533571D01*
X349078571Y-93605000D01*
X349150000Y-93676428D01*
X349221428Y-93819285D01*
X349221428Y-94033571D01*
X349150000Y-94176428D01*
X349078571Y-94247857D01*
X348935714Y-94319285D01*
X348364285Y-94319285D01*
X350935714Y-94962142D02*
X351150000Y-95033571D01*
X351507142Y-95033571D01*
X351650000Y-94962142D01*
X351721428Y-94890714D01*
X351792857Y-94747857D01*
X351792857Y-94605000D01*
X351721428Y-94462142D01*
X351650000Y-94390714D01*
X351507142Y-94319285D01*
X351221428Y-94247857D01*
X351078571Y-94176428D01*
X351007142Y-94105000D01*
X350935714Y-93962142D01*
X350935714Y-93819285D01*
X351007142Y-93676428D01*
X351078571Y-93605000D01*
X351221428Y-93533571D01*
X351578571Y-93533571D01*
X351792857Y-93605000D01*
X352221428Y-93533571D02*
X353078571Y-93533571D01*
X352650000Y-95033571D02*
X352650000Y-93533571D01*
X353507142Y-94605000D02*
X354221428Y-94605000D01*
X353364285Y-95033571D02*
X353864285Y-93533571D01*
X354364285Y-95033571D01*
X355721428Y-94890714D02*
X355650000Y-94962142D01*
X355435714Y-95033571D01*
X355292857Y-95033571D01*
X355078571Y-94962142D01*
X354935714Y-94819285D01*
X354864285Y-94676428D01*
X354792857Y-94390714D01*
X354792857Y-94176428D01*
X354864285Y-93890714D01*
X354935714Y-93747857D01*
X355078571Y-93605000D01*
X355292857Y-93533571D01*
X355435714Y-93533571D01*
X355650000Y-93605000D01*
X355721428Y-93676428D01*
X356364285Y-95033571D02*
X356364285Y-93533571D01*
X357221428Y-95033571D02*
X356578571Y-94176428D01*
X357221428Y-93533571D02*
X356364285Y-94390714D01*
X359007142Y-93533571D02*
X359007142Y-94747857D01*
X359078571Y-94890714D01*
X359150000Y-94962142D01*
X359292857Y-95033571D01*
X359578571Y-95033571D01*
X359721428Y-94962142D01*
X359792857Y-94890714D01*
X359864285Y-94747857D01*
X359864285Y-93533571D01*
X360578571Y-95033571D02*
X360578571Y-93533571D01*
X361150000Y-93533571D01*
X361292857Y-93605000D01*
X361364285Y-93676428D01*
X361435714Y-93819285D01*
X361435714Y-94033571D01*
X361364285Y-94176428D01*
X361292857Y-94247857D01*
X361150000Y-94319285D01*
X360578571Y-94319285D01*
X362078571Y-94890714D02*
X362150000Y-94962142D01*
X362078571Y-95033571D01*
X362007142Y-94962142D01*
X362078571Y-94890714D01*
X362078571Y-95033571D01*
X362078571Y-94105000D02*
X362150000Y-94176428D01*
X362078571Y-94247857D01*
X362007142Y-94176428D01*
X362078571Y-94105000D01*
X362078571Y-94247857D01*
X339400000Y-97448571D02*
X338685714Y-97448571D01*
X338685714Y-95948571D01*
X340542857Y-97448571D02*
X340542857Y-96662857D01*
X340471428Y-96520000D01*
X340328571Y-96448571D01*
X340042857Y-96448571D01*
X339900000Y-96520000D01*
X340542857Y-97377142D02*
X340400000Y-97448571D01*
X340042857Y-97448571D01*
X339900000Y-97377142D01*
X339828571Y-97234285D01*
X339828571Y-97091428D01*
X339900000Y-96948571D01*
X340042857Y-96877142D01*
X340400000Y-96877142D01*
X340542857Y-96805714D01*
X341114285Y-96448571D02*
X341471428Y-97448571D01*
X341828571Y-96448571D02*
X341471428Y-97448571D01*
X341328571Y-97805714D01*
X341257142Y-97877142D01*
X341114285Y-97948571D01*
X342971428Y-97377142D02*
X342828571Y-97448571D01*
X342542857Y-97448571D01*
X342400000Y-97377142D01*
X342328571Y-97234285D01*
X342328571Y-96662857D01*
X342400000Y-96520000D01*
X342542857Y-96448571D01*
X342828571Y-96448571D01*
X342971428Y-96520000D01*
X343042857Y-96662857D01*
X343042857Y-96805714D01*
X342328571Y-96948571D01*
X343685714Y-97448571D02*
X343685714Y-96448571D01*
X343685714Y-96734285D02*
X343757142Y-96591428D01*
X343828571Y-96520000D01*
X343971428Y-96448571D01*
X344114285Y-96448571D01*
X346542857Y-97448571D02*
X345685714Y-97448571D01*
X346114285Y-97448571D02*
X346114285Y-95948571D01*
X345971428Y-96162857D01*
X345828571Y-96305714D01*
X345685714Y-96377142D01*
X348328571Y-96877142D02*
X349471428Y-96877142D01*
X351257142Y-97377142D02*
X351471428Y-97448571D01*
X351828571Y-97448571D01*
X351971428Y-97377142D01*
X352042857Y-97305714D01*
X352114285Y-97162857D01*
X352114285Y-97020000D01*
X352042857Y-96877142D01*
X351971428Y-96805714D01*
X351828571Y-96734285D01*
X351542857Y-96662857D01*
X351400000Y-96591428D01*
X351328571Y-96520000D01*
X351257142Y-96377142D01*
X351257142Y-96234285D01*
X351328571Y-96091428D01*
X351400000Y-96020000D01*
X351542857Y-95948571D01*
X351900000Y-95948571D01*
X352114285Y-96020000D01*
X352757142Y-97448571D02*
X352757142Y-96448571D01*
X352757142Y-95948571D02*
X352685714Y-96020000D01*
X352757142Y-96091428D01*
X352828571Y-96020000D01*
X352757142Y-95948571D01*
X352757142Y-96091428D01*
X354114285Y-96448571D02*
X354114285Y-97662857D01*
X354042857Y-97805714D01*
X353971428Y-97877142D01*
X353828571Y-97948571D01*
X353614285Y-97948571D01*
X353471428Y-97877142D01*
X354114285Y-97377142D02*
X353971428Y-97448571D01*
X353685714Y-97448571D01*
X353542857Y-97377142D01*
X353471428Y-97305714D01*
X353400000Y-97162857D01*
X353400000Y-96734285D01*
X353471428Y-96591428D01*
X353542857Y-96520000D01*
X353685714Y-96448571D01*
X353971428Y-96448571D01*
X354114285Y-96520000D01*
X354828571Y-96448571D02*
X354828571Y-97448571D01*
X354828571Y-96591428D02*
X354900000Y-96520000D01*
X355042857Y-96448571D01*
X355257142Y-96448571D01*
X355400000Y-96520000D01*
X355471428Y-96662857D01*
X355471428Y-97448571D01*
X356828571Y-97448571D02*
X356828571Y-96662857D01*
X356757142Y-96520000D01*
X356614285Y-96448571D01*
X356328571Y-96448571D01*
X356185714Y-96520000D01*
X356828571Y-97377142D02*
X356685714Y-97448571D01*
X356328571Y-97448571D01*
X356185714Y-97377142D01*
X356114285Y-97234285D01*
X356114285Y-97091428D01*
X356185714Y-96948571D01*
X356328571Y-96877142D01*
X356685714Y-96877142D01*
X356828571Y-96805714D01*
X357757142Y-97448571D02*
X357614285Y-97377142D01*
X357542857Y-97234285D01*
X357542857Y-95948571D01*
X359471428Y-96877142D02*
X360614285Y-96877142D01*
X362971428Y-96662857D02*
X362471428Y-96662857D01*
X362471428Y-97448571D02*
X362471428Y-95948571D01*
X363185714Y-95948571D01*
X363757142Y-97305714D02*
X363828571Y-97377142D01*
X363757142Y-97448571D01*
X363685714Y-97377142D01*
X363757142Y-97305714D01*
X363757142Y-97448571D01*
X365328571Y-97305714D02*
X365257142Y-97377142D01*
X365042857Y-97448571D01*
X364900000Y-97448571D01*
X364685714Y-97377142D01*
X364542857Y-97234285D01*
X364471428Y-97091428D01*
X364400000Y-96805714D01*
X364400000Y-96591428D01*
X364471428Y-96305714D01*
X364542857Y-96162857D01*
X364685714Y-96020000D01*
X364900000Y-95948571D01*
X365042857Y-95948571D01*
X365257142Y-96020000D01*
X365328571Y-96091428D01*
X366614285Y-96448571D02*
X366614285Y-97448571D01*
X365971428Y-96448571D02*
X365971428Y-97234285D01*
X366042857Y-97377142D01*
X366185714Y-97448571D01*
X366400000Y-97448571D01*
X366542857Y-97377142D01*
X366614285Y-97305714D01*
X337864285Y-99863571D02*
X337150000Y-99863571D01*
X337150000Y-98363571D01*
X339007142Y-99863571D02*
X339007142Y-99077857D01*
X338935714Y-98935000D01*
X338792857Y-98863571D01*
X338507142Y-98863571D01*
X338364285Y-98935000D01*
X339007142Y-99792142D02*
X338864285Y-99863571D01*
X338507142Y-99863571D01*
X338364285Y-99792142D01*
X338292857Y-99649285D01*
X338292857Y-99506428D01*
X338364285Y-99363571D01*
X338507142Y-99292142D01*
X338864285Y-99292142D01*
X339007142Y-99220714D01*
X339578571Y-98863571D02*
X339935714Y-99863571D01*
X340292857Y-98863571D02*
X339935714Y-99863571D01*
X339792857Y-100220714D01*
X339721428Y-100292142D01*
X339578571Y-100363571D01*
X341435714Y-99792142D02*
X341292857Y-99863571D01*
X341007142Y-99863571D01*
X340864285Y-99792142D01*
X340792857Y-99649285D01*
X340792857Y-99077857D01*
X340864285Y-98935000D01*
X341007142Y-98863571D01*
X341292857Y-98863571D01*
X341435714Y-98935000D01*
X341507142Y-99077857D01*
X341507142Y-99220714D01*
X340792857Y-99363571D01*
X342150000Y-99863571D02*
X342150000Y-98863571D01*
X342150000Y-99149285D02*
X342221428Y-99006428D01*
X342292857Y-98935000D01*
X342435714Y-98863571D01*
X342578571Y-98863571D01*
X344150000Y-98506428D02*
X344221428Y-98435000D01*
X344364285Y-98363571D01*
X344721428Y-98363571D01*
X344864285Y-98435000D01*
X344935714Y-98506428D01*
X345007142Y-98649285D01*
X345007142Y-98792142D01*
X344935714Y-99006428D01*
X344078571Y-99863571D01*
X345007142Y-99863571D01*
X346792857Y-99292142D02*
X347935714Y-99292142D01*
X350578571Y-98435000D02*
X350435714Y-98363571D01*
X350221428Y-98363571D01*
X350007142Y-98435000D01*
X349864285Y-98577857D01*
X349792857Y-98720714D01*
X349721428Y-99006428D01*
X349721428Y-99220714D01*
X349792857Y-99506428D01*
X349864285Y-99649285D01*
X350007142Y-99792142D01*
X350221428Y-99863571D01*
X350364285Y-99863571D01*
X350578571Y-99792142D01*
X350650000Y-99720714D01*
X350650000Y-99220714D01*
X350364285Y-99220714D01*
X351292857Y-99863571D02*
X351292857Y-98863571D01*
X351292857Y-99149285D02*
X351364285Y-99006428D01*
X351435714Y-98935000D01*
X351578571Y-98863571D01*
X351721428Y-98863571D01*
X352435714Y-99863571D02*
X352292857Y-99792142D01*
X352221428Y-99720714D01*
X352150000Y-99577857D01*
X352150000Y-99149285D01*
X352221428Y-99006428D01*
X352292857Y-98935000D01*
X352435714Y-98863571D01*
X352650000Y-98863571D01*
X352792857Y-98935000D01*
X352864285Y-99006428D01*
X352935714Y-99149285D01*
X352935714Y-99577857D01*
X352864285Y-99720714D01*
X352792857Y-99792142D01*
X352650000Y-99863571D01*
X352435714Y-99863571D01*
X354221428Y-98863571D02*
X354221428Y-99863571D01*
X353578571Y-98863571D02*
X353578571Y-99649285D01*
X353650000Y-99792142D01*
X353792857Y-99863571D01*
X354007142Y-99863571D01*
X354150000Y-99792142D01*
X354221428Y-99720714D01*
X354935714Y-98863571D02*
X354935714Y-99863571D01*
X354935714Y-99006428D02*
X355007142Y-98935000D01*
X355150000Y-98863571D01*
X355364285Y-98863571D01*
X355507142Y-98935000D01*
X355578571Y-99077857D01*
X355578571Y-99863571D01*
X356935714Y-99863571D02*
X356935714Y-98363571D01*
X356935714Y-99792142D02*
X356792857Y-99863571D01*
X356507142Y-99863571D01*
X356364285Y-99792142D01*
X356292857Y-99720714D01*
X356221428Y-99577857D01*
X356221428Y-99149285D01*
X356292857Y-99006428D01*
X356364285Y-98935000D01*
X356507142Y-98863571D01*
X356792857Y-98863571D01*
X356935714Y-98935000D01*
X358792857Y-99292142D02*
X359935714Y-99292142D01*
X361792857Y-99863571D02*
X361792857Y-98363571D01*
X362507142Y-98863571D02*
X362507142Y-99863571D01*
X362507142Y-99006428D02*
X362578571Y-98935000D01*
X362721428Y-98863571D01*
X362935714Y-98863571D01*
X363078571Y-98935000D01*
X363150000Y-99077857D01*
X363150000Y-99863571D01*
X364650000Y-99863571D02*
X363792857Y-99863571D01*
X364221428Y-99863571D02*
X364221428Y-98363571D01*
X364078571Y-98577857D01*
X363935714Y-98720714D01*
X363792857Y-98792142D01*
X365292857Y-99720714D02*
X365364285Y-99792142D01*
X365292857Y-99863571D01*
X365221428Y-99792142D01*
X365292857Y-99720714D01*
X365292857Y-99863571D01*
X366864285Y-99720714D02*
X366792857Y-99792142D01*
X366578571Y-99863571D01*
X366435714Y-99863571D01*
X366221428Y-99792142D01*
X366078571Y-99649285D01*
X366007142Y-99506428D01*
X365935714Y-99220714D01*
X365935714Y-99006428D01*
X366007142Y-98720714D01*
X366078571Y-98577857D01*
X366221428Y-98435000D01*
X366435714Y-98363571D01*
X366578571Y-98363571D01*
X366792857Y-98435000D01*
X366864285Y-98506428D01*
X368150000Y-98863571D02*
X368150000Y-99863571D01*
X367507142Y-98863571D02*
X367507142Y-99649285D01*
X367578571Y-99792142D01*
X367721428Y-99863571D01*
X367935714Y-99863571D01*
X368078571Y-99792142D01*
X368150000Y-99720714D01*
X338471428Y-102278571D02*
X337757142Y-102278571D01*
X337757142Y-100778571D01*
X339614285Y-102278571D02*
X339614285Y-101492857D01*
X339542857Y-101350000D01*
X339400000Y-101278571D01*
X339114285Y-101278571D01*
X338971428Y-101350000D01*
X339614285Y-102207142D02*
X339471428Y-102278571D01*
X339114285Y-102278571D01*
X338971428Y-102207142D01*
X338900000Y-102064285D01*
X338900000Y-101921428D01*
X338971428Y-101778571D01*
X339114285Y-101707142D01*
X339471428Y-101707142D01*
X339614285Y-101635714D01*
X340185714Y-101278571D02*
X340542857Y-102278571D01*
X340900000Y-101278571D02*
X340542857Y-102278571D01*
X340400000Y-102635714D01*
X340328571Y-102707142D01*
X340185714Y-102778571D01*
X342042857Y-102207142D02*
X341900000Y-102278571D01*
X341614285Y-102278571D01*
X341471428Y-102207142D01*
X341400000Y-102064285D01*
X341400000Y-101492857D01*
X341471428Y-101350000D01*
X341614285Y-101278571D01*
X341900000Y-101278571D01*
X342042857Y-101350000D01*
X342114285Y-101492857D01*
X342114285Y-101635714D01*
X341400000Y-101778571D01*
X342757142Y-102278571D02*
X342757142Y-101278571D01*
X342757142Y-101564285D02*
X342828571Y-101421428D01*
X342900000Y-101350000D01*
X343042857Y-101278571D01*
X343185714Y-101278571D01*
X344685714Y-100778571D02*
X345614285Y-100778571D01*
X345114285Y-101350000D01*
X345328571Y-101350000D01*
X345471428Y-101421428D01*
X345542857Y-101492857D01*
X345614285Y-101635714D01*
X345614285Y-101992857D01*
X345542857Y-102135714D01*
X345471428Y-102207142D01*
X345328571Y-102278571D01*
X344900000Y-102278571D01*
X344757142Y-102207142D01*
X344685714Y-102135714D01*
X347400000Y-101707142D02*
X348542857Y-101707142D01*
X350400000Y-102278571D02*
X350400000Y-100778571D01*
X350971428Y-100778571D01*
X351114285Y-100850000D01*
X351185714Y-100921428D01*
X351257142Y-101064285D01*
X351257142Y-101278571D01*
X351185714Y-101421428D01*
X351114285Y-101492857D01*
X350971428Y-101564285D01*
X350400000Y-101564285D01*
X352114285Y-102278571D02*
X351971428Y-102207142D01*
X351900000Y-102135714D01*
X351828571Y-101992857D01*
X351828571Y-101564285D01*
X351900000Y-101421428D01*
X351971428Y-101350000D01*
X352114285Y-101278571D01*
X352328571Y-101278571D01*
X352471428Y-101350000D01*
X352542857Y-101421428D01*
X352614285Y-101564285D01*
X352614285Y-101992857D01*
X352542857Y-102135714D01*
X352471428Y-102207142D01*
X352328571Y-102278571D01*
X352114285Y-102278571D01*
X353114285Y-101278571D02*
X353400000Y-102278571D01*
X353685714Y-101564285D01*
X353971428Y-102278571D01*
X354257142Y-101278571D01*
X355400000Y-102207142D02*
X355257142Y-102278571D01*
X354971428Y-102278571D01*
X354828571Y-102207142D01*
X354757142Y-102064285D01*
X354757142Y-101492857D01*
X354828571Y-101350000D01*
X354971428Y-101278571D01*
X355257142Y-101278571D01*
X355400000Y-101350000D01*
X355471428Y-101492857D01*
X355471428Y-101635714D01*
X354757142Y-101778571D01*
X356114285Y-102278571D02*
X356114285Y-101278571D01*
X356114285Y-101564285D02*
X356185714Y-101421428D01*
X356257142Y-101350000D01*
X356400000Y-101278571D01*
X356542857Y-101278571D01*
X358185714Y-101707142D02*
X359328571Y-101707142D01*
X361185714Y-102278571D02*
X361185714Y-100778571D01*
X361900000Y-101278571D02*
X361900000Y-102278571D01*
X361900000Y-101421428D02*
X361971428Y-101350000D01*
X362114285Y-101278571D01*
X362328571Y-101278571D01*
X362471428Y-101350000D01*
X362542857Y-101492857D01*
X362542857Y-102278571D01*
X363185714Y-100921428D02*
X363257142Y-100850000D01*
X363400000Y-100778571D01*
X363757142Y-100778571D01*
X363900000Y-100850000D01*
X363971428Y-100921428D01*
X364042857Y-101064285D01*
X364042857Y-101207142D01*
X363971428Y-101421428D01*
X363114285Y-102278571D01*
X364042857Y-102278571D01*
X364685714Y-102135714D02*
X364757142Y-102207142D01*
X364685714Y-102278571D01*
X364614285Y-102207142D01*
X364685714Y-102135714D01*
X364685714Y-102278571D01*
X366257142Y-102135714D02*
X366185714Y-102207142D01*
X365971428Y-102278571D01*
X365828571Y-102278571D01*
X365614285Y-102207142D01*
X365471428Y-102064285D01*
X365400000Y-101921428D01*
X365328571Y-101635714D01*
X365328571Y-101421428D01*
X365400000Y-101135714D01*
X365471428Y-100992857D01*
X365614285Y-100850000D01*
X365828571Y-100778571D01*
X365971428Y-100778571D01*
X366185714Y-100850000D01*
X366257142Y-100921428D01*
X367542857Y-101278571D02*
X367542857Y-102278571D01*
X366900000Y-101278571D02*
X366900000Y-102064285D01*
X366971428Y-102207142D01*
X367114285Y-102278571D01*
X367328571Y-102278571D01*
X367471428Y-102207142D01*
X367542857Y-102135714D01*
X338292857Y-104693571D02*
X337578571Y-104693571D01*
X337578571Y-103193571D01*
X339435714Y-104693571D02*
X339435714Y-103907857D01*
X339364285Y-103765000D01*
X339221428Y-103693571D01*
X338935714Y-103693571D01*
X338792857Y-103765000D01*
X339435714Y-104622142D02*
X339292857Y-104693571D01*
X338935714Y-104693571D01*
X338792857Y-104622142D01*
X338721428Y-104479285D01*
X338721428Y-104336428D01*
X338792857Y-104193571D01*
X338935714Y-104122142D01*
X339292857Y-104122142D01*
X339435714Y-104050714D01*
X340007142Y-103693571D02*
X340364285Y-104693571D01*
X340721428Y-103693571D02*
X340364285Y-104693571D01*
X340221428Y-105050714D01*
X340150000Y-105122142D01*
X340007142Y-105193571D01*
X341864285Y-104622142D02*
X341721428Y-104693571D01*
X341435714Y-104693571D01*
X341292857Y-104622142D01*
X341221428Y-104479285D01*
X341221428Y-103907857D01*
X341292857Y-103765000D01*
X341435714Y-103693571D01*
X341721428Y-103693571D01*
X341864285Y-103765000D01*
X341935714Y-103907857D01*
X341935714Y-104050714D01*
X341221428Y-104193571D01*
X342578571Y-104693571D02*
X342578571Y-103693571D01*
X342578571Y-103979285D02*
X342650000Y-103836428D01*
X342721428Y-103765000D01*
X342864285Y-103693571D01*
X343007142Y-103693571D01*
X345292857Y-103693571D02*
X345292857Y-104693571D01*
X344935714Y-103122142D02*
X344578571Y-104193571D01*
X345507142Y-104193571D01*
X347221428Y-104122142D02*
X348364285Y-104122142D01*
X350150000Y-104622142D02*
X350364285Y-104693571D01*
X350721428Y-104693571D01*
X350864285Y-104622142D01*
X350935714Y-104550714D01*
X351007142Y-104407857D01*
X351007142Y-104265000D01*
X350935714Y-104122142D01*
X350864285Y-104050714D01*
X350721428Y-103979285D01*
X350435714Y-103907857D01*
X350292857Y-103836428D01*
X350221428Y-103765000D01*
X350150000Y-103622142D01*
X350150000Y-103479285D01*
X350221428Y-103336428D01*
X350292857Y-103265000D01*
X350435714Y-103193571D01*
X350792857Y-103193571D01*
X351007142Y-103265000D01*
X351650000Y-104693571D02*
X351650000Y-103693571D01*
X351650000Y-103193571D02*
X351578571Y-103265000D01*
X351650000Y-103336428D01*
X351721428Y-103265000D01*
X351650000Y-103193571D01*
X351650000Y-103336428D01*
X353007142Y-103693571D02*
X353007142Y-104907857D01*
X352935714Y-105050714D01*
X352864285Y-105122142D01*
X352721428Y-105193571D01*
X352507142Y-105193571D01*
X352364285Y-105122142D01*
X353007142Y-104622142D02*
X352864285Y-104693571D01*
X352578571Y-104693571D01*
X352435714Y-104622142D01*
X352364285Y-104550714D01*
X352292857Y-104407857D01*
X352292857Y-103979285D01*
X352364285Y-103836428D01*
X352435714Y-103765000D01*
X352578571Y-103693571D01*
X352864285Y-103693571D01*
X353007142Y-103765000D01*
X353721428Y-103693571D02*
X353721428Y-104693571D01*
X353721428Y-103836428D02*
X353792857Y-103765000D01*
X353935714Y-103693571D01*
X354150000Y-103693571D01*
X354292857Y-103765000D01*
X354364285Y-103907857D01*
X354364285Y-104693571D01*
X355721428Y-104693571D02*
X355721428Y-103907857D01*
X355650000Y-103765000D01*
X355507142Y-103693571D01*
X355221428Y-103693571D01*
X355078571Y-103765000D01*
X355721428Y-104622142D02*
X355578571Y-104693571D01*
X355221428Y-104693571D01*
X355078571Y-104622142D01*
X355007142Y-104479285D01*
X355007142Y-104336428D01*
X355078571Y-104193571D01*
X355221428Y-104122142D01*
X355578571Y-104122142D01*
X355721428Y-104050714D01*
X356650000Y-104693571D02*
X356507142Y-104622142D01*
X356435714Y-104479285D01*
X356435714Y-103193571D01*
X358364285Y-104122142D02*
X359507142Y-104122142D01*
X361364285Y-104693571D02*
X361364285Y-103193571D01*
X362078571Y-103693571D02*
X362078571Y-104693571D01*
X362078571Y-103836428D02*
X362150000Y-103765000D01*
X362292857Y-103693571D01*
X362507142Y-103693571D01*
X362650000Y-103765000D01*
X362721428Y-103907857D01*
X362721428Y-104693571D01*
X363292857Y-103193571D02*
X364221428Y-103193571D01*
X363721428Y-103765000D01*
X363935714Y-103765000D01*
X364078571Y-103836428D01*
X364150000Y-103907857D01*
X364221428Y-104050714D01*
X364221428Y-104407857D01*
X364150000Y-104550714D01*
X364078571Y-104622142D01*
X363935714Y-104693571D01*
X363507142Y-104693571D01*
X363364285Y-104622142D01*
X363292857Y-104550714D01*
X364864285Y-104550714D02*
X364935714Y-104622142D01*
X364864285Y-104693571D01*
X364792857Y-104622142D01*
X364864285Y-104550714D01*
X364864285Y-104693571D01*
X366435714Y-104550714D02*
X366364285Y-104622142D01*
X366150000Y-104693571D01*
X366007142Y-104693571D01*
X365792857Y-104622142D01*
X365650000Y-104479285D01*
X365578571Y-104336428D01*
X365507142Y-104050714D01*
X365507142Y-103836428D01*
X365578571Y-103550714D01*
X365650000Y-103407857D01*
X365792857Y-103265000D01*
X366007142Y-103193571D01*
X366150000Y-103193571D01*
X366364285Y-103265000D01*
X366435714Y-103336428D01*
X367721428Y-103693571D02*
X367721428Y-104693571D01*
X367078571Y-103693571D02*
X367078571Y-104479285D01*
X367150000Y-104622142D01*
X367292857Y-104693571D01*
X367507142Y-104693571D01*
X367650000Y-104622142D01*
X367721428Y-104550714D01*
X337864285Y-107108571D02*
X337150000Y-107108571D01*
X337150000Y-105608571D01*
X339007142Y-107108571D02*
X339007142Y-106322857D01*
X338935714Y-106180000D01*
X338792857Y-106108571D01*
X338507142Y-106108571D01*
X338364285Y-106180000D01*
X339007142Y-107037142D02*
X338864285Y-107108571D01*
X338507142Y-107108571D01*
X338364285Y-107037142D01*
X338292857Y-106894285D01*
X338292857Y-106751428D01*
X338364285Y-106608571D01*
X338507142Y-106537142D01*
X338864285Y-106537142D01*
X339007142Y-106465714D01*
X339578571Y-106108571D02*
X339935714Y-107108571D01*
X340292857Y-106108571D02*
X339935714Y-107108571D01*
X339792857Y-107465714D01*
X339721428Y-107537142D01*
X339578571Y-107608571D01*
X341435714Y-107037142D02*
X341292857Y-107108571D01*
X341007142Y-107108571D01*
X340864285Y-107037142D01*
X340792857Y-106894285D01*
X340792857Y-106322857D01*
X340864285Y-106180000D01*
X341007142Y-106108571D01*
X341292857Y-106108571D01*
X341435714Y-106180000D01*
X341507142Y-106322857D01*
X341507142Y-106465714D01*
X340792857Y-106608571D01*
X342150000Y-107108571D02*
X342150000Y-106108571D01*
X342150000Y-106394285D02*
X342221428Y-106251428D01*
X342292857Y-106180000D01*
X342435714Y-106108571D01*
X342578571Y-106108571D01*
X344935714Y-105608571D02*
X344221428Y-105608571D01*
X344150000Y-106322857D01*
X344221428Y-106251428D01*
X344364285Y-106180000D01*
X344721428Y-106180000D01*
X344864285Y-106251428D01*
X344935714Y-106322857D01*
X345007142Y-106465714D01*
X345007142Y-106822857D01*
X344935714Y-106965714D01*
X344864285Y-107037142D01*
X344721428Y-107108571D01*
X344364285Y-107108571D01*
X344221428Y-107037142D01*
X344150000Y-106965714D01*
X346792857Y-106537142D02*
X347935714Y-106537142D01*
X350578571Y-105680000D02*
X350435714Y-105608571D01*
X350221428Y-105608571D01*
X350007142Y-105680000D01*
X349864285Y-105822857D01*
X349792857Y-105965714D01*
X349721428Y-106251428D01*
X349721428Y-106465714D01*
X349792857Y-106751428D01*
X349864285Y-106894285D01*
X350007142Y-107037142D01*
X350221428Y-107108571D01*
X350364285Y-107108571D01*
X350578571Y-107037142D01*
X350650000Y-106965714D01*
X350650000Y-106465714D01*
X350364285Y-106465714D01*
X351292857Y-107108571D02*
X351292857Y-106108571D01*
X351292857Y-106394285D02*
X351364285Y-106251428D01*
X351435714Y-106180000D01*
X351578571Y-106108571D01*
X351721428Y-106108571D01*
X352435714Y-107108571D02*
X352292857Y-107037142D01*
X352221428Y-106965714D01*
X352150000Y-106822857D01*
X352150000Y-106394285D01*
X352221428Y-106251428D01*
X352292857Y-106180000D01*
X352435714Y-106108571D01*
X352650000Y-106108571D01*
X352792857Y-106180000D01*
X352864285Y-106251428D01*
X352935714Y-106394285D01*
X352935714Y-106822857D01*
X352864285Y-106965714D01*
X352792857Y-107037142D01*
X352650000Y-107108571D01*
X352435714Y-107108571D01*
X354221428Y-106108571D02*
X354221428Y-107108571D01*
X353578571Y-106108571D02*
X353578571Y-106894285D01*
X353650000Y-107037142D01*
X353792857Y-107108571D01*
X354007142Y-107108571D01*
X354150000Y-107037142D01*
X354221428Y-106965714D01*
X354935714Y-106108571D02*
X354935714Y-107108571D01*
X354935714Y-106251428D02*
X355007142Y-106180000D01*
X355150000Y-106108571D01*
X355364285Y-106108571D01*
X355507142Y-106180000D01*
X355578571Y-106322857D01*
X355578571Y-107108571D01*
X356935714Y-107108571D02*
X356935714Y-105608571D01*
X356935714Y-107037142D02*
X356792857Y-107108571D01*
X356507142Y-107108571D01*
X356364285Y-107037142D01*
X356292857Y-106965714D01*
X356221428Y-106822857D01*
X356221428Y-106394285D01*
X356292857Y-106251428D01*
X356364285Y-106180000D01*
X356507142Y-106108571D01*
X356792857Y-106108571D01*
X356935714Y-106180000D01*
X358792857Y-106537142D02*
X359935714Y-106537142D01*
X361792857Y-107108571D02*
X361792857Y-105608571D01*
X362507142Y-106108571D02*
X362507142Y-107108571D01*
X362507142Y-106251428D02*
X362578571Y-106180000D01*
X362721428Y-106108571D01*
X362935714Y-106108571D01*
X363078571Y-106180000D01*
X363150000Y-106322857D01*
X363150000Y-107108571D01*
X364507142Y-106108571D02*
X364507142Y-107108571D01*
X364150000Y-105537142D02*
X363792857Y-106608571D01*
X364721428Y-106608571D01*
X365292857Y-106965714D02*
X365364285Y-107037142D01*
X365292857Y-107108571D01*
X365221428Y-107037142D01*
X365292857Y-106965714D01*
X365292857Y-107108571D01*
X366864285Y-106965714D02*
X366792857Y-107037142D01*
X366578571Y-107108571D01*
X366435714Y-107108571D01*
X366221428Y-107037142D01*
X366078571Y-106894285D01*
X366007142Y-106751428D01*
X365935714Y-106465714D01*
X365935714Y-106251428D01*
X366007142Y-105965714D01*
X366078571Y-105822857D01*
X366221428Y-105680000D01*
X366435714Y-105608571D01*
X366578571Y-105608571D01*
X366792857Y-105680000D01*
X366864285Y-105751428D01*
X368150000Y-106108571D02*
X368150000Y-107108571D01*
X367507142Y-106108571D02*
X367507142Y-106894285D01*
X367578571Y-107037142D01*
X367721428Y-107108571D01*
X367935714Y-107108571D01*
X368078571Y-107037142D01*
X368150000Y-106965714D01*
X339292857Y-109523571D02*
X338578571Y-109523571D01*
X338578571Y-108023571D01*
X340435714Y-109523571D02*
X340435714Y-108737857D01*
X340364285Y-108595000D01*
X340221428Y-108523571D01*
X339935714Y-108523571D01*
X339792857Y-108595000D01*
X340435714Y-109452142D02*
X340292857Y-109523571D01*
X339935714Y-109523571D01*
X339792857Y-109452142D01*
X339721428Y-109309285D01*
X339721428Y-109166428D01*
X339792857Y-109023571D01*
X339935714Y-108952142D01*
X340292857Y-108952142D01*
X340435714Y-108880714D01*
X341007142Y-108523571D02*
X341364285Y-109523571D01*
X341721428Y-108523571D02*
X341364285Y-109523571D01*
X341221428Y-109880714D01*
X341150000Y-109952142D01*
X341007142Y-110023571D01*
X342864285Y-109452142D02*
X342721428Y-109523571D01*
X342435714Y-109523571D01*
X342292857Y-109452142D01*
X342221428Y-109309285D01*
X342221428Y-108737857D01*
X342292857Y-108595000D01*
X342435714Y-108523571D01*
X342721428Y-108523571D01*
X342864285Y-108595000D01*
X342935714Y-108737857D01*
X342935714Y-108880714D01*
X342221428Y-109023571D01*
X343578571Y-109523571D02*
X343578571Y-108523571D01*
X343578571Y-108809285D02*
X343650000Y-108666428D01*
X343721428Y-108595000D01*
X343864285Y-108523571D01*
X344007142Y-108523571D01*
X346292857Y-108023571D02*
X346007142Y-108023571D01*
X345864285Y-108095000D01*
X345792857Y-108166428D01*
X345650000Y-108380714D01*
X345578571Y-108666428D01*
X345578571Y-109237857D01*
X345650000Y-109380714D01*
X345721428Y-109452142D01*
X345864285Y-109523571D01*
X346150000Y-109523571D01*
X346292857Y-109452142D01*
X346364285Y-109380714D01*
X346435714Y-109237857D01*
X346435714Y-108880714D01*
X346364285Y-108737857D01*
X346292857Y-108666428D01*
X346150000Y-108595000D01*
X345864285Y-108595000D01*
X345721428Y-108666428D01*
X345650000Y-108737857D01*
X345578571Y-108880714D01*
X348221428Y-108952142D02*
X349364285Y-108952142D01*
X351150000Y-109452142D02*
X351364285Y-109523571D01*
X351721428Y-109523571D01*
X351864285Y-109452142D01*
X351935714Y-109380714D01*
X352007142Y-109237857D01*
X352007142Y-109095000D01*
X351935714Y-108952142D01*
X351864285Y-108880714D01*
X351721428Y-108809285D01*
X351435714Y-108737857D01*
X351292857Y-108666428D01*
X351221428Y-108595000D01*
X351150000Y-108452142D01*
X351150000Y-108309285D01*
X351221428Y-108166428D01*
X351292857Y-108095000D01*
X351435714Y-108023571D01*
X351792857Y-108023571D01*
X352007142Y-108095000D01*
X352650000Y-109523571D02*
X352650000Y-108523571D01*
X352650000Y-108023571D02*
X352578571Y-108095000D01*
X352650000Y-108166428D01*
X352721428Y-108095000D01*
X352650000Y-108023571D01*
X352650000Y-108166428D01*
X354007142Y-108523571D02*
X354007142Y-109737857D01*
X353935714Y-109880714D01*
X353864285Y-109952142D01*
X353721428Y-110023571D01*
X353507142Y-110023571D01*
X353364285Y-109952142D01*
X354007142Y-109452142D02*
X353864285Y-109523571D01*
X353578571Y-109523571D01*
X353435714Y-109452142D01*
X353364285Y-109380714D01*
X353292857Y-109237857D01*
X353292857Y-108809285D01*
X353364285Y-108666428D01*
X353435714Y-108595000D01*
X353578571Y-108523571D01*
X353864285Y-108523571D01*
X354007142Y-108595000D01*
X354721428Y-108523571D02*
X354721428Y-109523571D01*
X354721428Y-108666428D02*
X354792857Y-108595000D01*
X354935714Y-108523571D01*
X355150000Y-108523571D01*
X355292857Y-108595000D01*
X355364285Y-108737857D01*
X355364285Y-109523571D01*
X356721428Y-109523571D02*
X356721428Y-108737857D01*
X356650000Y-108595000D01*
X356507142Y-108523571D01*
X356221428Y-108523571D01*
X356078571Y-108595000D01*
X356721428Y-109452142D02*
X356578571Y-109523571D01*
X356221428Y-109523571D01*
X356078571Y-109452142D01*
X356007142Y-109309285D01*
X356007142Y-109166428D01*
X356078571Y-109023571D01*
X356221428Y-108952142D01*
X356578571Y-108952142D01*
X356721428Y-108880714D01*
X357650000Y-109523571D02*
X357507142Y-109452142D01*
X357435714Y-109309285D01*
X357435714Y-108023571D01*
X359364285Y-108952142D02*
X360507142Y-108952142D01*
X362864285Y-108737857D02*
X363078571Y-108809285D01*
X363150000Y-108880714D01*
X363221428Y-109023571D01*
X363221428Y-109237857D01*
X363150000Y-109380714D01*
X363078571Y-109452142D01*
X362935714Y-109523571D01*
X362364285Y-109523571D01*
X362364285Y-108023571D01*
X362864285Y-108023571D01*
X363007142Y-108095000D01*
X363078571Y-108166428D01*
X363150000Y-108309285D01*
X363150000Y-108452142D01*
X363078571Y-108595000D01*
X363007142Y-108666428D01*
X362864285Y-108737857D01*
X362364285Y-108737857D01*
X363864285Y-109380714D02*
X363935714Y-109452142D01*
X363864285Y-109523571D01*
X363792857Y-109452142D01*
X363864285Y-109380714D01*
X363864285Y-109523571D01*
X365435714Y-109380714D02*
X365364285Y-109452142D01*
X365150000Y-109523571D01*
X365007142Y-109523571D01*
X364792857Y-109452142D01*
X364650000Y-109309285D01*
X364578571Y-109166428D01*
X364507142Y-108880714D01*
X364507142Y-108666428D01*
X364578571Y-108380714D01*
X364650000Y-108237857D01*
X364792857Y-108095000D01*
X365007142Y-108023571D01*
X365150000Y-108023571D01*
X365364285Y-108095000D01*
X365435714Y-108166428D01*
X366721428Y-108523571D02*
X366721428Y-109523571D01*
X366078571Y-108523571D02*
X366078571Y-109309285D01*
X366150000Y-109452142D01*
X366292857Y-109523571D01*
X366507142Y-109523571D01*
X366650000Y-109452142D01*
X366721428Y-109380714D01*
X102021428Y-164746677D02*
X102092857Y-164675249D01*
X102235714Y-164603820D01*
X102592857Y-164603820D01*
X102735714Y-164675249D01*
X102807142Y-164746677D01*
X102878571Y-164889534D01*
X102878571Y-165032391D01*
X102807142Y-165246677D01*
X101950000Y-166103820D01*
X102878571Y-166103820D01*
X103807142Y-164603820D02*
X103950000Y-164603820D01*
X104092857Y-164675249D01*
X104164285Y-164746677D01*
X104235714Y-164889534D01*
X104307142Y-165175249D01*
X104307142Y-165532391D01*
X104235714Y-165818106D01*
X104164285Y-165960963D01*
X104092857Y-166032391D01*
X103950000Y-166103820D01*
X103807142Y-166103820D01*
X103664285Y-166032391D01*
X103592857Y-165960963D01*
X103521428Y-165818106D01*
X103450000Y-165532391D01*
X103450000Y-165175249D01*
X103521428Y-164889534D01*
X103592857Y-164746677D01*
X103664285Y-164675249D01*
X103807142Y-164603820D01*
X104950000Y-165960963D02*
X105021428Y-166032391D01*
X104950000Y-166103820D01*
X104878571Y-166032391D01*
X104950000Y-165960963D01*
X104950000Y-166103820D01*
X105521428Y-164603820D02*
X106521428Y-164603820D01*
X105878571Y-166103820D01*
X107378571Y-164603820D02*
X107521428Y-164603820D01*
X107664285Y-164675249D01*
X107735714Y-164746677D01*
X107807142Y-164889534D01*
X107878571Y-165175249D01*
X107878571Y-165532391D01*
X107807142Y-165818106D01*
X107735714Y-165960963D01*
X107664285Y-166032391D01*
X107521428Y-166103820D01*
X107378571Y-166103820D01*
X107235714Y-166032391D01*
X107164285Y-165960963D01*
X107092857Y-165818106D01*
X107021428Y-165532391D01*
X107021428Y-165175249D01*
X107092857Y-164889534D01*
X107164285Y-164746677D01*
X107235714Y-164675249D01*
X107378571Y-164603820D01*
X108807142Y-164603820D02*
X108950000Y-164603820D01*
X109092857Y-164675249D01*
X109164285Y-164746677D01*
X109235714Y-164889534D01*
X109307142Y-165175249D01*
X109307142Y-165532391D01*
X109235714Y-165818106D01*
X109164285Y-165960963D01*
X109092857Y-166032391D01*
X108950000Y-166103820D01*
X108807142Y-166103820D01*
X108664285Y-166032391D01*
X108592857Y-165960963D01*
X108521428Y-165818106D01*
X108450000Y-165532391D01*
X108450000Y-165175249D01*
X108521428Y-164889534D01*
X108592857Y-164746677D01*
X108664285Y-164675249D01*
X108807142Y-164603820D01*
X110235714Y-164603820D02*
X110378571Y-164603820D01*
X110521428Y-164675249D01*
X110592857Y-164746677D01*
X110664285Y-164889534D01*
X110735714Y-165175249D01*
X110735714Y-165532391D01*
X110664285Y-165818106D01*
X110592857Y-165960963D01*
X110521428Y-166032391D01*
X110378571Y-166103820D01*
X110235714Y-166103820D01*
X110092857Y-166032391D01*
X110021428Y-165960963D01*
X109950000Y-165818106D01*
X109878571Y-165532391D01*
X109878571Y-165175249D01*
X109950000Y-164889534D01*
X110021428Y-164746677D01*
X110092857Y-164675249D01*
X110235714Y-164603820D01*
X112521428Y-166103820D02*
X112521428Y-165103820D01*
X112521428Y-165246677D02*
X112592857Y-165175249D01*
X112735714Y-165103820D01*
X112950000Y-165103820D01*
X113092857Y-165175249D01*
X113164285Y-165318106D01*
X113164285Y-166103820D01*
X113164285Y-165318106D02*
X113235714Y-165175249D01*
X113378571Y-165103820D01*
X113592857Y-165103820D01*
X113735714Y-165175249D01*
X113807142Y-165318106D01*
X113807142Y-166103820D01*
X114521428Y-166103820D02*
X114521428Y-165103820D01*
X114521428Y-165246677D02*
X114592857Y-165175249D01*
X114735714Y-165103820D01*
X114950000Y-165103820D01*
X115092857Y-165175249D01*
X115164285Y-165318106D01*
X115164285Y-166103820D01*
X115164285Y-165318106D02*
X115235714Y-165175249D01*
X115378571Y-165103820D01*
X115592857Y-165103820D01*
X115735714Y-165175249D01*
X115807142Y-165318106D01*
X115807142Y-166103820D01*
X119300000Y-158125249D02*
X119300000Y-167811669D01*
X98600000Y-158125249D02*
X98600000Y-167811669D01*
X119300000Y-167225249D02*
X98600000Y-167225249D01*
X119300000Y-167225249D02*
X98600000Y-167225249D01*
X119300000Y-167225249D02*
X118173496Y-166638828D01*
X119300000Y-167225249D02*
X118173496Y-167811670D01*
X98600000Y-167225249D02*
X99726504Y-167811670D01*
X98600000Y-167225249D02*
X99726504Y-166638828D01*
X63828571Y-144078571D02*
X62971428Y-144078571D01*
X63400000Y-144078571D02*
X63400000Y-142578571D01*
X63257142Y-142792857D01*
X63114285Y-142935714D01*
X62971428Y-143007142D01*
X65257142Y-144078571D02*
X64400000Y-144078571D01*
X64828571Y-144078571D02*
X64828571Y-142578571D01*
X64685714Y-142792857D01*
X64542857Y-142935714D01*
X64400000Y-143007142D01*
X65900000Y-143935714D02*
X65971428Y-144007142D01*
X65900000Y-144078571D01*
X65828571Y-144007142D01*
X65900000Y-143935714D01*
X65900000Y-144078571D01*
X66542857Y-142721428D02*
X66614285Y-142650000D01*
X66757142Y-142578571D01*
X67114285Y-142578571D01*
X67257142Y-142650000D01*
X67328571Y-142721428D01*
X67400000Y-142864285D01*
X67400000Y-143007142D01*
X67328571Y-143221428D01*
X66471428Y-144078571D01*
X67400000Y-144078571D01*
X68328571Y-142578571D02*
X68471428Y-142578571D01*
X68614285Y-142650000D01*
X68685714Y-142721428D01*
X68757142Y-142864285D01*
X68828571Y-143150000D01*
X68828571Y-143507142D01*
X68757142Y-143792857D01*
X68685714Y-143935714D01*
X68614285Y-144007142D01*
X68471428Y-144078571D01*
X68328571Y-144078571D01*
X68185714Y-144007142D01*
X68114285Y-143935714D01*
X68042857Y-143792857D01*
X67971428Y-143507142D01*
X67971428Y-143150000D01*
X68042857Y-142864285D01*
X68114285Y-142721428D01*
X68185714Y-142650000D01*
X68328571Y-142578571D01*
X69757142Y-142578571D02*
X69900000Y-142578571D01*
X70042857Y-142650000D01*
X70114285Y-142721428D01*
X70185714Y-142864285D01*
X70257142Y-143150000D01*
X70257142Y-143507142D01*
X70185714Y-143792857D01*
X70114285Y-143935714D01*
X70042857Y-144007142D01*
X69900000Y-144078571D01*
X69757142Y-144078571D01*
X69614285Y-144007142D01*
X69542857Y-143935714D01*
X69471428Y-143792857D01*
X69400000Y-143507142D01*
X69400000Y-143150000D01*
X69471428Y-142864285D01*
X69542857Y-142721428D01*
X69614285Y-142650000D01*
X69757142Y-142578571D01*
X71185714Y-142578571D02*
X71328571Y-142578571D01*
X71471428Y-142650000D01*
X71542857Y-142721428D01*
X71614285Y-142864285D01*
X71685714Y-143150000D01*
X71685714Y-143507142D01*
X71614285Y-143792857D01*
X71542857Y-143935714D01*
X71471428Y-144007142D01*
X71328571Y-144078571D01*
X71185714Y-144078571D01*
X71042857Y-144007142D01*
X70971428Y-143935714D01*
X70900000Y-143792857D01*
X70828571Y-143507142D01*
X70828571Y-143150000D01*
X70900000Y-142864285D01*
X70971428Y-142721428D01*
X71042857Y-142650000D01*
X71185714Y-142578571D01*
X73471428Y-144078571D02*
X73471428Y-143078571D01*
X73471428Y-143221428D02*
X73542857Y-143150000D01*
X73685714Y-143078571D01*
X73900000Y-143078571D01*
X74042857Y-143150000D01*
X74114285Y-143292857D01*
X74114285Y-144078571D01*
X74114285Y-143292857D02*
X74185714Y-143150000D01*
X74328571Y-143078571D01*
X74542857Y-143078571D01*
X74685714Y-143150000D01*
X74757142Y-143292857D01*
X74757142Y-144078571D01*
X75471428Y-144078571D02*
X75471428Y-143078571D01*
X75471428Y-143221428D02*
X75542857Y-143150000D01*
X75685714Y-143078571D01*
X75900000Y-143078571D01*
X76042857Y-143150000D01*
X76114285Y-143292857D01*
X76114285Y-144078571D01*
X76114285Y-143292857D02*
X76185714Y-143150000D01*
X76328571Y-143078571D01*
X76542857Y-143078571D01*
X76685714Y-143150000D01*
X76757142Y-143292857D01*
X76757142Y-144078571D01*
X75500000Y-136200000D02*
X75500000Y-145786420D01*
X64300000Y-136200000D02*
X64300000Y-145786420D01*
X75500000Y-145200000D02*
X64300000Y-145200000D01*
X75500000Y-145200000D02*
X64300000Y-145200000D01*
X75500000Y-145200000D02*
X74373496Y-144613579D01*
X75500000Y-145200000D02*
X74373496Y-145786421D01*
X64300000Y-145200000D02*
X65426504Y-145786421D01*
X64300000Y-145200000D02*
X65426504Y-144613579D01*
X341278571Y-100385714D02*
X341278571Y-101242857D01*
X341278571Y-100814285D02*
X339778571Y-100814285D01*
X339992857Y-100957142D01*
X340135714Y-101100000D01*
X340207142Y-101242857D01*
X339921428Y-99814285D02*
X339850000Y-99742857D01*
X339778571Y-99600000D01*
X339778571Y-99242857D01*
X339850000Y-99100000D01*
X339921428Y-99028571D01*
X340064285Y-98957142D01*
X340207142Y-98957142D01*
X340421428Y-99028571D01*
X341278571Y-99885714D01*
X341278571Y-98957142D01*
X341278571Y-98242857D02*
X341278571Y-97957142D01*
X341207142Y-97814285D01*
X341135714Y-97742857D01*
X340921428Y-97600000D01*
X340635714Y-97528571D01*
X340064285Y-97528571D01*
X339921428Y-97600000D01*
X339850000Y-97671428D01*
X339778571Y-97814285D01*
X339778571Y-98100000D01*
X339850000Y-98242857D01*
X339921428Y-98314285D01*
X340064285Y-98385714D01*
X340421428Y-98385714D01*
X340564285Y-98314285D01*
X340635714Y-98242857D01*
X340707142Y-98100000D01*
X340707142Y-97814285D01*
X340635714Y-97671428D01*
X340564285Y-97600000D01*
X340421428Y-97528571D01*
X341135714Y-96885714D02*
X341207142Y-96814285D01*
X341278571Y-96885714D01*
X341207142Y-96957142D01*
X341135714Y-96885714D01*
X341278571Y-96885714D01*
X339778571Y-95885714D02*
X339778571Y-95742857D01*
X339850000Y-95600000D01*
X339921428Y-95528571D01*
X340064285Y-95457142D01*
X340350000Y-95385714D01*
X340707142Y-95385714D01*
X340992857Y-95457142D01*
X341135714Y-95528571D01*
X341207142Y-95600000D01*
X341278571Y-95742857D01*
X341278571Y-95885714D01*
X341207142Y-96028571D01*
X341135714Y-96100000D01*
X340992857Y-96171428D01*
X340707142Y-96242857D01*
X340350000Y-96242857D01*
X340064285Y-96171428D01*
X339921428Y-96100000D01*
X339850000Y-96028571D01*
X339778571Y-95885714D01*
X339778571Y-94457142D02*
X339778571Y-94314285D01*
X339850000Y-94171428D01*
X339921428Y-94100000D01*
X340064285Y-94028571D01*
X340350000Y-93957142D01*
X340707142Y-93957142D01*
X340992857Y-94028571D01*
X341135714Y-94100000D01*
X341207142Y-94171428D01*
X341278571Y-94314285D01*
X341278571Y-94457142D01*
X341207142Y-94600000D01*
X341135714Y-94671428D01*
X340992857Y-94742857D01*
X340707142Y-94814285D01*
X340350000Y-94814285D01*
X340064285Y-94742857D01*
X339921428Y-94671428D01*
X339850000Y-94600000D01*
X339778571Y-94457142D01*
X339778571Y-93028571D02*
X339778571Y-92885714D01*
X339850000Y-92742857D01*
X339921428Y-92671428D01*
X340064285Y-92600000D01*
X340350000Y-92528571D01*
X340707142Y-92528571D01*
X340992857Y-92600000D01*
X341135714Y-92671428D01*
X341207142Y-92742857D01*
X341278571Y-92885714D01*
X341278571Y-93028571D01*
X341207142Y-93171428D01*
X341135714Y-93242857D01*
X340992857Y-93314285D01*
X340707142Y-93385714D01*
X340350000Y-93385714D01*
X340064285Y-93314285D01*
X339921428Y-93242857D01*
X339850000Y-93171428D01*
X339778571Y-93028571D01*
X339778571Y-91600000D02*
X339778571Y-91457142D01*
X339850000Y-91314285D01*
X339921428Y-91242857D01*
X340064285Y-91171428D01*
X340350000Y-91100000D01*
X340707142Y-91100000D01*
X340992857Y-91171428D01*
X341135714Y-91242857D01*
X341207142Y-91314285D01*
X341278571Y-91457142D01*
X341278571Y-91600000D01*
X341207142Y-91742857D01*
X341135714Y-91814285D01*
X340992857Y-91885714D01*
X340707142Y-91957142D01*
X340350000Y-91957142D01*
X340064285Y-91885714D01*
X339921428Y-91814285D01*
X339850000Y-91742857D01*
X339778571Y-91600000D01*
X341278571Y-89314285D02*
X340278571Y-89314285D01*
X340421428Y-89314285D02*
X340350000Y-89242857D01*
X340278571Y-89100000D01*
X340278571Y-88885714D01*
X340350000Y-88742857D01*
X340492857Y-88671428D01*
X341278571Y-88671428D01*
X340492857Y-88671428D02*
X340350000Y-88600000D01*
X340278571Y-88457142D01*
X340278571Y-88242857D01*
X340350000Y-88100000D01*
X340492857Y-88028571D01*
X341278571Y-88028571D01*
X341278571Y-87314285D02*
X340278571Y-87314285D01*
X340421428Y-87314285D02*
X340350000Y-87242857D01*
X340278571Y-87100000D01*
X340278571Y-86885714D01*
X340350000Y-86742857D01*
X340492857Y-86671428D01*
X341278571Y-86671428D01*
X340492857Y-86671428D02*
X340350000Y-86600000D01*
X340278571Y-86457142D01*
X340278571Y-86242857D01*
X340350000Y-86100000D01*
X340492857Y-86028571D01*
X341278571Y-86028571D01*
X336000000Y-158100000D02*
X342986420Y-158100000D01*
X336000000Y-29100000D02*
X342986420Y-29100000D01*
X342400000Y-158100000D02*
X342400000Y-29100000D01*
X342400000Y-158100000D02*
X342400000Y-29100000D01*
X342400000Y-158100000D02*
X342986421Y-156973496D01*
X342400000Y-158100000D02*
X341813579Y-156973496D01*
X342400000Y-29100000D02*
X341813579Y-30226504D01*
X342400000Y-29100000D02*
X342986421Y-30226504D01*
X37878571Y-137271428D02*
X37878571Y-138128571D01*
X37878571Y-137700000D02*
X36378571Y-137700000D01*
X36592857Y-137842857D01*
X36735714Y-137985714D01*
X36807142Y-138128571D01*
X36378571Y-136342857D02*
X36378571Y-136200000D01*
X36450000Y-136057142D01*
X36521428Y-135985714D01*
X36664285Y-135914285D01*
X36950000Y-135842857D01*
X37307142Y-135842857D01*
X37592857Y-135914285D01*
X37735714Y-135985714D01*
X37807142Y-136057142D01*
X37878571Y-136200000D01*
X37878571Y-136342857D01*
X37807142Y-136485714D01*
X37735714Y-136557142D01*
X37592857Y-136628571D01*
X37307142Y-136700000D01*
X36950000Y-136700000D01*
X36664285Y-136628571D01*
X36521428Y-136557142D01*
X36450000Y-136485714D01*
X36378571Y-136342857D01*
X37735714Y-135200000D02*
X37807142Y-135128571D01*
X37878571Y-135200000D01*
X37807142Y-135271428D01*
X37735714Y-135200000D01*
X37878571Y-135200000D01*
X36378571Y-134200000D02*
X36378571Y-134057142D01*
X36450000Y-133914285D01*
X36521428Y-133842857D01*
X36664285Y-133771428D01*
X36950000Y-133700000D01*
X37307142Y-133700000D01*
X37592857Y-133771428D01*
X37735714Y-133842857D01*
X37807142Y-133914285D01*
X37878571Y-134057142D01*
X37878571Y-134200000D01*
X37807142Y-134342857D01*
X37735714Y-134414285D01*
X37592857Y-134485714D01*
X37307142Y-134557142D01*
X36950000Y-134557142D01*
X36664285Y-134485714D01*
X36521428Y-134414285D01*
X36450000Y-134342857D01*
X36378571Y-134200000D01*
X36378571Y-132771428D02*
X36378571Y-132628571D01*
X36450000Y-132485714D01*
X36521428Y-132414285D01*
X36664285Y-132342857D01*
X36950000Y-132271428D01*
X37307142Y-132271428D01*
X37592857Y-132342857D01*
X37735714Y-132414285D01*
X37807142Y-132485714D01*
X37878571Y-132628571D01*
X37878571Y-132771428D01*
X37807142Y-132914285D01*
X37735714Y-132985714D01*
X37592857Y-133057142D01*
X37307142Y-133128571D01*
X36950000Y-133128571D01*
X36664285Y-133057142D01*
X36521428Y-132985714D01*
X36450000Y-132914285D01*
X36378571Y-132771428D01*
X36378571Y-131342857D02*
X36378571Y-131200000D01*
X36450000Y-131057142D01*
X36521428Y-130985714D01*
X36664285Y-130914285D01*
X36950000Y-130842857D01*
X37307142Y-130842857D01*
X37592857Y-130914285D01*
X37735714Y-130985714D01*
X37807142Y-131057142D01*
X37878571Y-131200000D01*
X37878571Y-131342857D01*
X37807142Y-131485714D01*
X37735714Y-131557142D01*
X37592857Y-131628571D01*
X37307142Y-131700000D01*
X36950000Y-131700000D01*
X36664285Y-131628571D01*
X36521428Y-131557142D01*
X36450000Y-131485714D01*
X36378571Y-131342857D01*
X36378571Y-129914285D02*
X36378571Y-129771428D01*
X36450000Y-129628571D01*
X36521428Y-129557142D01*
X36664285Y-129485714D01*
X36950000Y-129414285D01*
X37307142Y-129414285D01*
X37592857Y-129485714D01*
X37735714Y-129557142D01*
X37807142Y-129628571D01*
X37878571Y-129771428D01*
X37878571Y-129914285D01*
X37807142Y-130057142D01*
X37735714Y-130128571D01*
X37592857Y-130200000D01*
X37307142Y-130271428D01*
X36950000Y-130271428D01*
X36664285Y-130200000D01*
X36521428Y-130128571D01*
X36450000Y-130057142D01*
X36378571Y-129914285D01*
X37878571Y-127628571D02*
X36878571Y-127628571D01*
X37021428Y-127628571D02*
X36950000Y-127557142D01*
X36878571Y-127414285D01*
X36878571Y-127200000D01*
X36950000Y-127057142D01*
X37092857Y-126985714D01*
X37878571Y-126985714D01*
X37092857Y-126985714D02*
X36950000Y-126914285D01*
X36878571Y-126771428D01*
X36878571Y-126557142D01*
X36950000Y-126414285D01*
X37092857Y-126342857D01*
X37878571Y-126342857D01*
X37878571Y-125628571D02*
X36878571Y-125628571D01*
X37021428Y-125628571D02*
X36950000Y-125557142D01*
X36878571Y-125414285D01*
X36878571Y-125200000D01*
X36950000Y-125057142D01*
X37092857Y-124985714D01*
X37878571Y-124985714D01*
X37092857Y-124985714D02*
X36950000Y-124914285D01*
X36878571Y-124771428D01*
X36878571Y-124557142D01*
X36950000Y-124414285D01*
X37092857Y-124342857D01*
X37878571Y-124342857D01*
X44300000Y-136200000D02*
X38413580Y-136200000D01*
X44300000Y-126200000D02*
X38413580Y-126200000D01*
X39000000Y-136200000D02*
X39000000Y-126200000D01*
X39000000Y-136200000D02*
X39000000Y-126200000D01*
X39000000Y-136200000D02*
X39586421Y-135073496D01*
X39000000Y-136200000D02*
X38413579Y-135073496D01*
X39000000Y-126200000D02*
X38413579Y-127326504D01*
X39000000Y-126200000D02*
X39586421Y-127326504D01*
X37878572Y-84485714D02*
X37878572Y-84200000D01*
X37807143Y-84057142D01*
X37735715Y-83985714D01*
X37521429Y-83842857D01*
X37235715Y-83771428D01*
X36664286Y-83771428D01*
X36521429Y-83842857D01*
X36450001Y-83914285D01*
X36378572Y-84057142D01*
X36378572Y-84342857D01*
X36450001Y-84485714D01*
X36521429Y-84557142D01*
X36664286Y-84628571D01*
X37021429Y-84628571D01*
X37164286Y-84557142D01*
X37235715Y-84485714D01*
X37307143Y-84342857D01*
X37307143Y-84057142D01*
X37235715Y-83914285D01*
X37164286Y-83842857D01*
X37021429Y-83771428D01*
X36378572Y-83271428D02*
X36378572Y-82271428D01*
X37878572Y-82914285D01*
X37735715Y-81700000D02*
X37807143Y-81628571D01*
X37878572Y-81700000D01*
X37807143Y-81771428D01*
X37735715Y-81700000D01*
X37878572Y-81700000D01*
X36378572Y-80700000D02*
X36378572Y-80557142D01*
X36450001Y-80414285D01*
X36521429Y-80342857D01*
X36664286Y-80271428D01*
X36950001Y-80200000D01*
X37307143Y-80200000D01*
X37592858Y-80271428D01*
X37735715Y-80342857D01*
X37807143Y-80414285D01*
X37878572Y-80557142D01*
X37878572Y-80700000D01*
X37807143Y-80842857D01*
X37735715Y-80914285D01*
X37592858Y-80985714D01*
X37307143Y-81057142D01*
X36950001Y-81057142D01*
X36664286Y-80985714D01*
X36521429Y-80914285D01*
X36450001Y-80842857D01*
X36378572Y-80700000D01*
X36378572Y-79271428D02*
X36378572Y-79128571D01*
X36450001Y-78985714D01*
X36521429Y-78914285D01*
X36664286Y-78842857D01*
X36950001Y-78771428D01*
X37307143Y-78771428D01*
X37592858Y-78842857D01*
X37735715Y-78914285D01*
X37807143Y-78985714D01*
X37878572Y-79128571D01*
X37878572Y-79271428D01*
X37807143Y-79414285D01*
X37735715Y-79485714D01*
X37592858Y-79557142D01*
X37307143Y-79628571D01*
X36950001Y-79628571D01*
X36664286Y-79557142D01*
X36521429Y-79485714D01*
X36450001Y-79414285D01*
X36378572Y-79271428D01*
X36378572Y-77842857D02*
X36378572Y-77700000D01*
X36450001Y-77557142D01*
X36521429Y-77485714D01*
X36664286Y-77414285D01*
X36950001Y-77342857D01*
X37307143Y-77342857D01*
X37592858Y-77414285D01*
X37735715Y-77485714D01*
X37807143Y-77557142D01*
X37878572Y-77700000D01*
X37878572Y-77842857D01*
X37807143Y-77985714D01*
X37735715Y-78057142D01*
X37592858Y-78128571D01*
X37307143Y-78200000D01*
X36950001Y-78200000D01*
X36664286Y-78128571D01*
X36521429Y-78057142D01*
X36450001Y-77985714D01*
X36378572Y-77842857D01*
X36378572Y-76414285D02*
X36378572Y-76271428D01*
X36450001Y-76128571D01*
X36521429Y-76057142D01*
X36664286Y-75985714D01*
X36950001Y-75914285D01*
X37307143Y-75914285D01*
X37592858Y-75985714D01*
X37735715Y-76057142D01*
X37807143Y-76128571D01*
X37878572Y-76271428D01*
X37878572Y-76414285D01*
X37807143Y-76557142D01*
X37735715Y-76628571D01*
X37592858Y-76700000D01*
X37307143Y-76771428D01*
X36950001Y-76771428D01*
X36664286Y-76700000D01*
X36521429Y-76628571D01*
X36450001Y-76557142D01*
X36378572Y-76414285D01*
X37878572Y-74128571D02*
X36878572Y-74128571D01*
X37021429Y-74128571D02*
X36950001Y-74057142D01*
X36878572Y-73914285D01*
X36878572Y-73700000D01*
X36950001Y-73557142D01*
X37092858Y-73485714D01*
X37878572Y-73485714D01*
X37092858Y-73485714D02*
X36950001Y-73414285D01*
X36878572Y-73271428D01*
X36878572Y-73057142D01*
X36950001Y-72914285D01*
X37092858Y-72842857D01*
X37878572Y-72842857D01*
X37878572Y-72128571D02*
X36878572Y-72128571D01*
X37021429Y-72128571D02*
X36950001Y-72057142D01*
X36878572Y-71914285D01*
X36878572Y-71700000D01*
X36950001Y-71557142D01*
X37092858Y-71485714D01*
X37878572Y-71485714D01*
X37092858Y-71485714D02*
X36950001Y-71414285D01*
X36878572Y-71271428D01*
X36878572Y-71057142D01*
X36950001Y-70914285D01*
X37092858Y-70842857D01*
X37878572Y-70842857D01*
X44300000Y-126200000D02*
X38413581Y-126200000D01*
X44300000Y-29200000D02*
X38413581Y-29200000D01*
X39000001Y-126200000D02*
X39000001Y-29200000D01*
X39000001Y-126200000D02*
X39000001Y-29200000D01*
X39000001Y-126200000D02*
X39586422Y-125073496D01*
X39000001Y-126200000D02*
X38413580Y-125073496D01*
X39000001Y-29200000D02*
X38413580Y-30326504D01*
X39000001Y-29200000D02*
X39586422Y-30326504D01*
X110682051Y-149173397D02*
X110682051Y-148244825D01*
X111253480Y-148744825D01*
X111253480Y-148530539D01*
X111324908Y-148387682D01*
X111396337Y-148316254D01*
X111539194Y-148244825D01*
X111896337Y-148244825D01*
X112039194Y-148316254D01*
X112110622Y-148387682D01*
X112182051Y-148530539D01*
X112182051Y-148959111D01*
X112110622Y-149101968D01*
X112039194Y-149173397D01*
X110824908Y-147673397D02*
X110753480Y-147601968D01*
X110682051Y-147459111D01*
X110682051Y-147101968D01*
X110753480Y-146959111D01*
X110824908Y-146887682D01*
X110967765Y-146816254D01*
X111110622Y-146816254D01*
X111324908Y-146887682D01*
X112182051Y-147744825D01*
X112182051Y-146816254D01*
X112039194Y-146173397D02*
X112110622Y-146101968D01*
X112182051Y-146173397D01*
X112110622Y-146244825D01*
X112039194Y-146173397D01*
X112182051Y-146173397D01*
X110682051Y-145173397D02*
X110682051Y-145030539D01*
X110753480Y-144887682D01*
X110824908Y-144816254D01*
X110967765Y-144744825D01*
X111253480Y-144673397D01*
X111610622Y-144673397D01*
X111896337Y-144744825D01*
X112039194Y-144816254D01*
X112110622Y-144887682D01*
X112182051Y-145030539D01*
X112182051Y-145173397D01*
X112110622Y-145316254D01*
X112039194Y-145387682D01*
X111896337Y-145459111D01*
X111610622Y-145530539D01*
X111253480Y-145530539D01*
X110967765Y-145459111D01*
X110824908Y-145387682D01*
X110753480Y-145316254D01*
X110682051Y-145173397D01*
X110682051Y-143744825D02*
X110682051Y-143601968D01*
X110753480Y-143459111D01*
X110824908Y-143387682D01*
X110967765Y-143316254D01*
X111253480Y-143244825D01*
X111610622Y-143244825D01*
X111896337Y-143316254D01*
X112039194Y-143387682D01*
X112110622Y-143459111D01*
X112182051Y-143601968D01*
X112182051Y-143744825D01*
X112110622Y-143887682D01*
X112039194Y-143959111D01*
X111896337Y-144030539D01*
X111610622Y-144101968D01*
X111253480Y-144101968D01*
X110967765Y-144030539D01*
X110824908Y-143959111D01*
X110753480Y-143887682D01*
X110682051Y-143744825D01*
X110682051Y-142316254D02*
X110682051Y-142173397D01*
X110753480Y-142030539D01*
X110824908Y-141959111D01*
X110967765Y-141887682D01*
X111253480Y-141816254D01*
X111610622Y-141816254D01*
X111896337Y-141887682D01*
X112039194Y-141959111D01*
X112110622Y-142030539D01*
X112182051Y-142173397D01*
X112182051Y-142316254D01*
X112110622Y-142459111D01*
X112039194Y-142530539D01*
X111896337Y-142601968D01*
X111610622Y-142673397D01*
X111253480Y-142673397D01*
X110967765Y-142601968D01*
X110824908Y-142530539D01*
X110753480Y-142459111D01*
X110682051Y-142316254D01*
X110682051Y-140887682D02*
X110682051Y-140744825D01*
X110753480Y-140601968D01*
X110824908Y-140530539D01*
X110967765Y-140459111D01*
X111253480Y-140387682D01*
X111610622Y-140387682D01*
X111896337Y-140459111D01*
X112039194Y-140530539D01*
X112110622Y-140601968D01*
X112182051Y-140744825D01*
X112182051Y-140887682D01*
X112110622Y-141030539D01*
X112039194Y-141101968D01*
X111896337Y-141173397D01*
X111610622Y-141244825D01*
X111253480Y-141244825D01*
X110967765Y-141173397D01*
X110824908Y-141101968D01*
X110753480Y-141030539D01*
X110682051Y-140887682D01*
X112182051Y-138601968D02*
X111182051Y-138601968D01*
X111324908Y-138601968D02*
X111253480Y-138530539D01*
X111182051Y-138387682D01*
X111182051Y-138173397D01*
X111253480Y-138030539D01*
X111396337Y-137959111D01*
X112182051Y-137959111D01*
X111396337Y-137959111D02*
X111253480Y-137887682D01*
X111182051Y-137744825D01*
X111182051Y-137530539D01*
X111253480Y-137387682D01*
X111396337Y-137316254D01*
X112182051Y-137316254D01*
X112182051Y-136601968D02*
X111182051Y-136601968D01*
X111324908Y-136601968D02*
X111253480Y-136530539D01*
X111182051Y-136387682D01*
X111182051Y-136173397D01*
X111253480Y-136030539D01*
X111396337Y-135959111D01*
X112182051Y-135959111D01*
X111396337Y-135959111D02*
X111253480Y-135887682D01*
X111182051Y-135744825D01*
X111182051Y-135530539D01*
X111253480Y-135387682D01*
X111396337Y-135316254D01*
X112182051Y-135316254D01*
X119303480Y-126173397D02*
X112717060Y-126173397D01*
X119303480Y-158173397D02*
X112717060Y-158173397D01*
X113303480Y-126173397D02*
X113303480Y-158173397D01*
X113303480Y-126173397D02*
X113303480Y-158173397D01*
X113303480Y-126173397D02*
X112717059Y-127299901D01*
X113303480Y-126173397D02*
X113889901Y-127299901D01*
X113303480Y-158173397D02*
X113889901Y-157046893D01*
X113303480Y-158173397D02*
X112717059Y-157046893D01*
X81071428Y-142721428D02*
X81142857Y-142650000D01*
X81285714Y-142578571D01*
X81642857Y-142578571D01*
X81785714Y-142650000D01*
X81857142Y-142721428D01*
X81928571Y-142864285D01*
X81928571Y-143007142D01*
X81857142Y-143221428D01*
X81000000Y-144078571D01*
X81928571Y-144078571D01*
X83357142Y-144078571D02*
X82500000Y-144078571D01*
X82928571Y-144078571D02*
X82928571Y-142578571D01*
X82785714Y-142792857D01*
X82642857Y-142935714D01*
X82500000Y-143007142D01*
X84000000Y-143935714D02*
X84071428Y-144007142D01*
X84000000Y-144078571D01*
X83928571Y-144007142D01*
X84000000Y-143935714D01*
X84000000Y-144078571D01*
X84642857Y-142721428D02*
X84714285Y-142650000D01*
X84857142Y-142578571D01*
X85214285Y-142578571D01*
X85357142Y-142650000D01*
X85428571Y-142721428D01*
X85500000Y-142864285D01*
X85500000Y-143007142D01*
X85428571Y-143221428D01*
X84571428Y-144078571D01*
X85500000Y-144078571D01*
X86428571Y-142578571D02*
X86571428Y-142578571D01*
X86714285Y-142650000D01*
X86785714Y-142721428D01*
X86857142Y-142864285D01*
X86928571Y-143150000D01*
X86928571Y-143507142D01*
X86857142Y-143792857D01*
X86785714Y-143935714D01*
X86714285Y-144007142D01*
X86571428Y-144078571D01*
X86428571Y-144078571D01*
X86285714Y-144007142D01*
X86214285Y-143935714D01*
X86142857Y-143792857D01*
X86071428Y-143507142D01*
X86071428Y-143150000D01*
X86142857Y-142864285D01*
X86214285Y-142721428D01*
X86285714Y-142650000D01*
X86428571Y-142578571D01*
X87857142Y-142578571D02*
X88000000Y-142578571D01*
X88142857Y-142650000D01*
X88214285Y-142721428D01*
X88285714Y-142864285D01*
X88357142Y-143150000D01*
X88357142Y-143507142D01*
X88285714Y-143792857D01*
X88214285Y-143935714D01*
X88142857Y-144007142D01*
X88000000Y-144078571D01*
X87857142Y-144078571D01*
X87714285Y-144007142D01*
X87642857Y-143935714D01*
X87571428Y-143792857D01*
X87500000Y-143507142D01*
X87500000Y-143150000D01*
X87571428Y-142864285D01*
X87642857Y-142721428D01*
X87714285Y-142650000D01*
X87857142Y-142578571D01*
X89285714Y-142578571D02*
X89428571Y-142578571D01*
X89571428Y-142650000D01*
X89642857Y-142721428D01*
X89714285Y-142864285D01*
X89785714Y-143150000D01*
X89785714Y-143507142D01*
X89714285Y-143792857D01*
X89642857Y-143935714D01*
X89571428Y-144007142D01*
X89428571Y-144078571D01*
X89285714Y-144078571D01*
X89142857Y-144007142D01*
X89071428Y-143935714D01*
X89000000Y-143792857D01*
X88928571Y-143507142D01*
X88928571Y-143150000D01*
X89000000Y-142864285D01*
X89071428Y-142721428D01*
X89142857Y-142650000D01*
X89285714Y-142578571D01*
X91571428Y-144078571D02*
X91571428Y-143078571D01*
X91571428Y-143221428D02*
X91642857Y-143150000D01*
X91785714Y-143078571D01*
X92000000Y-143078571D01*
X92142857Y-143150000D01*
X92214285Y-143292857D01*
X92214285Y-144078571D01*
X92214285Y-143292857D02*
X92285714Y-143150000D01*
X92428571Y-143078571D01*
X92642857Y-143078571D01*
X92785714Y-143150000D01*
X92857142Y-143292857D01*
X92857142Y-144078571D01*
X93571428Y-144078571D02*
X93571428Y-143078571D01*
X93571428Y-143221428D02*
X93642857Y-143150000D01*
X93785714Y-143078571D01*
X94000000Y-143078571D01*
X94142857Y-143150000D01*
X94214285Y-143292857D01*
X94214285Y-144078571D01*
X94214285Y-143292857D02*
X94285714Y-143150000D01*
X94428571Y-143078571D01*
X94642857Y-143078571D01*
X94785714Y-143150000D01*
X94857142Y-143292857D01*
X94857142Y-144078571D01*
X98600000Y-136200000D02*
X98600000Y-145786420D01*
X77400000Y-136200000D02*
X77400000Y-145786420D01*
X98600000Y-145200000D02*
X77400000Y-145200000D01*
X98600000Y-145200000D02*
X77400000Y-145200000D01*
X98600000Y-145200000D02*
X97473496Y-144613579D01*
X98600000Y-145200000D02*
X97473496Y-145786421D01*
X77400000Y-145200000D02*
X78526504Y-145786421D01*
X77400000Y-145200000D02*
X78526504Y-144613579D01*
X182157142Y-19521428D02*
X182228571Y-19450000D01*
X182371428Y-19378571D01*
X182728571Y-19378571D01*
X182871428Y-19450000D01*
X182942857Y-19521428D01*
X183014285Y-19664285D01*
X183014285Y-19807142D01*
X182942857Y-20021428D01*
X182085714Y-20878571D01*
X183014285Y-20878571D01*
X183728571Y-20878571D02*
X184014285Y-20878571D01*
X184157142Y-20807142D01*
X184228571Y-20735714D01*
X184371428Y-20521428D01*
X184442857Y-20235714D01*
X184442857Y-19664285D01*
X184371428Y-19521428D01*
X184300000Y-19450000D01*
X184157142Y-19378571D01*
X183871428Y-19378571D01*
X183728571Y-19450000D01*
X183657142Y-19521428D01*
X183585714Y-19664285D01*
X183585714Y-20021428D01*
X183657142Y-20164285D01*
X183728571Y-20235714D01*
X183871428Y-20307142D01*
X184157142Y-20307142D01*
X184300000Y-20235714D01*
X184371428Y-20164285D01*
X184442857Y-20021428D01*
X185871428Y-20878571D02*
X185014285Y-20878571D01*
X185442857Y-20878571D02*
X185442857Y-19378571D01*
X185300000Y-19592857D01*
X185157142Y-19735714D01*
X185014285Y-19807142D01*
X186514285Y-20735714D02*
X186585714Y-20807142D01*
X186514285Y-20878571D01*
X186442857Y-20807142D01*
X186514285Y-20735714D01*
X186514285Y-20878571D01*
X187514285Y-19378571D02*
X187657142Y-19378571D01*
X187800000Y-19450000D01*
X187871428Y-19521428D01*
X187942857Y-19664285D01*
X188014285Y-19950000D01*
X188014285Y-20307142D01*
X187942857Y-20592857D01*
X187871428Y-20735714D01*
X187800000Y-20807142D01*
X187657142Y-20878571D01*
X187514285Y-20878571D01*
X187371428Y-20807142D01*
X187300000Y-20735714D01*
X187228571Y-20592857D01*
X187157142Y-20307142D01*
X187157142Y-19950000D01*
X187228571Y-19664285D01*
X187300000Y-19521428D01*
X187371428Y-19450000D01*
X187514285Y-19378571D01*
X188942857Y-19378571D02*
X189085714Y-19378571D01*
X189228571Y-19450000D01*
X189300000Y-19521428D01*
X189371428Y-19664285D01*
X189442857Y-19950000D01*
X189442857Y-20307142D01*
X189371428Y-20592857D01*
X189300000Y-20735714D01*
X189228571Y-20807142D01*
X189085714Y-20878571D01*
X188942857Y-20878571D01*
X188800000Y-20807142D01*
X188728571Y-20735714D01*
X188657142Y-20592857D01*
X188585714Y-20307142D01*
X188585714Y-19950000D01*
X188657142Y-19664285D01*
X188728571Y-19521428D01*
X188800000Y-19450000D01*
X188942857Y-19378571D01*
X190371428Y-19378571D02*
X190514285Y-19378571D01*
X190657142Y-19450000D01*
X190728571Y-19521428D01*
X190800000Y-19664285D01*
X190871428Y-19950000D01*
X190871428Y-20307142D01*
X190800000Y-20592857D01*
X190728571Y-20735714D01*
X190657142Y-20807142D01*
X190514285Y-20878571D01*
X190371428Y-20878571D01*
X190228571Y-20807142D01*
X190157142Y-20735714D01*
X190085714Y-20592857D01*
X190014285Y-20307142D01*
X190014285Y-19950000D01*
X190085714Y-19664285D01*
X190157142Y-19521428D01*
X190228571Y-19450000D01*
X190371428Y-19378571D01*
X191800000Y-19378571D02*
X191942857Y-19378571D01*
X192085714Y-19450000D01*
X192157142Y-19521428D01*
X192228571Y-19664285D01*
X192300000Y-19950000D01*
X192300000Y-20307142D01*
X192228571Y-20592857D01*
X192157142Y-20735714D01*
X192085714Y-20807142D01*
X191942857Y-20878571D01*
X191800000Y-20878571D01*
X191657142Y-20807142D01*
X191585714Y-20735714D01*
X191514285Y-20592857D01*
X191442857Y-20307142D01*
X191442857Y-19950000D01*
X191514285Y-19664285D01*
X191585714Y-19521428D01*
X191657142Y-19450000D01*
X191800000Y-19378571D01*
X194085714Y-20878571D02*
X194085714Y-19878571D01*
X194085714Y-20021428D02*
X194157142Y-19950000D01*
X194300000Y-19878571D01*
X194514285Y-19878571D01*
X194657142Y-19950000D01*
X194728571Y-20092857D01*
X194728571Y-20878571D01*
X194728571Y-20092857D02*
X194800000Y-19950000D01*
X194942857Y-19878571D01*
X195157142Y-19878571D01*
X195300000Y-19950000D01*
X195371428Y-20092857D01*
X195371428Y-20878571D01*
X196085714Y-20878571D02*
X196085714Y-19878571D01*
X196085714Y-20021428D02*
X196157142Y-19950000D01*
X196300000Y-19878571D01*
X196514285Y-19878571D01*
X196657142Y-19950000D01*
X196728571Y-20092857D01*
X196728571Y-20878571D01*
X196728571Y-20092857D02*
X196800000Y-19950000D01*
X196942857Y-19878571D01*
X197157142Y-19878571D01*
X197300000Y-19950000D01*
X197371428Y-20092857D01*
X197371428Y-20878571D01*
X335300000Y-29200000D02*
X335300000Y-21413580D01*
X44300000Y-29200000D02*
X44300000Y-21413580D01*
X335300000Y-22000000D02*
X44300000Y-22000000D01*
X335300000Y-22000000D02*
X44300000Y-22000000D01*
X335300000Y-22000000D02*
X334173496Y-21413579D01*
X335300000Y-22000000D02*
X334173496Y-22586421D01*
X44300000Y-22000000D02*
X45426504Y-22586421D01*
X44300000Y-22000000D02*
X45426504Y-21413579D01*
X71092857Y-148978571D02*
X70235714Y-148978571D01*
X70664285Y-148978571D02*
X70664285Y-147478571D01*
X70521428Y-147692857D01*
X70378571Y-147835714D01*
X70235714Y-147907142D01*
X71735714Y-148835714D02*
X71807142Y-148907142D01*
X71735714Y-148978571D01*
X71664285Y-148907142D01*
X71735714Y-148835714D01*
X71735714Y-148978571D01*
X72521428Y-148978571D02*
X72807142Y-148978571D01*
X72950000Y-148907142D01*
X73021428Y-148835714D01*
X73164285Y-148621428D01*
X73235714Y-148335714D01*
X73235714Y-147764285D01*
X73164285Y-147621428D01*
X73092857Y-147550000D01*
X72950000Y-147478571D01*
X72664285Y-147478571D01*
X72521428Y-147550000D01*
X72450000Y-147621428D01*
X72378571Y-147764285D01*
X72378571Y-148121428D01*
X72450000Y-148264285D01*
X72521428Y-148335714D01*
X72664285Y-148407142D01*
X72950000Y-148407142D01*
X73092857Y-148335714D01*
X73164285Y-148264285D01*
X73235714Y-148121428D01*
X74164285Y-147478571D02*
X74307142Y-147478571D01*
X74450000Y-147550000D01*
X74521428Y-147621428D01*
X74592857Y-147764285D01*
X74664285Y-148050000D01*
X74664285Y-148407142D01*
X74592857Y-148692857D01*
X74521428Y-148835714D01*
X74450000Y-148907142D01*
X74307142Y-148978571D01*
X74164285Y-148978571D01*
X74021428Y-148907142D01*
X73950000Y-148835714D01*
X73878571Y-148692857D01*
X73807142Y-148407142D01*
X73807142Y-148050000D01*
X73878571Y-147764285D01*
X73950000Y-147621428D01*
X74021428Y-147550000D01*
X74164285Y-147478571D01*
X75592857Y-147478571D02*
X75735714Y-147478571D01*
X75878571Y-147550000D01*
X75950000Y-147621428D01*
X76021428Y-147764285D01*
X76092857Y-148050000D01*
X76092857Y-148407142D01*
X76021428Y-148692857D01*
X75950000Y-148835714D01*
X75878571Y-148907142D01*
X75735714Y-148978571D01*
X75592857Y-148978571D01*
X75450000Y-148907142D01*
X75378571Y-148835714D01*
X75307142Y-148692857D01*
X75235714Y-148407142D01*
X75235714Y-148050000D01*
X75307142Y-147764285D01*
X75378571Y-147621428D01*
X75450000Y-147550000D01*
X75592857Y-147478571D01*
X77021428Y-147478571D02*
X77164285Y-147478571D01*
X77307142Y-147550000D01*
X77378571Y-147621428D01*
X77450000Y-147764285D01*
X77521428Y-148050000D01*
X77521428Y-148407142D01*
X77450000Y-148692857D01*
X77378571Y-148835714D01*
X77307142Y-148907142D01*
X77164285Y-148978571D01*
X77021428Y-148978571D01*
X76878571Y-148907142D01*
X76807142Y-148835714D01*
X76735714Y-148692857D01*
X76664285Y-148407142D01*
X76664285Y-148050000D01*
X76735714Y-147764285D01*
X76807142Y-147621428D01*
X76878571Y-147550000D01*
X77021428Y-147478571D01*
X79307142Y-148978571D02*
X79307142Y-147978571D01*
X79307142Y-148121428D02*
X79378571Y-148050000D01*
X79521428Y-147978571D01*
X79735714Y-147978571D01*
X79878571Y-148050000D01*
X79950000Y-148192857D01*
X79950000Y-148978571D01*
X79950000Y-148192857D02*
X80021428Y-148050000D01*
X80164285Y-147978571D01*
X80378571Y-147978571D01*
X80521428Y-148050000D01*
X80592857Y-148192857D01*
X80592857Y-148978571D01*
X81307142Y-148978571D02*
X81307142Y-147978571D01*
X81307142Y-148121428D02*
X81378571Y-148050000D01*
X81521428Y-147978571D01*
X81735714Y-147978571D01*
X81878571Y-148050000D01*
X81950000Y-148192857D01*
X81950000Y-148978571D01*
X81950000Y-148192857D02*
X82021428Y-148050000D01*
X82164285Y-147978571D01*
X82378571Y-147978571D01*
X82521428Y-148050000D01*
X82592857Y-148192857D01*
X82592857Y-148978571D01*
X77400000Y-136200000D02*
X77400000Y-150686420D01*
X75500000Y-136200000D02*
X75500000Y-150686420D01*
X77400000Y-150100000D02*
X75500000Y-150100000D01*
X77400000Y-150100000D02*
X75500000Y-150100000D01*
X77400000Y-150100000D02*
X76273496Y-149513579D01*
X77400000Y-150100000D02*
X76273496Y-150686421D01*
X75500000Y-150100000D02*
X76626504Y-150686421D01*
X75500000Y-150100000D02*
X76626504Y-149513579D01*
X47371428Y-142721428D02*
X47442857Y-142650000D01*
X47585714Y-142578571D01*
X47942857Y-142578571D01*
X48085714Y-142650000D01*
X48157142Y-142721428D01*
X48228571Y-142864285D01*
X48228571Y-143007142D01*
X48157142Y-143221428D01*
X47300000Y-144078571D01*
X48228571Y-144078571D01*
X49157142Y-142578571D02*
X49300000Y-142578571D01*
X49442857Y-142650000D01*
X49514285Y-142721428D01*
X49585714Y-142864285D01*
X49657142Y-143150000D01*
X49657142Y-143507142D01*
X49585714Y-143792857D01*
X49514285Y-143935714D01*
X49442857Y-144007142D01*
X49300000Y-144078571D01*
X49157142Y-144078571D01*
X49014285Y-144007142D01*
X48942857Y-143935714D01*
X48871428Y-143792857D01*
X48800000Y-143507142D01*
X48800000Y-143150000D01*
X48871428Y-142864285D01*
X48942857Y-142721428D01*
X49014285Y-142650000D01*
X49157142Y-142578571D01*
X50300000Y-143935714D02*
X50371428Y-144007142D01*
X50300000Y-144078571D01*
X50228571Y-144007142D01*
X50300000Y-143935714D01*
X50300000Y-144078571D01*
X51300000Y-142578571D02*
X51442857Y-142578571D01*
X51585714Y-142650000D01*
X51657142Y-142721428D01*
X51728571Y-142864285D01*
X51800000Y-143150000D01*
X51800000Y-143507142D01*
X51728571Y-143792857D01*
X51657142Y-143935714D01*
X51585714Y-144007142D01*
X51442857Y-144078571D01*
X51300000Y-144078571D01*
X51157142Y-144007142D01*
X51085714Y-143935714D01*
X51014285Y-143792857D01*
X50942857Y-143507142D01*
X50942857Y-143150000D01*
X51014285Y-142864285D01*
X51085714Y-142721428D01*
X51157142Y-142650000D01*
X51300000Y-142578571D01*
X52728571Y-142578571D02*
X52871428Y-142578571D01*
X53014285Y-142650000D01*
X53085714Y-142721428D01*
X53157142Y-142864285D01*
X53228571Y-143150000D01*
X53228571Y-143507142D01*
X53157142Y-143792857D01*
X53085714Y-143935714D01*
X53014285Y-144007142D01*
X52871428Y-144078571D01*
X52728571Y-144078571D01*
X52585714Y-144007142D01*
X52514285Y-143935714D01*
X52442857Y-143792857D01*
X52371428Y-143507142D01*
X52371428Y-143150000D01*
X52442857Y-142864285D01*
X52514285Y-142721428D01*
X52585714Y-142650000D01*
X52728571Y-142578571D01*
X54157142Y-142578571D02*
X54300000Y-142578571D01*
X54442857Y-142650000D01*
X54514285Y-142721428D01*
X54585714Y-142864285D01*
X54657142Y-143150000D01*
X54657142Y-143507142D01*
X54585714Y-143792857D01*
X54514285Y-143935714D01*
X54442857Y-144007142D01*
X54300000Y-144078571D01*
X54157142Y-144078571D01*
X54014285Y-144007142D01*
X53942857Y-143935714D01*
X53871428Y-143792857D01*
X53800000Y-143507142D01*
X53800000Y-143150000D01*
X53871428Y-142864285D01*
X53942857Y-142721428D01*
X54014285Y-142650000D01*
X54157142Y-142578571D01*
X55585714Y-142578571D02*
X55728571Y-142578571D01*
X55871428Y-142650000D01*
X55942857Y-142721428D01*
X56014285Y-142864285D01*
X56085714Y-143150000D01*
X56085714Y-143507142D01*
X56014285Y-143792857D01*
X55942857Y-143935714D01*
X55871428Y-144007142D01*
X55728571Y-144078571D01*
X55585714Y-144078571D01*
X55442857Y-144007142D01*
X55371428Y-143935714D01*
X55300000Y-143792857D01*
X55228571Y-143507142D01*
X55228571Y-143150000D01*
X55300000Y-142864285D01*
X55371428Y-142721428D01*
X55442857Y-142650000D01*
X55585714Y-142578571D01*
X57871428Y-144078571D02*
X57871428Y-143078571D01*
X57871428Y-143221428D02*
X57942857Y-143150000D01*
X58085714Y-143078571D01*
X58299999Y-143078571D01*
X58442857Y-143150000D01*
X58514285Y-143292857D01*
X58514285Y-144078571D01*
X58514285Y-143292857D02*
X58585714Y-143150000D01*
X58728571Y-143078571D01*
X58942857Y-143078571D01*
X59085714Y-143150000D01*
X59157142Y-143292857D01*
X59157142Y-144078571D01*
X59871428Y-144078571D02*
X59871428Y-143078571D01*
X59871428Y-143221428D02*
X59942857Y-143150000D01*
X60085714Y-143078571D01*
X60299999Y-143078571D01*
X60442857Y-143150000D01*
X60514285Y-143292857D01*
X60514285Y-144078571D01*
X60514285Y-143292857D02*
X60585714Y-143150000D01*
X60728571Y-143078571D01*
X60942857Y-143078571D01*
X61085714Y-143150000D01*
X61157142Y-143292857D01*
X61157142Y-144078571D01*
X64300000Y-136200000D02*
X64300000Y-145786420D01*
X44300000Y-136200000D02*
X44300000Y-145786420D01*
X64300000Y-145200000D02*
X44300000Y-145200000D01*
X64300000Y-145200000D02*
X44300000Y-145200000D01*
X64300000Y-145200000D02*
X63173496Y-144613579D01*
X64300000Y-145200000D02*
X63173496Y-145786421D01*
X44300000Y-145200000D02*
X45426504Y-145786421D01*
X44300000Y-145200000D02*
X45426504Y-144613579D01*
D13*
X64304000Y-136100000D02*
X64304000Y-128600000D01*
X77354000Y-128600000D02*
X77354000Y-136100000D01*
X75554000Y-136100000D02*
X75554000Y-128600000D01*
X64304000Y-136100000D02*
X75554000Y-136100000D01*
X98704000Y-136100000D02*
X98704000Y-128600000D01*
X77354000Y-136100000D02*
X98704000Y-136100000D01*
X77354000Y-128590000D02*
G75*
G03*
X76464000Y-127700000I-890000J0D01*
G01*
X76454000Y-127700000D02*
G75*
G03*
X75554000Y-128600000I0J-900000D01*
G01*
M02*
