G04 #@! TF.GenerationSoftware,KiCad,Pcbnew,6.0.7-f9a2dced07~116~ubuntu22.04.1*
G04 #@! TF.CreationDate,2023-05-31T10:56:09+01:00*
G04 #@! TF.ProjectId,hiltop_backplane_brd,68696c74-6f70-45f6-9261-636b706c616e,A*
G04 #@! TF.SameCoordinates,Original*
G04 #@! TF.FileFunction,Paste,Top*
G04 #@! TF.FilePolarity,Positive*
%FSLAX46Y46*%
G04 Gerber Fmt 4.6, Leading zero omitted, Abs format (unit mm)*
G04 Created by KiCad (PCBNEW 6.0.7-f9a2dced07~116~ubuntu22.04.1) date 2023-05-31 10:56:09*
%MOMM*%
%LPD*%
G01*
G04 APERTURE LIST*
G04 Aperture macros list*
%AMRoundRect*
0 Rectangle with rounded corners*
0 $1 Rounding radius*
0 $2 $3 $4 $5 $6 $7 $8 $9 X,Y pos of 4 corners*
0 Add a 4 corners polygon primitive as box body*
4,1,4,$2,$3,$4,$5,$6,$7,$8,$9,$2,$3,0*
0 Add four circle primitives for the rounded corners*
1,1,$1+$1,$2,$3*
1,1,$1+$1,$4,$5*
1,1,$1+$1,$6,$7*
1,1,$1+$1,$8,$9*
0 Add four rect primitives between the rounded corners*
20,1,$1+$1,$2,$3,$4,$5,0*
20,1,$1+$1,$4,$5,$6,$7,0*
20,1,$1+$1,$6,$7,$8,$9,0*
20,1,$1+$1,$8,$9,$2,$3,0*%
G04 Aperture macros list end*
G04 #@! TA.AperFunction,Profile*
%ADD10C,0.150000*%
G04 #@! TD*
%ADD11RoundRect,0.147500X-0.147500X-0.172500X0.147500X-0.172500X0.147500X0.172500X-0.147500X0.172500X0*%
%ADD12RoundRect,0.250000X-0.712500X-2.475000X0.712500X-2.475000X0.712500X2.475000X-0.712500X2.475000X0*%
%ADD13RoundRect,0.147500X-0.172500X0.147500X-0.172500X-0.147500X0.172500X-0.147500X0.172500X0.147500X0*%
%ADD14RoundRect,0.218750X0.256250X-0.218750X0.256250X0.218750X-0.256250X0.218750X-0.256250X-0.218750X0*%
%ADD15RoundRect,0.147500X0.172500X-0.147500X0.172500X0.147500X-0.172500X0.147500X-0.172500X-0.147500X0*%
%ADD16R,0.900000X0.800000*%
%ADD17RoundRect,0.147500X0.147500X0.172500X-0.147500X0.172500X-0.147500X-0.172500X0.147500X-0.172500X0*%
%ADD18RoundRect,0.218750X0.218750X0.256250X-0.218750X0.256250X-0.218750X-0.256250X0.218750X-0.256250X0*%
%ADD19RoundRect,0.250000X0.625000X-0.375000X0.625000X0.375000X-0.625000X0.375000X-0.625000X-0.375000X0*%
%ADD20RoundRect,0.218750X-0.218750X-0.256250X0.218750X-0.256250X0.218750X0.256250X-0.218750X0.256250X0*%
%ADD21RoundRect,0.150000X0.150000X-0.825000X0.150000X0.825000X-0.150000X0.825000X-0.150000X-0.825000X0*%
%ADD22R,1.190000X1.190000*%
%ADD23R,0.850000X0.300000*%
%ADD24R,0.300000X0.850000*%
%ADD25RoundRect,0.218750X-0.256250X0.218750X-0.256250X-0.218750X0.256250X-0.218750X0.256250X0.218750X0*%
%ADD26RoundRect,0.250000X0.380000X0.380000X-0.380000X0.380000X-0.380000X-0.380000X0.380000X-0.380000X0*%
%ADD27RoundRect,0.050000X0.387500X0.050000X-0.387500X0.050000X-0.387500X-0.050000X0.387500X-0.050000X0*%
%ADD28RoundRect,0.050000X0.050000X0.387500X-0.050000X0.387500X-0.050000X-0.387500X0.050000X-0.387500X0*%
%ADD29RoundRect,0.250000X0.375000X0.625000X-0.375000X0.625000X-0.375000X-0.625000X0.375000X-0.625000X0*%
%ADD30RoundRect,0.250000X-0.625000X0.375000X-0.625000X-0.375000X0.625000X-0.375000X0.625000X0.375000X0*%
%ADD31R,0.500000X0.560000*%
%ADD32R,0.700000X0.250000*%
%ADD33R,0.750000X5.300000*%
%ADD34R,1.400000X1.200000*%
%ADD35RoundRect,0.150000X-0.150000X0.825000X-0.150000X-0.825000X0.150000X-0.825000X0.150000X0.825000X0*%
%ADD36R,4.600000X4.500000*%
%ADD37R,2.000000X0.350000*%
G04 APERTURE END LIST*
D10*
X179840000Y-50700000D02*
G75*
G03*
X179840000Y-50700000I-5000000J0D01*
G01*
X210320000Y-50700000D02*
G75*
G03*
X210320000Y-50700000I-5000000J0D01*
G01*
X240800000Y-50700000D02*
G75*
G03*
X240800000Y-50700000I-5000000J0D01*
G01*
X210320000Y-93700000D02*
G75*
G03*
X210320000Y-93700000I-5000000J0D01*
G01*
X240800000Y-93700000D02*
G75*
G03*
X240800000Y-93700000I-5000000J0D01*
G01*
X179840000Y-136700000D02*
G75*
G03*
X179840000Y-136700000I-5000000J0D01*
G01*
X210320000Y-136700000D02*
G75*
G03*
X210320000Y-136700000I-5000000J0D01*
G01*
X240800000Y-136700000D02*
G75*
G03*
X240800000Y-136700000I-5000000J0D01*
G01*
X179840000Y-93700000D02*
G75*
G03*
X179840000Y-93700000I-5000000J0D01*
G01*
X271600000Y-136700000D02*
G75*
G03*
X271600000Y-136700000I-5000000J0D01*
G01*
X65300000Y-136200000D02*
X74500000Y-136200000D01*
X75500000Y-135200000D02*
X75500000Y-127700000D01*
X98600000Y-126200000D02*
X119300000Y-126200000D01*
X302080000Y-136700000D02*
G75*
G03*
X302080000Y-136700000I-5000000J0D01*
G01*
X332560000Y-93700000D02*
G75*
G03*
X332560000Y-93700000I-5000000J0D01*
G01*
X75500000Y-135200000D02*
X74500000Y-136200000D01*
X97600000Y-136200000D02*
X98600000Y-135200000D01*
X332560000Y-50700000D02*
G75*
G03*
X332560000Y-50700000I-5000000J0D01*
G01*
X271600000Y-50700000D02*
G75*
G03*
X271600000Y-50700000I-5000000J0D01*
G01*
X302080000Y-93700000D02*
G75*
G03*
X302080000Y-93700000I-5000000J0D01*
G01*
X44300000Y-29200000D02*
X335300000Y-29200000D01*
X64300000Y-135200000D02*
X64300000Y-126200000D01*
X271600000Y-93700000D02*
G75*
G03*
X271600000Y-93700000I-5000000J0D01*
G01*
X332560000Y-136700000D02*
G75*
G03*
X332560000Y-136700000I-5000000J0D01*
G01*
X77400000Y-135200000D02*
X78400000Y-136200000D01*
X119300000Y-136200000D02*
X119300000Y-158200000D01*
X44300000Y-126200000D02*
X44300000Y-29200000D01*
X119300000Y-126200000D02*
X119300000Y-136200000D01*
X78400000Y-136200000D02*
X97600000Y-136200000D01*
X64300000Y-135200000D02*
X65300000Y-136200000D01*
X75500000Y-127700000D02*
X77400000Y-127700000D01*
X98600000Y-135200000D02*
X98600000Y-127700000D01*
X335300000Y-29200000D02*
X335300000Y-158200000D01*
X302080000Y-50700000D02*
G75*
G03*
X302080000Y-50700000I-5000000J0D01*
G01*
X98600000Y-127700000D02*
X98600000Y-126200000D01*
X335300000Y-158200000D02*
X119300000Y-158200000D01*
X77400000Y-127700000D02*
X77400000Y-135200000D01*
X64300000Y-126200000D02*
X44300000Y-126200000D01*
D11*
X75327500Y-85344000D03*
X76297500Y-85344000D03*
D12*
X170366500Y-82042000D03*
X177141500Y-82042000D03*
D13*
X73152000Y-77747000D03*
X73152000Y-78717000D03*
D14*
X63246000Y-88784500D03*
X63246000Y-87209500D03*
D15*
X75628500Y-100434000D03*
X75628500Y-99464000D03*
D11*
X63897500Y-79756000D03*
X64867500Y-79756000D03*
D16*
X65595000Y-83957000D03*
X63945000Y-83957000D03*
X63945000Y-85207000D03*
X65595000Y-85207000D03*
D13*
X64770000Y-90515000D03*
X64770000Y-91485000D03*
D11*
X70381000Y-84328000D03*
X71351000Y-84328000D03*
D13*
X74168000Y-77747000D03*
X74168000Y-78717000D03*
D17*
X92427500Y-125980000D03*
X91457500Y-125980000D03*
D15*
X65278000Y-100735000D03*
X65278000Y-99765000D03*
D18*
X61606500Y-88646000D03*
X60031500Y-88646000D03*
D15*
X71437500Y-100561000D03*
X71437500Y-99591000D03*
X72530000Y-100561000D03*
X72530000Y-99591000D03*
X69342000Y-100735000D03*
X69342000Y-99765000D03*
D13*
X65024000Y-95215000D03*
X65024000Y-96185000D03*
D17*
X64285000Y-98250000D03*
X63315000Y-98250000D03*
D19*
X166400000Y-72150000D03*
X166400000Y-69350000D03*
D20*
X75412500Y-82550000D03*
X76987500Y-82550000D03*
D21*
X67691000Y-81723000D03*
X68961000Y-81723000D03*
X70231000Y-81723000D03*
X71501000Y-81723000D03*
X71501000Y-76773000D03*
X70231000Y-76773000D03*
X68961000Y-76773000D03*
X67691000Y-76773000D03*
D19*
X227400000Y-72150000D03*
X227400000Y-69350000D03*
D15*
X68326000Y-100735000D03*
X68326000Y-99765000D03*
X74168000Y-82660500D03*
X74168000Y-81690500D03*
D12*
X230818500Y-82423000D03*
X237593500Y-82423000D03*
D15*
X64770000Y-88997500D03*
X64770000Y-88027500D03*
X67310000Y-100735000D03*
X67310000Y-99765000D03*
D22*
X73860000Y-89770000D03*
X72390000Y-95650000D03*
X75330000Y-89770000D03*
X70920000Y-94180000D03*
X69450000Y-92710000D03*
X72390000Y-89770000D03*
X72390000Y-92710000D03*
X73860000Y-92710000D03*
X72390000Y-91240000D03*
X69450000Y-91240000D03*
X75330000Y-95650000D03*
X70920000Y-95650000D03*
X75330000Y-94180000D03*
X73860000Y-95650000D03*
X75330000Y-91240000D03*
X70920000Y-91240000D03*
X69450000Y-89770000D03*
X70920000Y-89770000D03*
X70920000Y-92710000D03*
X72390000Y-94180000D03*
X75330000Y-92710000D03*
X73860000Y-94180000D03*
X73860000Y-91240000D03*
X69450000Y-94180000D03*
X69450000Y-95650000D03*
D23*
X67940000Y-88960000D03*
X67940000Y-89460000D03*
X67940000Y-89960000D03*
X67940000Y-90460000D03*
X67940000Y-90960000D03*
X67940000Y-91460000D03*
X67940000Y-91960000D03*
X67940000Y-92460000D03*
X67940000Y-92960000D03*
X67940000Y-93460000D03*
X67940000Y-93960000D03*
X67940000Y-94460000D03*
X67940000Y-94960000D03*
X67940000Y-95460000D03*
X67940000Y-95960000D03*
X67940000Y-96460000D03*
D24*
X68640000Y-97160000D03*
X69140000Y-97160000D03*
X69640000Y-97160000D03*
X70140000Y-97160000D03*
X70640000Y-97160000D03*
X71140000Y-97160000D03*
X71640000Y-97160000D03*
X72140000Y-97160000D03*
X72640000Y-97160000D03*
X73140000Y-97160000D03*
X73640000Y-97160000D03*
X74140000Y-97160000D03*
X74640000Y-97160000D03*
X75140000Y-97160000D03*
X75640000Y-97160000D03*
X76140000Y-97160000D03*
D23*
X76840000Y-96460000D03*
X76840000Y-95960000D03*
X76840000Y-95460000D03*
X76840000Y-94960000D03*
X76840000Y-94460000D03*
X76840000Y-93960000D03*
X76840000Y-93460000D03*
X76840000Y-92960000D03*
X76840000Y-92460000D03*
X76840000Y-91960000D03*
X76840000Y-91460000D03*
X76840000Y-90960000D03*
X76840000Y-90460000D03*
X76840000Y-89960000D03*
X76840000Y-89460000D03*
X76840000Y-88960000D03*
D24*
X76140000Y-88260000D03*
X75640000Y-88260000D03*
X75140000Y-88260000D03*
X74640000Y-88260000D03*
X74140000Y-88260000D03*
X73640000Y-88260000D03*
X73140000Y-88260000D03*
X72640000Y-88260000D03*
X72140000Y-88260000D03*
X71640000Y-88260000D03*
X71140000Y-88260000D03*
X70640000Y-88260000D03*
X70140000Y-88260000D03*
X69640000Y-88260000D03*
X69140000Y-88260000D03*
X68640000Y-88260000D03*
D11*
X63897500Y-77724000D03*
X64867500Y-77724000D03*
D15*
X66294000Y-100735000D03*
X66294000Y-99765000D03*
D17*
X64880500Y-78740000D03*
X63910500Y-78740000D03*
D18*
X61860500Y-93726000D03*
X60285500Y-93726000D03*
D15*
X73152000Y-82660500D03*
X73152000Y-81690500D03*
D11*
X75327500Y-84074000D03*
X76297500Y-84074000D03*
D13*
X62230000Y-83843000D03*
X62230000Y-84813000D03*
D11*
X67515000Y-85344000D03*
X68485000Y-85344000D03*
D19*
X227400000Y-62650000D03*
X227400000Y-59850000D03*
X196900000Y-57900000D03*
X196900000Y-55100000D03*
D18*
X83337500Y-91948000D03*
X81762500Y-91948000D03*
D13*
X80040000Y-90995000D03*
X80040000Y-91965000D03*
D18*
X83337500Y-94488000D03*
X81762500Y-94488000D03*
D17*
X73129000Y-84328000D03*
X72159000Y-84328000D03*
D13*
X65024000Y-93241000D03*
X65024000Y-94211000D03*
D25*
X63500000Y-93446500D03*
X63500000Y-95021500D03*
D11*
X63315000Y-97250000D03*
X64285000Y-97250000D03*
D15*
X57150000Y-42649000D03*
X57150000Y-41679000D03*
X58300000Y-61885000D03*
X58300000Y-60915000D03*
D26*
X60406000Y-54656000D03*
X63546000Y-54656000D03*
X61976000Y-51516000D03*
X61976000Y-54656000D03*
X60406000Y-51516000D03*
X61976000Y-53086000D03*
X60406000Y-53086000D03*
X63546000Y-51516000D03*
X63546000Y-53086000D03*
D27*
X66388500Y-56836000D03*
X66388500Y-56336000D03*
X66388500Y-55836000D03*
X66388500Y-55336000D03*
X66388500Y-54836000D03*
X66388500Y-54336000D03*
X66388500Y-53836000D03*
X66388500Y-53336000D03*
X66388500Y-52836000D03*
X66388500Y-52336000D03*
X66388500Y-51836000D03*
X66388500Y-51336000D03*
X66388500Y-50836000D03*
X66388500Y-50336000D03*
X66388500Y-49836000D03*
X66388500Y-49336000D03*
D28*
X65726000Y-48673500D03*
X65226000Y-48673500D03*
X64726000Y-48673500D03*
X64226000Y-48673500D03*
X63726000Y-48673500D03*
X63226000Y-48673500D03*
X62726000Y-48673500D03*
X62226000Y-48673500D03*
X61726000Y-48673500D03*
X61226000Y-48673500D03*
X60726000Y-48673500D03*
X60226000Y-48673500D03*
X59726000Y-48673500D03*
X59226000Y-48673500D03*
X58726000Y-48673500D03*
X58226000Y-48673500D03*
D27*
X57563500Y-49336000D03*
X57563500Y-49836000D03*
X57563500Y-50336000D03*
X57563500Y-50836000D03*
X57563500Y-51336000D03*
X57563500Y-51836000D03*
X57563500Y-52336000D03*
X57563500Y-52836000D03*
X57563500Y-53336000D03*
X57563500Y-53836000D03*
X57563500Y-54336000D03*
X57563500Y-54836000D03*
X57563500Y-55336000D03*
X57563500Y-55836000D03*
X57563500Y-56336000D03*
X57563500Y-56836000D03*
D28*
X58226000Y-57498500D03*
X58726000Y-57498500D03*
X59226000Y-57498500D03*
X59726000Y-57498500D03*
X60226000Y-57498500D03*
X60726000Y-57498500D03*
X61226000Y-57498500D03*
X61726000Y-57498500D03*
X62226000Y-57498500D03*
X62726000Y-57498500D03*
X63226000Y-57498500D03*
X63726000Y-57498500D03*
X64226000Y-57498500D03*
X64726000Y-57498500D03*
X65226000Y-57498500D03*
X65726000Y-57498500D03*
D11*
X50188000Y-54356000D03*
X51158000Y-54356000D03*
D13*
X59182000Y-43711000D03*
X59182000Y-44681000D03*
D15*
X69088000Y-63985000D03*
X69088000Y-63015000D03*
D25*
X49784000Y-43789500D03*
X49784000Y-45364500D03*
X51308000Y-48234500D03*
X51308000Y-49809500D03*
D15*
X54102000Y-42649000D03*
X54102000Y-41679000D03*
D13*
X68072000Y-44346000D03*
X68072000Y-45316000D03*
D11*
X52347000Y-60579000D03*
X53317000Y-60579000D03*
D17*
X51013500Y-61600000D03*
X50043500Y-61600000D03*
D25*
X60706000Y-43408500D03*
X60706000Y-44983500D03*
D20*
X49885500Y-52832000D03*
X51460500Y-52832000D03*
D13*
X56134000Y-43711000D03*
X56134000Y-44681000D03*
X55118000Y-43711000D03*
X55118000Y-44681000D03*
X54102000Y-43711000D03*
X54102000Y-44681000D03*
D25*
X52959000Y-52806500D03*
X52959000Y-54381500D03*
D17*
X51020000Y-62616000D03*
X50050000Y-62616000D03*
D13*
X62230000Y-43711000D03*
X62230000Y-44681000D03*
D14*
X70132000Y-69093500D03*
X70132000Y-67518500D03*
D17*
X52682000Y-51308000D03*
X51712000Y-51308000D03*
D25*
X63754000Y-43408500D03*
X63754000Y-44983500D03*
D11*
X61745000Y-63285000D03*
X62715000Y-63285000D03*
D17*
X51024500Y-59563000D03*
X50054500Y-59563000D03*
D25*
X62820000Y-67522500D03*
X62820000Y-69097500D03*
D14*
X70612000Y-64287500D03*
X70612000Y-62712500D03*
D15*
X56134000Y-42649000D03*
X56134000Y-41679000D03*
X55118000Y-42649000D03*
X55118000Y-41679000D03*
D13*
X57150000Y-43711000D03*
X57150000Y-44681000D03*
D25*
X52832000Y-48234500D03*
X52832000Y-49809500D03*
D20*
X65760500Y-64516000D03*
X67335500Y-64516000D03*
D11*
X52365000Y-62616000D03*
X53335000Y-62616000D03*
X52365000Y-63632000D03*
X53335000Y-63632000D03*
D29*
X94875000Y-87370000D03*
X92075000Y-87370000D03*
D30*
X96780000Y-77410000D03*
X96780000Y-80210000D03*
D11*
X51712000Y-57404000D03*
X52682000Y-57404000D03*
D17*
X51031000Y-60579000D03*
X50061000Y-60579000D03*
X51013500Y-63632000D03*
X50043500Y-63632000D03*
D11*
X52365000Y-61600000D03*
X53335000Y-61600000D03*
D25*
X49784000Y-48234500D03*
X49784000Y-49809500D03*
X51308000Y-43775500D03*
X51308000Y-45350500D03*
D13*
X67056000Y-44346000D03*
X67056000Y-45316000D03*
D15*
X71150000Y-45316000D03*
X71150000Y-44346000D03*
X71150000Y-43030000D03*
X71150000Y-42060000D03*
D13*
X69100000Y-44346000D03*
X69100000Y-45316000D03*
X70116000Y-44346000D03*
X70116000Y-45316000D03*
D15*
X70116000Y-43030000D03*
X70116000Y-42060000D03*
X69100000Y-43030000D03*
X69100000Y-42060000D03*
D17*
X69670000Y-52300000D03*
X68700000Y-52300000D03*
X70716000Y-60579000D03*
X69746000Y-60579000D03*
D14*
X72136000Y-64287500D03*
X72136000Y-62712500D03*
D18*
X52984500Y-55880000D03*
X51409500Y-55880000D03*
D11*
X52347000Y-59563000D03*
X53317000Y-59563000D03*
D13*
X66040000Y-44346000D03*
X66040000Y-45316000D03*
D15*
X68072000Y-43030000D03*
X68072000Y-42060000D03*
X67056000Y-43030000D03*
X67056000Y-42060000D03*
X66040000Y-43030000D03*
X66040000Y-42060000D03*
D12*
X200892000Y-82105500D03*
X207667000Y-82105500D03*
D19*
X196900000Y-67400000D03*
X196900000Y-64600000D03*
X196900000Y-62650000D03*
X196900000Y-59850000D03*
D29*
X123869000Y-113031000D03*
X121069000Y-113031000D03*
D13*
X126580000Y-112795000D03*
X126580000Y-113765000D03*
D25*
X129710000Y-112372500D03*
X129710000Y-113947500D03*
D14*
X128080000Y-104827500D03*
X128080000Y-103252500D03*
D13*
X125517000Y-112800000D03*
X125517000Y-113770000D03*
D25*
X128082000Y-106293500D03*
X128082000Y-107868500D03*
X128090000Y-112372500D03*
X128090000Y-113947500D03*
D13*
X126610000Y-106595000D03*
X126610000Y-107565000D03*
D14*
X129720000Y-110917500D03*
X129720000Y-109342500D03*
D29*
X123894000Y-106827000D03*
X121094000Y-106827000D03*
X123894000Y-104412000D03*
X121094000Y-104412000D03*
D15*
X125517000Y-110793000D03*
X125517000Y-109823000D03*
X125542000Y-104643000D03*
X125542000Y-103673000D03*
D25*
X129720000Y-106292500D03*
X129720000Y-107867500D03*
D14*
X129720000Y-104827500D03*
X129720000Y-103252500D03*
D29*
X123869000Y-110562000D03*
X121069000Y-110562000D03*
D14*
X128090000Y-110917500D03*
X128090000Y-109342500D03*
D13*
X125542000Y-106596000D03*
X125542000Y-107566000D03*
D11*
X63765000Y-82250000D03*
X64735000Y-82250000D03*
D17*
X71311000Y-73896000D03*
X70341000Y-73896000D03*
D19*
X166400000Y-62650000D03*
X166400000Y-59850000D03*
X227400000Y-57900000D03*
X227400000Y-55100000D03*
X166400000Y-57900000D03*
X166400000Y-55100000D03*
X166400000Y-67400000D03*
X166400000Y-64600000D03*
X227400000Y-67400000D03*
X227400000Y-64600000D03*
X196900000Y-72150000D03*
X196900000Y-69350000D03*
D11*
X61760000Y-62285000D03*
X62730000Y-62285000D03*
D31*
X91890000Y-123485000D03*
X91890000Y-124195000D03*
D32*
X92815000Y-124340000D03*
X92815000Y-123840000D03*
X92815000Y-123340000D03*
X90965000Y-123340000D03*
X90965000Y-123840000D03*
X90965000Y-124340000D03*
D17*
X92545000Y-119510000D03*
X91575000Y-119510000D03*
D31*
X91995000Y-117010000D03*
X91995000Y-117720000D03*
D32*
X92920000Y-117865000D03*
X92920000Y-117365000D03*
X92920000Y-116865000D03*
X91070000Y-116865000D03*
X91070000Y-117365000D03*
X91070000Y-117865000D03*
D17*
X69685000Y-54800000D03*
X68715000Y-54800000D03*
D13*
X70358000Y-99765000D03*
X70358000Y-100735000D03*
D15*
X80010000Y-95405000D03*
X80010000Y-94435000D03*
D33*
X64954000Y-132600000D03*
X65954000Y-132600000D03*
X66954000Y-132600000D03*
X67954000Y-132600000D03*
X68954000Y-132600000D03*
X69954000Y-132600000D03*
X70954000Y-132600000D03*
X71954000Y-132600000D03*
X72954000Y-132600000D03*
X73954000Y-132600000D03*
X74954000Y-132600000D03*
X77954000Y-132600000D03*
X78954000Y-132600000D03*
X79954000Y-132600000D03*
X80954000Y-132600000D03*
X81954000Y-132600000D03*
X82954000Y-132600000D03*
X83954000Y-132600000D03*
X84954000Y-132600000D03*
X85954000Y-132600000D03*
X86954000Y-132600000D03*
X87954000Y-132600000D03*
X88954000Y-132600000D03*
X89954000Y-132600000D03*
X90954000Y-132600000D03*
X91954000Y-132600000D03*
X92954000Y-132600000D03*
X93954000Y-132600000D03*
X94954000Y-132600000D03*
X95954000Y-132600000D03*
X96954000Y-132600000D03*
X97954000Y-132600000D03*
D15*
X145100000Y-113500000D03*
X145100000Y-112530000D03*
X144100000Y-113500000D03*
X144100000Y-112530000D03*
X143100000Y-113485000D03*
X143100000Y-112515000D03*
X142100000Y-113470000D03*
X142100000Y-112500000D03*
X141100000Y-113470000D03*
X141100000Y-112500000D03*
X136900000Y-108170000D03*
X136900000Y-107200000D03*
X135900000Y-108170000D03*
X135900000Y-107200000D03*
X134900000Y-108185000D03*
X134900000Y-107215000D03*
X133900000Y-108185000D03*
X133900000Y-107215000D03*
X132900000Y-108170000D03*
X132900000Y-107200000D03*
D30*
X83590000Y-76790000D03*
X83590000Y-79590000D03*
D15*
X126600000Y-104643000D03*
X126600000Y-103673000D03*
X126570000Y-110793000D03*
X126570000Y-109823000D03*
D34*
X67730000Y-67210000D03*
X65530000Y-67210000D03*
X65530000Y-68910000D03*
X67730000Y-68910000D03*
D13*
X300200000Y-121615000D03*
X300200000Y-122585000D03*
D15*
X205635000Y-124860000D03*
X205635000Y-123890000D03*
X297400000Y-127185000D03*
X297400000Y-126215000D03*
X205635000Y-127060000D03*
X205635000Y-126090000D03*
D13*
X208435000Y-121490000D03*
X208435000Y-122460000D03*
D15*
X202405000Y-127060000D03*
X202405000Y-126090000D03*
X294200000Y-127215000D03*
X294200000Y-126245000D03*
X295800000Y-127185000D03*
X295800000Y-126215000D03*
D19*
X288500000Y-67250000D03*
X288500000Y-64450000D03*
X319000000Y-72150000D03*
X319000000Y-69350000D03*
D15*
X297400000Y-124985000D03*
X297400000Y-124015000D03*
D19*
X257900000Y-62450000D03*
X257900000Y-59650000D03*
X319000000Y-67400000D03*
X319000000Y-64600000D03*
D15*
X202405000Y-124860000D03*
X202405000Y-123890000D03*
D19*
X257900000Y-57700000D03*
X257900000Y-54900000D03*
D35*
X206940000Y-116325000D03*
X205670000Y-116325000D03*
X204400000Y-116325000D03*
X203130000Y-116325000D03*
X203130000Y-121275000D03*
X204400000Y-121275000D03*
X205670000Y-121275000D03*
X206940000Y-121275000D03*
D19*
X257900000Y-67200000D03*
X257900000Y-64400000D03*
D12*
X261298500Y-82105500D03*
X268073500Y-82105500D03*
D15*
X295800000Y-124985000D03*
X295800000Y-124015000D03*
D19*
X288500000Y-57750000D03*
X288500000Y-54950000D03*
D15*
X204035000Y-124860000D03*
X204035000Y-123890000D03*
D19*
X319000000Y-57900000D03*
X319000000Y-55100000D03*
X319000000Y-62650000D03*
X319000000Y-59850000D03*
D15*
X204035000Y-127060000D03*
X204035000Y-126090000D03*
X294200000Y-124985000D03*
X294200000Y-124015000D03*
D36*
X122400000Y-117350000D03*
X122400000Y-52250000D03*
D37*
X106300000Y-53150000D03*
X114499999Y-53450000D03*
X106300000Y-53750000D03*
X114499999Y-54050000D03*
X106300000Y-54350000D03*
X114499999Y-54650000D03*
X106300000Y-54950000D03*
X114499999Y-55250000D03*
X106300000Y-55550000D03*
X114499999Y-55850000D03*
X106300000Y-56150000D03*
X114499999Y-56450000D03*
X106300000Y-56750000D03*
X114499999Y-57050000D03*
X106300000Y-57350000D03*
X114499999Y-57650000D03*
X106300000Y-57950000D03*
X114499999Y-58250000D03*
X106300000Y-58550000D03*
X114499999Y-58850000D03*
X106300000Y-59150000D03*
X114499999Y-59450000D03*
X106300000Y-59750000D03*
X114499999Y-60050000D03*
X106300000Y-60350000D03*
X114499999Y-60650000D03*
X106300000Y-60950000D03*
X114499999Y-61250000D03*
X106300000Y-61550000D03*
X114499999Y-61850000D03*
X106300000Y-62150000D03*
X114499999Y-62450000D03*
X106300000Y-62750000D03*
X114499999Y-63050000D03*
X106300000Y-63350000D03*
X114499999Y-63650000D03*
X106300000Y-63950000D03*
X114499999Y-64250000D03*
X106300000Y-64550000D03*
X114499999Y-64850000D03*
X106300000Y-68750000D03*
X114499999Y-69050000D03*
X106300000Y-69350000D03*
X114499999Y-69650000D03*
X106300000Y-69950000D03*
X114499999Y-70250000D03*
X106300000Y-70550000D03*
X114499999Y-70850000D03*
X106300000Y-71150000D03*
X114499999Y-71450000D03*
X106300000Y-71750000D03*
X114499999Y-72050000D03*
X106300000Y-72350000D03*
X114499999Y-72650000D03*
X106300000Y-72950000D03*
X114499999Y-73250000D03*
X106300000Y-73550000D03*
X114499999Y-73850000D03*
X106300000Y-74150000D03*
X114499999Y-74450000D03*
X106300000Y-74750000D03*
X114499999Y-75050000D03*
X106300000Y-75350000D03*
X114499999Y-75650000D03*
X106300000Y-75950000D03*
X114499999Y-76250000D03*
X106300000Y-76550000D03*
X114499999Y-76850000D03*
X106300000Y-77150000D03*
X114499999Y-77450000D03*
X106300000Y-77750000D03*
X114499999Y-78050000D03*
X106300000Y-78350000D03*
X114499999Y-78650000D03*
X106300000Y-78950000D03*
X114499999Y-79250000D03*
X106300000Y-79550000D03*
X114499999Y-79850000D03*
X106300000Y-80150000D03*
X114499999Y-80450000D03*
X106300000Y-80750000D03*
X114499999Y-81050000D03*
X106300000Y-81350000D03*
X114499999Y-81650000D03*
X106300000Y-81950000D03*
X114499999Y-82250000D03*
X106300000Y-82550000D03*
X114499999Y-82850000D03*
X106300000Y-83150000D03*
X114499999Y-83450000D03*
X106300000Y-83750000D03*
X114499999Y-84050000D03*
X106300000Y-84350000D03*
X114499999Y-84650000D03*
X106300000Y-84950000D03*
X114499999Y-85250000D03*
X106300000Y-85550000D03*
X114499999Y-85850000D03*
X106300000Y-86150000D03*
X114499999Y-86450000D03*
X106300000Y-86750000D03*
X114499999Y-87050000D03*
X106300000Y-87350000D03*
X114499999Y-87650000D03*
X106300000Y-87950000D03*
X114499999Y-88250000D03*
X106300000Y-88550000D03*
X114499999Y-88850000D03*
X106300000Y-89150000D03*
X114499999Y-89450000D03*
X106300000Y-89750000D03*
X114499999Y-90050000D03*
X106300000Y-90350000D03*
X114499999Y-90650000D03*
X106300000Y-90950000D03*
X114499999Y-91250000D03*
X106300000Y-91550000D03*
X114499999Y-91850000D03*
X106300000Y-92150000D03*
X114499999Y-92450000D03*
X106300000Y-92750000D03*
X114499999Y-93050000D03*
X106300000Y-93350000D03*
X114499999Y-93650000D03*
X106300000Y-93950000D03*
X114499999Y-94250000D03*
X106300000Y-94550000D03*
X114499999Y-94850000D03*
X106300000Y-95150000D03*
X114499999Y-95450000D03*
X106300000Y-95750000D03*
X114499999Y-96050000D03*
X106300000Y-96350000D03*
X114499999Y-96650000D03*
X106300000Y-96950000D03*
X114499999Y-97250000D03*
X106300000Y-97550000D03*
X114499999Y-97850000D03*
X106300000Y-98150000D03*
X114499999Y-98450000D03*
X106300000Y-98750000D03*
X114499999Y-99050000D03*
X106300000Y-99350000D03*
X114499999Y-99650000D03*
X106300000Y-99950000D03*
X114499999Y-100250000D03*
X106300000Y-100550000D03*
X114499999Y-100850000D03*
X106300000Y-101150000D03*
X114499999Y-101450000D03*
X106300000Y-101750000D03*
X114499999Y-102050000D03*
X106300000Y-102350000D03*
X114499999Y-102650000D03*
X106300000Y-102950000D03*
X114499999Y-103250000D03*
X106300000Y-103550000D03*
X114499999Y-103850000D03*
X106300000Y-104150000D03*
X114499999Y-104450000D03*
X106300000Y-104750000D03*
X114499999Y-105050000D03*
X106300000Y-105350000D03*
X114499999Y-105650000D03*
X106300000Y-105950000D03*
X114499999Y-106250000D03*
X106300000Y-106550000D03*
X114499999Y-106850000D03*
X106300000Y-107150000D03*
X114499999Y-107450000D03*
X106300000Y-107750000D03*
X114499999Y-108050000D03*
X106300000Y-108350000D03*
X114499999Y-108650000D03*
X106300000Y-108950000D03*
X114499999Y-109250000D03*
X106300000Y-109550000D03*
X114499999Y-109850000D03*
X106300000Y-110150000D03*
X114499999Y-110450000D03*
X106300000Y-110750000D03*
X114499999Y-111050000D03*
X106300000Y-111350000D03*
X114499999Y-111650000D03*
X106300000Y-111950000D03*
X114499999Y-112250000D03*
X106300000Y-112550000D03*
X114499999Y-112850000D03*
X106300000Y-113150000D03*
X114499999Y-113450000D03*
X106300000Y-113750000D03*
X114499999Y-114050000D03*
X106300000Y-114350000D03*
X114499999Y-114650000D03*
X106300000Y-114950000D03*
X114499999Y-115250000D03*
X106300000Y-115550000D03*
X114499999Y-115850000D03*
X106300000Y-116150000D03*
X114499999Y-116450000D03*
D35*
X298705000Y-116325000D03*
X297435000Y-116325000D03*
X296165000Y-116325000D03*
X294895000Y-116325000D03*
X294895000Y-121275000D03*
X296165000Y-121275000D03*
X297435000Y-121275000D03*
X298705000Y-121275000D03*
D19*
X288500000Y-72000000D03*
X288500000Y-69200000D03*
D12*
X322258500Y-82105500D03*
X329033500Y-82105500D03*
D19*
X257900000Y-71950000D03*
X257900000Y-69150000D03*
D12*
X291778500Y-82105500D03*
X298553500Y-82105500D03*
D19*
X288500000Y-62500000D03*
X288500000Y-59700000D03*
M02*
