G04 #@! TF.GenerationSoftware,KiCad,Pcbnew,6.0.7-f9a2dced07~116~ubuntu22.04.1*
G04 #@! TF.CreationDate,2023-05-31T10:56:09+01:00*
G04 #@! TF.ProjectId,hiltop_backplane_brd,68696c74-6f70-45f6-9261-636b706c616e,A*
G04 #@! TF.SameCoordinates,Original*
G04 #@! TF.FileFunction,Glue,Top*
G04 #@! TF.FilePolarity,Positive*
%FSLAX46Y46*%
G04 Gerber Fmt 4.6, Leading zero omitted, Abs format (unit mm)*
G04 Created by KiCad (PCBNEW 6.0.7-f9a2dced07~116~ubuntu22.04.1) date 2023-05-31 10:56:09*
%MOMM*%
%LPD*%
G01*
G04 APERTURE LIST*
G04 #@! TA.AperFunction,Profile*
%ADD10C,0.150000*%
G04 #@! TD*
G04 APERTURE END LIST*
D10*
X179840000Y-50700000D02*
G75*
G03*
X179840000Y-50700000I-5000000J0D01*
G01*
X210320000Y-50700000D02*
G75*
G03*
X210320000Y-50700000I-5000000J0D01*
G01*
X240800000Y-50700000D02*
G75*
G03*
X240800000Y-50700000I-5000000J0D01*
G01*
X210320000Y-93700000D02*
G75*
G03*
X210320000Y-93700000I-5000000J0D01*
G01*
X240800000Y-93700000D02*
G75*
G03*
X240800000Y-93700000I-5000000J0D01*
G01*
X179840000Y-136700000D02*
G75*
G03*
X179840000Y-136700000I-5000000J0D01*
G01*
X210320000Y-136700000D02*
G75*
G03*
X210320000Y-136700000I-5000000J0D01*
G01*
X240800000Y-136700000D02*
G75*
G03*
X240800000Y-136700000I-5000000J0D01*
G01*
X179840000Y-93700000D02*
G75*
G03*
X179840000Y-93700000I-5000000J0D01*
G01*
X271600000Y-136700000D02*
G75*
G03*
X271600000Y-136700000I-5000000J0D01*
G01*
X65300000Y-136200000D02*
X74500000Y-136200000D01*
X75500000Y-135200000D02*
X75500000Y-127700000D01*
X98600000Y-126200000D02*
X119300000Y-126200000D01*
X302080000Y-136700000D02*
G75*
G03*
X302080000Y-136700000I-5000000J0D01*
G01*
X332560000Y-93700000D02*
G75*
G03*
X332560000Y-93700000I-5000000J0D01*
G01*
X75500000Y-135200000D02*
X74500000Y-136200000D01*
X97600000Y-136200000D02*
X98600000Y-135200000D01*
X332560000Y-50700000D02*
G75*
G03*
X332560000Y-50700000I-5000000J0D01*
G01*
X271600000Y-50700000D02*
G75*
G03*
X271600000Y-50700000I-5000000J0D01*
G01*
X302080000Y-93700000D02*
G75*
G03*
X302080000Y-93700000I-5000000J0D01*
G01*
X44300000Y-29200000D02*
X335300000Y-29200000D01*
X64300000Y-135200000D02*
X64300000Y-126200000D01*
X271600000Y-93700000D02*
G75*
G03*
X271600000Y-93700000I-5000000J0D01*
G01*
X332560000Y-136700000D02*
G75*
G03*
X332560000Y-136700000I-5000000J0D01*
G01*
X77400000Y-135200000D02*
X78400000Y-136200000D01*
X119300000Y-136200000D02*
X119300000Y-158200000D01*
X44300000Y-126200000D02*
X44300000Y-29200000D01*
X119300000Y-126200000D02*
X119300000Y-136200000D01*
X78400000Y-136200000D02*
X97600000Y-136200000D01*
X64300000Y-135200000D02*
X65300000Y-136200000D01*
X75500000Y-127700000D02*
X77400000Y-127700000D01*
X98600000Y-135200000D02*
X98600000Y-127700000D01*
X335300000Y-29200000D02*
X335300000Y-158200000D01*
X302080000Y-50700000D02*
G75*
G03*
X302080000Y-50700000I-5000000J0D01*
G01*
X98600000Y-127700000D02*
X98600000Y-126200000D01*
X335300000Y-158200000D02*
X119300000Y-158200000D01*
X77400000Y-127700000D02*
X77400000Y-135200000D01*
X64300000Y-126200000D02*
X44300000Y-126200000D01*
M02*
