G04 #@! TF.GenerationSoftware,KiCad,Pcbnew,6.0.7-f9a2dced07~116~ubuntu22.04.1*
G04 #@! TF.CreationDate,2023-05-03T15:08:03+01:00*
G04 #@! TF.ProjectId,hiltop_backplane_brd,68696c74-6f70-45f6-9261-636b706c616e,A*
G04 #@! TF.SameCoordinates,Original*
G04 #@! TF.FileFunction,Soldermask,Bot*
G04 #@! TF.FilePolarity,Negative*
%FSLAX46Y46*%
G04 Gerber Fmt 4.6, Leading zero omitted, Abs format (unit mm)*
G04 Created by KiCad (PCBNEW 6.0.7-f9a2dced07~116~ubuntu22.04.1) date 2023-05-03 15:08:03*
%MOMM*%
%LPD*%
G01*
G04 APERTURE LIST*
G04 Aperture macros list*
%AMRoundRect*
0 Rectangle with rounded corners*
0 $1 Rounding radius*
0 $2 $3 $4 $5 $6 $7 $8 $9 X,Y pos of 4 corners*
0 Add a 4 corners polygon primitive as box body*
4,1,4,$2,$3,$4,$5,$6,$7,$8,$9,$2,$3,0*
0 Add four circle primitives for the rounded corners*
1,1,$1+$1,$2,$3*
1,1,$1+$1,$4,$5*
1,1,$1+$1,$6,$7*
1,1,$1+$1,$8,$9*
0 Add four rect primitives between the rounded corners*
20,1,$1+$1,$2,$3,$4,$5,0*
20,1,$1+$1,$4,$5,$6,$7,0*
20,1,$1+$1,$6,$7,$8,$9,0*
20,1,$1+$1,$8,$9,$2,$3,0*%
G04 Aperture macros list end*
G04 #@! TA.AperFunction,Profile*
%ADD10C,0.150000*%
G04 #@! TD*
%ADD11C,3.020680*%
%ADD12C,1.621140*%
%ADD13RoundRect,0.310001X-1.099999X-1.399999X1.099999X-1.399999X1.099999X1.399999X-1.099999X1.399999X0*%
%ADD14O,2.820000X3.420000*%
%ADD15RoundRect,0.060000X-0.375000X-2.650000X0.375000X-2.650000X0.375000X2.650000X-0.375000X2.650000X0*%
%ADD16C,1.120000*%
%ADD17C,4.900000*%
%ADD18C,2.620000*%
G04 APERTURE END LIST*
D10*
X179840000Y-50700000D02*
G75*
G03*
X179840000Y-50700000I-5000000J0D01*
G01*
X210320000Y-50700000D02*
G75*
G03*
X210320000Y-50700000I-5000000J0D01*
G01*
X240800000Y-50700000D02*
G75*
G03*
X240800000Y-50700000I-5000000J0D01*
G01*
X210320000Y-93700000D02*
G75*
G03*
X210320000Y-93700000I-5000000J0D01*
G01*
X240800000Y-93700000D02*
G75*
G03*
X240800000Y-93700000I-5000000J0D01*
G01*
X179840000Y-136700000D02*
G75*
G03*
X179840000Y-136700000I-5000000J0D01*
G01*
X210320000Y-136700000D02*
G75*
G03*
X210320000Y-136700000I-5000000J0D01*
G01*
X240800000Y-136700000D02*
G75*
G03*
X240800000Y-136700000I-5000000J0D01*
G01*
X179840000Y-93700000D02*
G75*
G03*
X179840000Y-93700000I-5000000J0D01*
G01*
X271600000Y-136700000D02*
G75*
G03*
X271600000Y-136700000I-5000000J0D01*
G01*
X65300000Y-136200000D02*
X74500000Y-136200000D01*
X75500000Y-135200000D02*
X75500000Y-127700000D01*
X98600000Y-126200000D02*
X119300000Y-126200000D01*
X302080000Y-136700000D02*
G75*
G03*
X302080000Y-136700000I-5000000J0D01*
G01*
X332560000Y-93700000D02*
G75*
G03*
X332560000Y-93700000I-5000000J0D01*
G01*
X75500000Y-135200000D02*
X74500000Y-136200000D01*
X97600000Y-136200000D02*
X98600000Y-135200000D01*
X332560000Y-50700000D02*
G75*
G03*
X332560000Y-50700000I-5000000J0D01*
G01*
X271600000Y-50700000D02*
G75*
G03*
X271600000Y-50700000I-5000000J0D01*
G01*
X302080000Y-93700000D02*
G75*
G03*
X302080000Y-93700000I-5000000J0D01*
G01*
X44300000Y-29200000D02*
X335300000Y-29200000D01*
X64300000Y-135200000D02*
X64300000Y-126200000D01*
X271600000Y-93700000D02*
G75*
G03*
X271600000Y-93700000I-5000000J0D01*
G01*
X332560000Y-136700000D02*
G75*
G03*
X332560000Y-136700000I-5000000J0D01*
G01*
X77400000Y-135200000D02*
X78400000Y-136200000D01*
X119300000Y-136200000D02*
X119300000Y-158200000D01*
X44300000Y-126200000D02*
X44300000Y-29200000D01*
X119300000Y-126200000D02*
X119300000Y-136200000D01*
X78400000Y-136200000D02*
X97600000Y-136200000D01*
X64300000Y-135200000D02*
X65300000Y-136200000D01*
X75500000Y-127700000D02*
X77400000Y-127700000D01*
X98600000Y-135200000D02*
X98600000Y-127700000D01*
X335300000Y-29200000D02*
X335300000Y-158200000D01*
X302080000Y-50700000D02*
G75*
G03*
X302080000Y-50700000I-5000000J0D01*
G01*
X98600000Y-127700000D02*
X98600000Y-126200000D01*
X335300000Y-158200000D02*
X119300000Y-158200000D01*
X77400000Y-127700000D02*
X77400000Y-135200000D01*
X64300000Y-126200000D02*
X44300000Y-126200000D01*
X179840000Y-50700000D02*
G75*
G03*
X179840000Y-50700000I-5000000J0D01*
G01*
X210320000Y-50700000D02*
G75*
G03*
X210320000Y-50700000I-5000000J0D01*
G01*
X240800000Y-50700000D02*
G75*
G03*
X240800000Y-50700000I-5000000J0D01*
G01*
X210320000Y-93700000D02*
G75*
G03*
X210320000Y-93700000I-5000000J0D01*
G01*
X240800000Y-93700000D02*
G75*
G03*
X240800000Y-93700000I-5000000J0D01*
G01*
X179840000Y-136700000D02*
G75*
G03*
X179840000Y-136700000I-5000000J0D01*
G01*
X210320000Y-136700000D02*
G75*
G03*
X210320000Y-136700000I-5000000J0D01*
G01*
X240800000Y-136700000D02*
G75*
G03*
X240800000Y-136700000I-5000000J0D01*
G01*
X179840000Y-93700000D02*
G75*
G03*
X179840000Y-93700000I-5000000J0D01*
G01*
X271600000Y-136700000D02*
G75*
G03*
X271600000Y-136700000I-5000000J0D01*
G01*
X65300000Y-136200000D02*
X74500000Y-136200000D01*
X75500000Y-135200000D02*
X75500000Y-127700000D01*
X98600000Y-126200000D02*
X119300000Y-126200000D01*
X302080000Y-136700000D02*
G75*
G03*
X302080000Y-136700000I-5000000J0D01*
G01*
X332560000Y-93700000D02*
G75*
G03*
X332560000Y-93700000I-5000000J0D01*
G01*
X75500000Y-135200000D02*
X74500000Y-136200000D01*
X97600000Y-136200000D02*
X98600000Y-135200000D01*
X332560000Y-50700000D02*
G75*
G03*
X332560000Y-50700000I-5000000J0D01*
G01*
X271600000Y-50700000D02*
G75*
G03*
X271600000Y-50700000I-5000000J0D01*
G01*
X302080000Y-93700000D02*
G75*
G03*
X302080000Y-93700000I-5000000J0D01*
G01*
X44300000Y-29200000D02*
X335300000Y-29200000D01*
X64300000Y-135200000D02*
X64300000Y-126200000D01*
X271600000Y-93700000D02*
G75*
G03*
X271600000Y-93700000I-5000000J0D01*
G01*
X332560000Y-136700000D02*
G75*
G03*
X332560000Y-136700000I-5000000J0D01*
G01*
X77400000Y-135200000D02*
X78400000Y-136200000D01*
X119300000Y-136200000D02*
X119300000Y-158200000D01*
X44300000Y-126200000D02*
X44300000Y-29200000D01*
X119300000Y-126200000D02*
X119300000Y-136200000D01*
X78400000Y-136200000D02*
X97600000Y-136200000D01*
X64300000Y-135200000D02*
X65300000Y-136200000D01*
X75500000Y-127700000D02*
X77400000Y-127700000D01*
X98600000Y-135200000D02*
X98600000Y-127700000D01*
X335300000Y-29200000D02*
X335300000Y-158200000D01*
X302080000Y-50700000D02*
G75*
G03*
X302080000Y-50700000I-5000000J0D01*
G01*
X98600000Y-127700000D02*
X98600000Y-126200000D01*
X335300000Y-158200000D02*
X119300000Y-158200000D01*
X77400000Y-127700000D02*
X77400000Y-135200000D01*
X64300000Y-126200000D02*
X44300000Y-126200000D01*
D11*
X159600000Y-48703900D03*
X159600000Y-138696100D03*
D12*
X157060000Y-54330000D03*
X159600000Y-54330000D03*
X162140000Y-54330000D03*
X157060000Y-56870000D03*
X159600000Y-56870000D03*
X162140000Y-56870000D03*
X157060000Y-59410000D03*
X159600000Y-59410000D03*
X162140000Y-59410000D03*
X157060000Y-61950000D03*
X159600000Y-61950000D03*
X162140000Y-61950000D03*
X157060000Y-64490000D03*
X159600000Y-64490000D03*
X162140000Y-64490000D03*
X157060000Y-67030000D03*
X159600000Y-67030000D03*
X162140000Y-67030000D03*
X157060000Y-69570000D03*
X159600000Y-69570000D03*
X162140000Y-69570000D03*
X157060000Y-72110000D03*
X159600000Y-72110000D03*
X162140000Y-72110000D03*
X157060000Y-74650000D03*
X159600000Y-74650000D03*
X162140000Y-74650000D03*
X157060000Y-77190000D03*
X159600000Y-77190000D03*
X162140000Y-77190000D03*
X157060000Y-79730000D03*
X159600000Y-79730000D03*
X162140000Y-79730000D03*
X157060000Y-82270000D03*
X159600000Y-82270000D03*
X162140000Y-82270000D03*
X157060000Y-84810000D03*
X159600000Y-84810000D03*
X162140000Y-84810000D03*
X157060000Y-87350000D03*
X159600000Y-87350000D03*
X162140000Y-87350000D03*
X157060000Y-89890000D03*
X159600000Y-89890000D03*
X162140000Y-89890000D03*
X157060000Y-92430000D03*
X159600000Y-92430000D03*
X162140000Y-92430000D03*
X157060000Y-94970000D03*
X159600000Y-94970000D03*
X162140000Y-94970000D03*
X157060000Y-97510000D03*
X159600000Y-97510000D03*
X162140000Y-97510000D03*
X157060000Y-100050000D03*
X159600000Y-100050000D03*
X162140000Y-100050000D03*
X157060000Y-102590000D03*
X159600000Y-102590000D03*
X162140000Y-102590000D03*
X157060000Y-105130000D03*
X159600000Y-105130000D03*
X162140000Y-105130000D03*
X157060000Y-107670000D03*
X159600000Y-107670000D03*
X162140000Y-107670000D03*
X157060000Y-110210000D03*
X159600000Y-110210000D03*
X162140000Y-110210000D03*
X157060000Y-112750000D03*
X159600000Y-112750000D03*
X162140000Y-112750000D03*
X157060000Y-115290000D03*
X159600000Y-115290000D03*
X162140000Y-115290000D03*
X157060000Y-117830000D03*
X159600000Y-117830000D03*
X162140000Y-117830000D03*
X157060000Y-120370000D03*
X159600000Y-120370000D03*
X162140000Y-120370000D03*
X157060000Y-122910000D03*
X159600000Y-122910000D03*
X162140000Y-122910000D03*
X157060000Y-125450000D03*
X159600000Y-125450000D03*
X162140000Y-125450000D03*
X157060000Y-127990000D03*
X159600000Y-127990000D03*
X162140000Y-127990000D03*
X157060000Y-130530000D03*
X159600000Y-130530000D03*
X162140000Y-130530000D03*
X157060000Y-133070000D03*
X159600000Y-133070000D03*
X162140000Y-133070000D03*
D11*
X190080000Y-138696100D03*
X190080000Y-48703900D03*
D12*
X187540000Y-54330000D03*
X190080000Y-54330000D03*
X192620000Y-54330000D03*
X187540000Y-56870000D03*
X190080000Y-56870000D03*
X192620000Y-56870000D03*
X187540000Y-59410000D03*
X190080000Y-59410000D03*
X192620000Y-59410000D03*
X187540000Y-61950000D03*
X190080000Y-61950000D03*
X192620000Y-61950000D03*
X187540000Y-64490000D03*
X190080000Y-64490000D03*
X192620000Y-64490000D03*
X187540000Y-67030000D03*
X190080000Y-67030000D03*
X192620000Y-67030000D03*
X187540000Y-69570000D03*
X190080000Y-69570000D03*
X192620000Y-69570000D03*
X187540000Y-72110000D03*
X190080000Y-72110000D03*
X192620000Y-72110000D03*
X187540000Y-74650000D03*
X190080000Y-74650000D03*
X192620000Y-74650000D03*
X187540000Y-77190000D03*
X190080000Y-77190000D03*
X192620000Y-77190000D03*
X187540000Y-79730000D03*
X190080000Y-79730000D03*
X192620000Y-79730000D03*
X187540000Y-82270000D03*
X190080000Y-82270000D03*
X192620000Y-82270000D03*
X187540000Y-84810000D03*
X190080000Y-84810000D03*
X192620000Y-84810000D03*
X187540000Y-87350000D03*
X190080000Y-87350000D03*
X192620000Y-87350000D03*
X187540000Y-89890000D03*
X190080000Y-89890000D03*
X192620000Y-89890000D03*
X187540000Y-92430000D03*
X190080000Y-92430000D03*
X192620000Y-92430000D03*
X187540000Y-94970000D03*
X190080000Y-94970000D03*
X192620000Y-94970000D03*
X187540000Y-97510000D03*
X190080000Y-97510000D03*
X192620000Y-97510000D03*
X187540000Y-100050000D03*
X190080000Y-100050000D03*
X192620000Y-100050000D03*
X187540000Y-102590000D03*
X190080000Y-102590000D03*
X192620000Y-102590000D03*
X187540000Y-105130000D03*
X190080000Y-105130000D03*
X192620000Y-105130000D03*
X187540000Y-107670000D03*
X190080000Y-107670000D03*
X192620000Y-107670000D03*
X187540000Y-110210000D03*
X190080000Y-110210000D03*
X192620000Y-110210000D03*
X187540000Y-112750000D03*
X190080000Y-112750000D03*
X192620000Y-112750000D03*
X187540000Y-115290000D03*
X190080000Y-115290000D03*
X192620000Y-115290000D03*
X187540000Y-117830000D03*
X190080000Y-117830000D03*
X192620000Y-117830000D03*
X187540000Y-120370000D03*
X190080000Y-120370000D03*
X192620000Y-120370000D03*
X187540000Y-122910000D03*
X190080000Y-122910000D03*
X192620000Y-122910000D03*
X187540000Y-125450000D03*
X190080000Y-125450000D03*
X192620000Y-125450000D03*
X187540000Y-127990000D03*
X190080000Y-127990000D03*
X192620000Y-127990000D03*
X187540000Y-130530000D03*
X190080000Y-130530000D03*
X192620000Y-130530000D03*
X187540000Y-133070000D03*
X190080000Y-133070000D03*
X192620000Y-133070000D03*
D11*
X220560000Y-48703900D03*
X220560000Y-138696100D03*
D12*
X218020000Y-54330000D03*
X220560000Y-54330000D03*
X223100000Y-54330000D03*
X218020000Y-56870000D03*
X220560000Y-56870000D03*
X223100000Y-56870000D03*
X218020000Y-59410000D03*
X220560000Y-59410000D03*
X223100000Y-59410000D03*
X218020000Y-61950000D03*
X220560000Y-61950000D03*
X223100000Y-61950000D03*
X218020000Y-64490000D03*
X220560000Y-64490000D03*
X223100000Y-64490000D03*
X218020000Y-67030000D03*
X220560000Y-67030000D03*
X223100000Y-67030000D03*
X218020000Y-69570000D03*
X220560000Y-69570000D03*
X223100000Y-69570000D03*
X218020000Y-72110000D03*
X220560000Y-72110000D03*
X223100000Y-72110000D03*
X218020000Y-74650000D03*
X220560000Y-74650000D03*
X223100000Y-74650000D03*
X218020000Y-77190000D03*
X220560000Y-77190000D03*
X223100000Y-77190000D03*
X218020000Y-79730000D03*
X220560000Y-79730000D03*
X223100000Y-79730000D03*
X218020000Y-82270000D03*
X220560000Y-82270000D03*
X223100000Y-82270000D03*
X218020000Y-84810000D03*
X220560000Y-84810000D03*
X223100000Y-84810000D03*
X218020000Y-87350000D03*
X220560000Y-87350000D03*
X223100000Y-87350000D03*
X218020000Y-89890000D03*
X220560000Y-89890000D03*
X223100000Y-89890000D03*
X218020000Y-92430000D03*
X220560000Y-92430000D03*
X223100000Y-92430000D03*
X218020000Y-94970000D03*
X220560000Y-94970000D03*
X223100000Y-94970000D03*
X218020000Y-97510000D03*
X220560000Y-97510000D03*
X223100000Y-97510000D03*
X218020000Y-100050000D03*
X220560000Y-100050000D03*
X223100000Y-100050000D03*
X218020000Y-102590000D03*
X220560000Y-102590000D03*
X223100000Y-102590000D03*
X218020000Y-105130000D03*
X220560000Y-105130000D03*
X223100000Y-105130000D03*
X218020000Y-107670000D03*
X220560000Y-107670000D03*
X223100000Y-107670000D03*
X218020000Y-110210000D03*
X220560000Y-110210000D03*
X223100000Y-110210000D03*
X218020000Y-112750000D03*
X220560000Y-112750000D03*
X223100000Y-112750000D03*
X218020000Y-115290000D03*
X220560000Y-115290000D03*
X223100000Y-115290000D03*
X218020000Y-117830000D03*
X220560000Y-117830000D03*
X223100000Y-117830000D03*
X218020000Y-120370000D03*
X220560000Y-120370000D03*
X223100000Y-120370000D03*
X218020000Y-122910000D03*
X220560000Y-122910000D03*
X223100000Y-122910000D03*
X218020000Y-125450000D03*
X220560000Y-125450000D03*
X223100000Y-125450000D03*
X218020000Y-127990000D03*
X220560000Y-127990000D03*
X223100000Y-127990000D03*
X218020000Y-130530000D03*
X220560000Y-130530000D03*
X223100000Y-130530000D03*
X218020000Y-133070000D03*
X220560000Y-133070000D03*
X223100000Y-133070000D03*
D13*
X84074000Y-43268000D03*
D14*
X88274000Y-43268000D03*
X92474000Y-43268000D03*
X96674000Y-43268000D03*
X84074000Y-48768000D03*
X88274000Y-48768000D03*
X92474000Y-48768000D03*
X96674000Y-48768000D03*
D13*
X89916000Y-59778000D03*
D14*
X89916000Y-65278000D03*
D13*
X87884000Y-76454000D03*
D14*
X92084000Y-76454000D03*
X87884000Y-81954000D03*
X92084000Y-81954000D03*
D15*
X64954000Y-132600000D03*
X65954000Y-132600000D03*
X66954000Y-132600000D03*
X67954000Y-132600000D03*
X68954000Y-132600000D03*
X69954000Y-132600000D03*
X70954000Y-132600000D03*
X71954000Y-132600000D03*
X72954000Y-132600000D03*
X73954000Y-132600000D03*
X74954000Y-132600000D03*
X77954000Y-132600000D03*
X78954000Y-132600000D03*
X79954000Y-132600000D03*
X80954000Y-132600000D03*
X81954000Y-132600000D03*
X82954000Y-132600000D03*
X83954000Y-132600000D03*
X84954000Y-132600000D03*
X85954000Y-132600000D03*
X86954000Y-132600000D03*
X87954000Y-132600000D03*
X88954000Y-132600000D03*
X89954000Y-132600000D03*
X90954000Y-132600000D03*
X91954000Y-132600000D03*
X92954000Y-132600000D03*
X93954000Y-132600000D03*
X94954000Y-132600000D03*
X95954000Y-132600000D03*
X96954000Y-132600000D03*
X97954000Y-132600000D03*
D16*
X67600000Y-117200000D03*
X71700000Y-116800000D03*
X62200000Y-110000000D03*
X73000000Y-122400000D03*
X138000000Y-126000000D03*
X141200000Y-126000000D03*
X144600000Y-126000000D03*
X68300000Y-102100000D03*
X67700000Y-105300000D03*
X64500000Y-105200000D03*
X71200000Y-105400000D03*
X102600000Y-112200000D03*
X102500000Y-110000000D03*
X99600000Y-110500000D03*
X77090000Y-79040000D03*
X99600000Y-107300000D03*
X81200000Y-87200000D03*
X72130000Y-102140000D03*
X74350000Y-101620000D03*
X46800000Y-38400000D03*
X101900000Y-41400000D03*
X95200000Y-59600000D03*
X82300000Y-56700000D03*
X84700000Y-56700000D03*
X80120000Y-60470000D03*
X87900000Y-87200000D03*
X96800000Y-83600000D03*
X97010000Y-86030000D03*
D17*
X137400000Y-54000000D03*
X137400000Y-115600000D03*
D18*
X312000000Y-32450000D03*
X129120000Y-32450000D03*
X281520000Y-32450000D03*
X129120000Y-154950000D03*
X159600000Y-154950000D03*
X98640000Y-32450000D03*
X220560000Y-154950000D03*
X190080000Y-32450000D03*
X220560000Y-32450000D03*
D16*
X124400000Y-132500000D03*
D18*
X251040000Y-32450000D03*
D11*
X251040000Y-138696100D03*
X251040000Y-48703900D03*
D12*
X248500000Y-54330000D03*
X251040000Y-54330000D03*
X253580000Y-54330000D03*
X248500000Y-56870000D03*
X251040000Y-56870000D03*
X253580000Y-56870000D03*
X248500000Y-59410000D03*
X251040000Y-59410000D03*
X253580000Y-59410000D03*
X248500000Y-61950000D03*
X251040000Y-61950000D03*
X253580000Y-61950000D03*
X248500000Y-64490000D03*
X251040000Y-64490000D03*
X253580000Y-64490000D03*
X248500000Y-67030000D03*
X251040000Y-67030000D03*
X253580000Y-67030000D03*
X248500000Y-69570000D03*
X251040000Y-69570000D03*
X253580000Y-69570000D03*
X248500000Y-72110000D03*
X251040000Y-72110000D03*
X253580000Y-72110000D03*
X248500000Y-74650000D03*
X251040000Y-74650000D03*
X253580000Y-74650000D03*
X248500000Y-77190000D03*
X251040000Y-77190000D03*
X253580000Y-77190000D03*
X248500000Y-79730000D03*
X251040000Y-79730000D03*
X253580000Y-79730000D03*
X248500000Y-82270000D03*
X251040000Y-82270000D03*
X253580000Y-82270000D03*
X248500000Y-84810000D03*
X251040000Y-84810000D03*
X253580000Y-84810000D03*
X248500000Y-87350000D03*
X251040000Y-87350000D03*
X253580000Y-87350000D03*
X248500000Y-89890000D03*
X251040000Y-89890000D03*
X253580000Y-89890000D03*
X248500000Y-92430000D03*
X251040000Y-92430000D03*
X253580000Y-92430000D03*
X248500000Y-94970000D03*
X251040000Y-94970000D03*
X253580000Y-94970000D03*
X248500000Y-97510000D03*
X251040000Y-97510000D03*
X253580000Y-97510000D03*
X248500000Y-100050000D03*
X251040000Y-100050000D03*
X253580000Y-100050000D03*
X248500000Y-102590000D03*
X251040000Y-102590000D03*
X253580000Y-102590000D03*
X248500000Y-105130000D03*
X251040000Y-105130000D03*
X253580000Y-105130000D03*
X248500000Y-107670000D03*
X251040000Y-107670000D03*
X253580000Y-107670000D03*
X248500000Y-110210000D03*
X251040000Y-110210000D03*
X253580000Y-110210000D03*
X248500000Y-112750000D03*
X251040000Y-112750000D03*
X253580000Y-112750000D03*
X248500000Y-115290000D03*
X251040000Y-115290000D03*
X253580000Y-115290000D03*
X248500000Y-117830000D03*
X251040000Y-117830000D03*
X253580000Y-117830000D03*
X248500000Y-120370000D03*
X251040000Y-120370000D03*
X253580000Y-120370000D03*
X248500000Y-122910000D03*
X251040000Y-122910000D03*
X253580000Y-122910000D03*
X248500000Y-125450000D03*
X251040000Y-125450000D03*
X253580000Y-125450000D03*
X248500000Y-127990000D03*
X251040000Y-127990000D03*
X253580000Y-127990000D03*
X248500000Y-130530000D03*
X251040000Y-130530000D03*
X253580000Y-130530000D03*
X248500000Y-133070000D03*
X251040000Y-133070000D03*
X253580000Y-133070000D03*
D16*
X129200000Y-132500000D03*
D18*
X68160000Y-32450000D03*
D11*
X312000000Y-138696100D03*
X312000000Y-48703900D03*
D12*
X309460000Y-54330000D03*
X312000000Y-54330000D03*
X314540000Y-54330000D03*
X309460000Y-56870000D03*
X312000000Y-56870000D03*
X314540000Y-56870000D03*
X309460000Y-59410000D03*
X312000000Y-59410000D03*
X314540000Y-59410000D03*
X309460000Y-61950000D03*
X312000000Y-61950000D03*
X314540000Y-61950000D03*
X309460000Y-64490000D03*
X312000000Y-64490000D03*
X314540000Y-64490000D03*
X309460000Y-67030000D03*
X312000000Y-67030000D03*
X314540000Y-67030000D03*
X309460000Y-69570000D03*
X312000000Y-69570000D03*
X314540000Y-69570000D03*
X309460000Y-72110000D03*
X312000000Y-72110000D03*
X314540000Y-72110000D03*
X309460000Y-74650000D03*
X312000000Y-74650000D03*
X314540000Y-74650000D03*
X309460000Y-77190000D03*
X312000000Y-77190000D03*
X314540000Y-77190000D03*
X309460000Y-79730000D03*
X312000000Y-79730000D03*
X314540000Y-79730000D03*
X309460000Y-82270000D03*
X312000000Y-82270000D03*
X314540000Y-82270000D03*
X309460000Y-84810000D03*
X312000000Y-84810000D03*
X314540000Y-84810000D03*
X309460000Y-87350000D03*
X312000000Y-87350000D03*
X314540000Y-87350000D03*
X309460000Y-89890000D03*
X312000000Y-89890000D03*
X314540000Y-89890000D03*
X309460000Y-92430000D03*
X312000000Y-92430000D03*
X314540000Y-92430000D03*
X309460000Y-94970000D03*
X312000000Y-94970000D03*
X314540000Y-94970000D03*
X309460000Y-97510000D03*
X312000000Y-97510000D03*
X314540000Y-97510000D03*
X309460000Y-100050000D03*
X312000000Y-100050000D03*
X314540000Y-100050000D03*
X309460000Y-102590000D03*
X312000000Y-102590000D03*
X314540000Y-102590000D03*
X309460000Y-105130000D03*
X312000000Y-105130000D03*
X314540000Y-105130000D03*
X309460000Y-107670000D03*
X312000000Y-107670000D03*
X314540000Y-107670000D03*
X309460000Y-110210000D03*
X312000000Y-110210000D03*
X314540000Y-110210000D03*
X309460000Y-112750000D03*
X312000000Y-112750000D03*
X314540000Y-112750000D03*
X309460000Y-115290000D03*
X312000000Y-115290000D03*
X314540000Y-115290000D03*
X309460000Y-117830000D03*
X312000000Y-117830000D03*
X314540000Y-117830000D03*
X309460000Y-120370000D03*
X312000000Y-120370000D03*
X314540000Y-120370000D03*
X309460000Y-122910000D03*
X312000000Y-122910000D03*
X314540000Y-122910000D03*
X309460000Y-125450000D03*
X312000000Y-125450000D03*
X314540000Y-125450000D03*
X309460000Y-127990000D03*
X312000000Y-127990000D03*
X314540000Y-127990000D03*
X309460000Y-130530000D03*
X312000000Y-130530000D03*
X314540000Y-130530000D03*
X309460000Y-133070000D03*
X312000000Y-133070000D03*
X314540000Y-133070000D03*
D11*
X281520000Y-138696100D03*
X281520000Y-48703900D03*
D12*
X278980000Y-54330000D03*
X281520000Y-54330000D03*
X284060000Y-54330000D03*
X278980000Y-56870000D03*
X281520000Y-56870000D03*
X284060000Y-56870000D03*
X278980000Y-59410000D03*
X281520000Y-59410000D03*
X284060000Y-59410000D03*
X278980000Y-61950000D03*
X281520000Y-61950000D03*
X284060000Y-61950000D03*
X278980000Y-64490000D03*
X281520000Y-64490000D03*
X284060000Y-64490000D03*
X278980000Y-67030000D03*
X281520000Y-67030000D03*
X284060000Y-67030000D03*
X278980000Y-69570000D03*
X281520000Y-69570000D03*
X284060000Y-69570000D03*
X278980000Y-72110000D03*
X281520000Y-72110000D03*
X284060000Y-72110000D03*
X278980000Y-74650000D03*
X281520000Y-74650000D03*
X284060000Y-74650000D03*
X278980000Y-77190000D03*
X281520000Y-77190000D03*
X284060000Y-77190000D03*
X278980000Y-79730000D03*
X281520000Y-79730000D03*
X284060000Y-79730000D03*
X278980000Y-82270000D03*
X281520000Y-82270000D03*
X284060000Y-82270000D03*
X278980000Y-84810000D03*
X281520000Y-84810000D03*
X284060000Y-84810000D03*
X278980000Y-87350000D03*
X281520000Y-87350000D03*
X284060000Y-87350000D03*
X278980000Y-89890000D03*
X281520000Y-89890000D03*
X284060000Y-89890000D03*
X278980000Y-92430000D03*
X281520000Y-92430000D03*
X284060000Y-92430000D03*
X278980000Y-94970000D03*
X281520000Y-94970000D03*
X284060000Y-94970000D03*
X278980000Y-97510000D03*
X281520000Y-97510000D03*
X284060000Y-97510000D03*
X278980000Y-100050000D03*
X281520000Y-100050000D03*
X284060000Y-100050000D03*
X278980000Y-102590000D03*
X281520000Y-102590000D03*
X284060000Y-102590000D03*
X278980000Y-105130000D03*
X281520000Y-105130000D03*
X284060000Y-105130000D03*
X278980000Y-107670000D03*
X281520000Y-107670000D03*
X284060000Y-107670000D03*
X278980000Y-110210000D03*
X281520000Y-110210000D03*
X284060000Y-110210000D03*
X278980000Y-112750000D03*
X281520000Y-112750000D03*
X284060000Y-112750000D03*
X278980000Y-115290000D03*
X281520000Y-115290000D03*
X284060000Y-115290000D03*
X278980000Y-117830000D03*
X281520000Y-117830000D03*
X284060000Y-117830000D03*
X278980000Y-120370000D03*
X281520000Y-120370000D03*
X284060000Y-120370000D03*
X278980000Y-122910000D03*
X281520000Y-122910000D03*
X284060000Y-122910000D03*
X278980000Y-125450000D03*
X281520000Y-125450000D03*
X284060000Y-125450000D03*
X278980000Y-127990000D03*
X281520000Y-127990000D03*
X284060000Y-127990000D03*
X278980000Y-130530000D03*
X281520000Y-130530000D03*
X284060000Y-130530000D03*
X278980000Y-133070000D03*
X281520000Y-133070000D03*
X284060000Y-133070000D03*
D18*
X159600000Y-32450000D03*
X190080000Y-154950000D03*
X281520000Y-154950000D03*
X251040000Y-154950000D03*
D16*
X126800000Y-132500000D03*
D18*
X312000000Y-154950000D03*
M02*
