M48
; DRILL file {KiCad 6.0.7-f9a2dced07~116~ubuntu22.04.1} date Wed 03 May 2023 15:08:09 BST
; FORMAT={-:-/ absolute / inch / decimal}
; #@! TF.CreationDate,2023-05-03T15:08:09+01:00
; #@! TF.GenerationSoftware,Kicad,Pcbnew,6.0.7-f9a2dced07~116~ubuntu22.04.1
; #@! TF.FileFunction,NonPlated,1,6,NPTH
FMAT,2
INCH
; #@! TA.AperFunction,NonPlated,NPTH,ComponentDrill
T1C0.0433
; #@! TA.AperFunction,NonPlated,NPTH,ComponentDrill
T2C0.0630
; #@! TA.AperFunction,NonPlated,NPTH,ComponentDrill
T3C0.0906
; #@! TA.AperFunction,NonPlated,NPTH,ComponentDrill
T4C0.0984
%
G90
G05
T1
X4.3465Y-4.6535
T2
X4.3465Y-2.0236
T3
X5.4094Y-2.126
X5.4094Y-4.5512
T4
X2.6835Y-1.2776
X3.8835Y-1.2776
X5.0835Y-1.2776
X5.0835Y-6.1004
X6.2835Y-1.2776
X6.2835Y-6.1004
X7.4835Y-1.2776
X7.4835Y-6.1004
X8.6835Y-1.2776
X8.6835Y-6.1004
X9.8835Y-1.2776
X9.8835Y-6.1004
X11.0835Y-1.2776
X11.0835Y-6.1004
X12.2835Y-1.2776
X12.2835Y-6.1004
T0
M30
