%TF.GenerationSoftware,KiCad,Pcbnew,6.0.7-f9a2dced07~116~ubuntu22.04.1*%
%TF.CreationDate,2023-05-03T15:08:11+01:00*%
%TF.ProjectId,hiltop_backplane_brd,68696c74-6f70-45f6-9261-636b706c616e,A*%
%TF.SameCoordinates,Original*%
%TF.FileFunction,Drillmap*%
%TF.FilePolarity,Positive*%
%FSLAX45Y45*%
G04 Gerber Fmt 4.5, Leading zero omitted, Abs format (unit mm)*
G04 Created by KiCad (PCBNEW 6.0.7-f9a2dced07~116~ubuntu22.04.1) date 2023-05-03 15:08:11*
%MOMM*%
%LPD*%
G01*
G04 APERTURE LIST*
%ADD10C,0.150000*%
%ADD11C,0.200000*%
%ADD12C,0.110000*%
%ADD13C,0.160000*%
%ADD14C,0.230000*%
%ADD15C,0.250000*%
G04 APERTURE END LIST*
D10*
X17984000Y-5070000D02*
G75*
G03*
X17984000Y-5070000I-500000J0D01*
G01*
X21032000Y-5070000D02*
G75*
G03*
X21032000Y-5070000I-500000J0D01*
G01*
X24080000Y-5070000D02*
G75*
G03*
X24080000Y-5070000I-500000J0D01*
G01*
X21032000Y-9370000D02*
G75*
G03*
X21032000Y-9370000I-500000J0D01*
G01*
X24080000Y-9370000D02*
G75*
G03*
X24080000Y-9370000I-500000J0D01*
G01*
X17984000Y-13670000D02*
G75*
G03*
X17984000Y-13670000I-500000J0D01*
G01*
X21032000Y-13670000D02*
G75*
G03*
X21032000Y-13670000I-500000J0D01*
G01*
X24080000Y-13670000D02*
G75*
G03*
X24080000Y-13670000I-500000J0D01*
G01*
X17984000Y-9370000D02*
G75*
G03*
X17984000Y-9370000I-500000J0D01*
G01*
X27160000Y-13670000D02*
G75*
G03*
X27160000Y-13670000I-500000J0D01*
G01*
X6530000Y-13620000D02*
X7450000Y-13620000D01*
X7550000Y-13520000D02*
X7550000Y-12770000D01*
X9860000Y-12620000D02*
X11930000Y-12620000D01*
X30208000Y-13670000D02*
G75*
G03*
X30208000Y-13670000I-500000J0D01*
G01*
X33256000Y-9370000D02*
G75*
G03*
X33256000Y-9370000I-500000J0D01*
G01*
X7550000Y-13520000D02*
X7450000Y-13620000D01*
X9760000Y-13620000D02*
X9860000Y-13520000D01*
X33256000Y-5070000D02*
G75*
G03*
X33256000Y-5070000I-500000J0D01*
G01*
X27160000Y-5070000D02*
G75*
G03*
X27160000Y-5070000I-500000J0D01*
G01*
X30208000Y-9370000D02*
G75*
G03*
X30208000Y-9370000I-500000J0D01*
G01*
X4430000Y-2920000D02*
X33530000Y-2920000D01*
X6430000Y-13520000D02*
X6430000Y-12620000D01*
X27160000Y-9370000D02*
G75*
G03*
X27160000Y-9370000I-500000J0D01*
G01*
X33256000Y-13670000D02*
G75*
G03*
X33256000Y-13670000I-500000J0D01*
G01*
X7740000Y-13520000D02*
X7840000Y-13620000D01*
X11930000Y-13620000D02*
X11930000Y-15820000D01*
X4430000Y-12620000D02*
X4430000Y-2920000D01*
X11930000Y-12620000D02*
X11930000Y-13620000D01*
X7840000Y-13620000D02*
X9760000Y-13620000D01*
X6430000Y-13520000D02*
X6530000Y-13620000D01*
X7550000Y-12770000D02*
X7740000Y-12770000D01*
X9860000Y-13520000D02*
X9860000Y-12770000D01*
X33530000Y-2920000D02*
X33530000Y-15820000D01*
X30208000Y-5070000D02*
G75*
G03*
X30208000Y-5070000I-500000J0D01*
G01*
X9860000Y-12770000D02*
X9860000Y-12620000D01*
X33530000Y-15820000D02*
X11930000Y-15820000D01*
X7740000Y-12770000D02*
X7740000Y-13520000D01*
X6430000Y-12620000D02*
X4430000Y-12620000D01*
D11*
D12*
X10985000Y-11765000D02*
X11095000Y-11875000D01*
X11095000Y-11765000D02*
X10985000Y-11875000D01*
D13*
X11120000Y-5140000D02*
G75*
G03*
X11120000Y-5140000I-80000J0D01*
G01*
D14*
X13740000Y-5285000D02*
X13740000Y-5515000D01*
X13625000Y-5400000D02*
X13855000Y-5400000D01*
X13740000Y-11445000D02*
X13740000Y-11675000D01*
X13625000Y-11560000D02*
X13855000Y-11560000D01*
D15*
X6904389Y-3333389D02*
X6904389Y-3156611D01*
X6727611Y-3156611D01*
X6727611Y-3333389D01*
X6904389Y-3333389D01*
X9952389Y-3333389D02*
X9952389Y-3156611D01*
X9775611Y-3156611D01*
X9775611Y-3333389D01*
X9952389Y-3333389D01*
X13000389Y-3333389D02*
X13000389Y-3156611D01*
X12823611Y-3156611D01*
X12823611Y-3333389D01*
X13000389Y-3333389D01*
X13000389Y-15583389D02*
X13000389Y-15406611D01*
X12823611Y-15406611D01*
X12823611Y-15583389D01*
X13000389Y-15583389D01*
X16048389Y-3333389D02*
X16048389Y-3156611D01*
X15871611Y-3156611D01*
X15871611Y-3333389D01*
X16048389Y-3333389D01*
X16048389Y-15583389D02*
X16048389Y-15406611D01*
X15871611Y-15406611D01*
X15871611Y-15583389D01*
X16048389Y-15583389D01*
X19096389Y-3333389D02*
X19096389Y-3156611D01*
X18919611Y-3156611D01*
X18919611Y-3333389D01*
X19096389Y-3333389D01*
X19096389Y-15583389D02*
X19096389Y-15406611D01*
X18919611Y-15406611D01*
X18919611Y-15583389D01*
X19096389Y-15583389D01*
X22144389Y-3333389D02*
X22144389Y-3156611D01*
X21967611Y-3156611D01*
X21967611Y-3333389D01*
X22144389Y-3333389D01*
X22144389Y-15583389D02*
X22144389Y-15406611D01*
X21967611Y-15406611D01*
X21967611Y-15583389D01*
X22144389Y-15583389D01*
X25192389Y-3333389D02*
X25192389Y-3156611D01*
X25015611Y-3156611D01*
X25015611Y-3333389D01*
X25192389Y-3333389D01*
X25192389Y-15583389D02*
X25192389Y-15406611D01*
X25015611Y-15406611D01*
X25015611Y-15583389D01*
X25192389Y-15583389D01*
X28240389Y-3333389D02*
X28240389Y-3156611D01*
X28063611Y-3156611D01*
X28063611Y-3333389D01*
X28240389Y-3333389D01*
X28240389Y-15583389D02*
X28240389Y-15406611D01*
X28063611Y-15406611D01*
X28063611Y-15583389D01*
X28240389Y-15583389D01*
X31288389Y-3333389D02*
X31288389Y-3156611D01*
X31111611Y-3156611D01*
X31111611Y-3333389D01*
X31288389Y-3333389D01*
X31288389Y-15583389D02*
X31288389Y-15406611D01*
X31111611Y-15406611D01*
X31111611Y-15583389D01*
X31288389Y-15583389D01*
D11*
X4680119Y-16137976D02*
X4680119Y-15937976D01*
X4727738Y-15937976D01*
X4756310Y-15947500D01*
X4775357Y-15966548D01*
X4784881Y-15985595D01*
X4794405Y-16023690D01*
X4794405Y-16052262D01*
X4784881Y-16090357D01*
X4775357Y-16109405D01*
X4756310Y-16128452D01*
X4727738Y-16137976D01*
X4680119Y-16137976D01*
X4880119Y-16137976D02*
X4880119Y-16004643D01*
X4880119Y-16042738D02*
X4889643Y-16023690D01*
X4899167Y-16014167D01*
X4918214Y-16004643D01*
X4937262Y-16004643D01*
X5003929Y-16137976D02*
X5003929Y-16004643D01*
X5003929Y-15937976D02*
X4994405Y-15947500D01*
X5003929Y-15957024D01*
X5013452Y-15947500D01*
X5003929Y-15937976D01*
X5003929Y-15957024D01*
X5127738Y-16137976D02*
X5108690Y-16128452D01*
X5099167Y-16109405D01*
X5099167Y-15937976D01*
X5232500Y-16137976D02*
X5213452Y-16128452D01*
X5203929Y-16109405D01*
X5203929Y-15937976D01*
X5461071Y-16137976D02*
X5461071Y-15937976D01*
X5527738Y-16080833D01*
X5594405Y-15937976D01*
X5594405Y-16137976D01*
X5775357Y-16137976D02*
X5775357Y-16033214D01*
X5765833Y-16014167D01*
X5746786Y-16004643D01*
X5708690Y-16004643D01*
X5689643Y-16014167D01*
X5775357Y-16128452D02*
X5756309Y-16137976D01*
X5708690Y-16137976D01*
X5689643Y-16128452D01*
X5680119Y-16109405D01*
X5680119Y-16090357D01*
X5689643Y-16071309D01*
X5708690Y-16061786D01*
X5756309Y-16061786D01*
X5775357Y-16052262D01*
X5870595Y-16004643D02*
X5870595Y-16204643D01*
X5870595Y-16014167D02*
X5889643Y-16004643D01*
X5927738Y-16004643D01*
X5946786Y-16014167D01*
X5956309Y-16023690D01*
X5965833Y-16042738D01*
X5965833Y-16099881D01*
X5956309Y-16118928D01*
X5946786Y-16128452D01*
X5927738Y-16137976D01*
X5889643Y-16137976D01*
X5870595Y-16128452D01*
X6051548Y-16118928D02*
X6061071Y-16128452D01*
X6051548Y-16137976D01*
X6042024Y-16128452D01*
X6051548Y-16118928D01*
X6051548Y-16137976D01*
X6051548Y-16014167D02*
X6061071Y-16023690D01*
X6051548Y-16033214D01*
X6042024Y-16023690D01*
X6051548Y-16014167D01*
X6051548Y-16033214D01*
D12*
X4312500Y-16412500D02*
X4422500Y-16522500D01*
X4422500Y-16412500D02*
X4312500Y-16522500D01*
D11*
X4784881Y-16557976D02*
X4670595Y-16557976D01*
X4727738Y-16557976D02*
X4727738Y-16357976D01*
X4708690Y-16386548D01*
X4689643Y-16405595D01*
X4670595Y-16415119D01*
X4870595Y-16538928D02*
X4880119Y-16548452D01*
X4870595Y-16557976D01*
X4861071Y-16548452D01*
X4870595Y-16538928D01*
X4870595Y-16557976D01*
X5070595Y-16557976D02*
X4956310Y-16557976D01*
X5013452Y-16557976D02*
X5013452Y-16357976D01*
X4994405Y-16386548D01*
X4975357Y-16405595D01*
X4956310Y-16415119D01*
X5194405Y-16357976D02*
X5213452Y-16357976D01*
X5232500Y-16367500D01*
X5242024Y-16377024D01*
X5251548Y-16396071D01*
X5261071Y-16434167D01*
X5261071Y-16481786D01*
X5251548Y-16519881D01*
X5242024Y-16538928D01*
X5232500Y-16548452D01*
X5213452Y-16557976D01*
X5194405Y-16557976D01*
X5175357Y-16548452D01*
X5165833Y-16538928D01*
X5156310Y-16519881D01*
X5146786Y-16481786D01*
X5146786Y-16434167D01*
X5156310Y-16396071D01*
X5165833Y-16377024D01*
X5175357Y-16367500D01*
X5194405Y-16357976D01*
X5384881Y-16357976D02*
X5403929Y-16357976D01*
X5422976Y-16367500D01*
X5432500Y-16377024D01*
X5442024Y-16396071D01*
X5451548Y-16434167D01*
X5451548Y-16481786D01*
X5442024Y-16519881D01*
X5432500Y-16538928D01*
X5422976Y-16548452D01*
X5403929Y-16557976D01*
X5384881Y-16557976D01*
X5365833Y-16548452D01*
X5356310Y-16538928D01*
X5346786Y-16519881D01*
X5337262Y-16481786D01*
X5337262Y-16434167D01*
X5346786Y-16396071D01*
X5356310Y-16377024D01*
X5365833Y-16367500D01*
X5384881Y-16357976D01*
X5537262Y-16557976D02*
X5537262Y-16424643D01*
X5537262Y-16443690D02*
X5546786Y-16434167D01*
X5565833Y-16424643D01*
X5594405Y-16424643D01*
X5613452Y-16434167D01*
X5622976Y-16453214D01*
X5622976Y-16557976D01*
X5622976Y-16453214D02*
X5632500Y-16434167D01*
X5651548Y-16424643D01*
X5680119Y-16424643D01*
X5699167Y-16434167D01*
X5708690Y-16453214D01*
X5708690Y-16557976D01*
X5803928Y-16557976D02*
X5803928Y-16424643D01*
X5803928Y-16443690D02*
X5813452Y-16434167D01*
X5832500Y-16424643D01*
X5861071Y-16424643D01*
X5880119Y-16434167D01*
X5889643Y-16453214D01*
X5889643Y-16557976D01*
X5889643Y-16453214D02*
X5899167Y-16434167D01*
X5918214Y-16424643D01*
X5946786Y-16424643D01*
X5965833Y-16434167D01*
X5975357Y-16453214D01*
X5975357Y-16557976D01*
X6365833Y-16348452D02*
X6194405Y-16605595D01*
X6622976Y-16357976D02*
X6642024Y-16357976D01*
X6661071Y-16367500D01*
X6670595Y-16377024D01*
X6680119Y-16396071D01*
X6689643Y-16434167D01*
X6689643Y-16481786D01*
X6680119Y-16519881D01*
X6670595Y-16538928D01*
X6661071Y-16548452D01*
X6642024Y-16557976D01*
X6622976Y-16557976D01*
X6603928Y-16548452D01*
X6594405Y-16538928D01*
X6584881Y-16519881D01*
X6575357Y-16481786D01*
X6575357Y-16434167D01*
X6584881Y-16396071D01*
X6594405Y-16377024D01*
X6603928Y-16367500D01*
X6622976Y-16357976D01*
X6775357Y-16538928D02*
X6784881Y-16548452D01*
X6775357Y-16557976D01*
X6765833Y-16548452D01*
X6775357Y-16538928D01*
X6775357Y-16557976D01*
X6908690Y-16357976D02*
X6927738Y-16357976D01*
X6946786Y-16367500D01*
X6956309Y-16377024D01*
X6965833Y-16396071D01*
X6975357Y-16434167D01*
X6975357Y-16481786D01*
X6965833Y-16519881D01*
X6956309Y-16538928D01*
X6946786Y-16548452D01*
X6927738Y-16557976D01*
X6908690Y-16557976D01*
X6889643Y-16548452D01*
X6880119Y-16538928D01*
X6870595Y-16519881D01*
X6861071Y-16481786D01*
X6861071Y-16434167D01*
X6870595Y-16396071D01*
X6880119Y-16377024D01*
X6889643Y-16367500D01*
X6908690Y-16357976D01*
X7146786Y-16424643D02*
X7146786Y-16557976D01*
X7099167Y-16348452D02*
X7051548Y-16491309D01*
X7175357Y-16491309D01*
X7232500Y-16357976D02*
X7356309Y-16357976D01*
X7289643Y-16434167D01*
X7318214Y-16434167D01*
X7337262Y-16443690D01*
X7346786Y-16453214D01*
X7356309Y-16472262D01*
X7356309Y-16519881D01*
X7346786Y-16538928D01*
X7337262Y-16548452D01*
X7318214Y-16557976D01*
X7261071Y-16557976D01*
X7242024Y-16548452D01*
X7232500Y-16538928D01*
X7422976Y-16357976D02*
X7546786Y-16357976D01*
X7480119Y-16434167D01*
X7508690Y-16434167D01*
X7527738Y-16443690D01*
X7537262Y-16453214D01*
X7546786Y-16472262D01*
X7546786Y-16519881D01*
X7537262Y-16538928D01*
X7527738Y-16548452D01*
X7508690Y-16557976D01*
X7451548Y-16557976D01*
X7432500Y-16548452D01*
X7422976Y-16538928D01*
X7622976Y-16357976D02*
X7622976Y-16396071D01*
X7699167Y-16357976D02*
X7699167Y-16396071D01*
X7994405Y-16634167D02*
X7984881Y-16624643D01*
X7965833Y-16596071D01*
X7956309Y-16577024D01*
X7946786Y-16548452D01*
X7937262Y-16500833D01*
X7937262Y-16462738D01*
X7946786Y-16415119D01*
X7956309Y-16386548D01*
X7965833Y-16367500D01*
X7984881Y-16338928D01*
X7994405Y-16329405D01*
X8175357Y-16557976D02*
X8061071Y-16557976D01*
X8118214Y-16557976D02*
X8118214Y-16357976D01*
X8099167Y-16386548D01*
X8080119Y-16405595D01*
X8061071Y-16415119D01*
X8413452Y-16557976D02*
X8413452Y-16357976D01*
X8499167Y-16557976D02*
X8499167Y-16453214D01*
X8489643Y-16434167D01*
X8470595Y-16424643D01*
X8442024Y-16424643D01*
X8422976Y-16434167D01*
X8413452Y-16443690D01*
X8622976Y-16557976D02*
X8603929Y-16548452D01*
X8594405Y-16538928D01*
X8584881Y-16519881D01*
X8584881Y-16462738D01*
X8594405Y-16443690D01*
X8603929Y-16434167D01*
X8622976Y-16424643D01*
X8651548Y-16424643D01*
X8670595Y-16434167D01*
X8680119Y-16443690D01*
X8689643Y-16462738D01*
X8689643Y-16519881D01*
X8680119Y-16538928D01*
X8670595Y-16548452D01*
X8651548Y-16557976D01*
X8622976Y-16557976D01*
X8803929Y-16557976D02*
X8784881Y-16548452D01*
X8775357Y-16529405D01*
X8775357Y-16357976D01*
X8956310Y-16548452D02*
X8937262Y-16557976D01*
X8899167Y-16557976D01*
X8880119Y-16548452D01*
X8870595Y-16529405D01*
X8870595Y-16453214D01*
X8880119Y-16434167D01*
X8899167Y-16424643D01*
X8937262Y-16424643D01*
X8956310Y-16434167D01*
X8965833Y-16453214D01*
X8965833Y-16472262D01*
X8870595Y-16491309D01*
X9032500Y-16634167D02*
X9042024Y-16624643D01*
X9061071Y-16596071D01*
X9070595Y-16577024D01*
X9080119Y-16548452D01*
X9089643Y-16500833D01*
X9089643Y-16462738D01*
X9080119Y-16415119D01*
X9070595Y-16386548D01*
X9061071Y-16367500D01*
X9042024Y-16338928D01*
X9032500Y-16329405D01*
X9394405Y-16634167D02*
X9384881Y-16624643D01*
X9365833Y-16596071D01*
X9356310Y-16577024D01*
X9346786Y-16548452D01*
X9337262Y-16500833D01*
X9337262Y-16462738D01*
X9346786Y-16415119D01*
X9356310Y-16386548D01*
X9365833Y-16367500D01*
X9384881Y-16338928D01*
X9394405Y-16329405D01*
X9470595Y-16424643D02*
X9470595Y-16557976D01*
X9470595Y-16443690D02*
X9480119Y-16434167D01*
X9499167Y-16424643D01*
X9527738Y-16424643D01*
X9546786Y-16434167D01*
X9556310Y-16453214D01*
X9556310Y-16557976D01*
X9680119Y-16557976D02*
X9661071Y-16548452D01*
X9651548Y-16538928D01*
X9642024Y-16519881D01*
X9642024Y-16462738D01*
X9651548Y-16443690D01*
X9661071Y-16434167D01*
X9680119Y-16424643D01*
X9708690Y-16424643D01*
X9727738Y-16434167D01*
X9737262Y-16443690D01*
X9746786Y-16462738D01*
X9746786Y-16519881D01*
X9737262Y-16538928D01*
X9727738Y-16548452D01*
X9708690Y-16557976D01*
X9680119Y-16557976D01*
X9803929Y-16424643D02*
X9880119Y-16424643D01*
X9832500Y-16357976D02*
X9832500Y-16529405D01*
X9842024Y-16548452D01*
X9861071Y-16557976D01*
X9880119Y-16557976D01*
X10099167Y-16424643D02*
X10099167Y-16624643D01*
X10099167Y-16434167D02*
X10118214Y-16424643D01*
X10156310Y-16424643D01*
X10175357Y-16434167D01*
X10184881Y-16443690D01*
X10194405Y-16462738D01*
X10194405Y-16519881D01*
X10184881Y-16538928D01*
X10175357Y-16548452D01*
X10156310Y-16557976D01*
X10118214Y-16557976D01*
X10099167Y-16548452D01*
X10308690Y-16557976D02*
X10289643Y-16548452D01*
X10280119Y-16529405D01*
X10280119Y-16357976D01*
X10470595Y-16557976D02*
X10470595Y-16453214D01*
X10461071Y-16434167D01*
X10442024Y-16424643D01*
X10403929Y-16424643D01*
X10384881Y-16434167D01*
X10470595Y-16548452D02*
X10451548Y-16557976D01*
X10403929Y-16557976D01*
X10384881Y-16548452D01*
X10375357Y-16529405D01*
X10375357Y-16510357D01*
X10384881Y-16491309D01*
X10403929Y-16481786D01*
X10451548Y-16481786D01*
X10470595Y-16472262D01*
X10537262Y-16424643D02*
X10613452Y-16424643D01*
X10565833Y-16357976D02*
X10565833Y-16529405D01*
X10575357Y-16548452D01*
X10594405Y-16557976D01*
X10613452Y-16557976D01*
X10756310Y-16548452D02*
X10737262Y-16557976D01*
X10699167Y-16557976D01*
X10680119Y-16548452D01*
X10670595Y-16529405D01*
X10670595Y-16453214D01*
X10680119Y-16434167D01*
X10699167Y-16424643D01*
X10737262Y-16424643D01*
X10756310Y-16434167D01*
X10765833Y-16453214D01*
X10765833Y-16472262D01*
X10670595Y-16491309D01*
X10937262Y-16557976D02*
X10937262Y-16357976D01*
X10937262Y-16548452D02*
X10918214Y-16557976D01*
X10880119Y-16557976D01*
X10861071Y-16548452D01*
X10851548Y-16538928D01*
X10842024Y-16519881D01*
X10842024Y-16462738D01*
X10851548Y-16443690D01*
X10861071Y-16434167D01*
X10880119Y-16424643D01*
X10918214Y-16424643D01*
X10937262Y-16434167D01*
X11013452Y-16634167D02*
X11022976Y-16624643D01*
X11042024Y-16596071D01*
X11051548Y-16577024D01*
X11061071Y-16548452D01*
X11070595Y-16500833D01*
X11070595Y-16462738D01*
X11061071Y-16415119D01*
X11051548Y-16386548D01*
X11042024Y-16367500D01*
X11022976Y-16338928D01*
X11013452Y-16329405D01*
D13*
X4422500Y-16731500D02*
G75*
G03*
X4422500Y-16731500I-80000J0D01*
G01*
D11*
X4784881Y-16821976D02*
X4670595Y-16821976D01*
X4727738Y-16821976D02*
X4727738Y-16621976D01*
X4708690Y-16650548D01*
X4689643Y-16669595D01*
X4670595Y-16679119D01*
X4870595Y-16802929D02*
X4880119Y-16812452D01*
X4870595Y-16821976D01*
X4861071Y-16812452D01*
X4870595Y-16802929D01*
X4870595Y-16821976D01*
X5051548Y-16621976D02*
X5013452Y-16621976D01*
X4994405Y-16631500D01*
X4984881Y-16641024D01*
X4965833Y-16669595D01*
X4956310Y-16707690D01*
X4956310Y-16783881D01*
X4965833Y-16802929D01*
X4975357Y-16812452D01*
X4994405Y-16821976D01*
X5032500Y-16821976D01*
X5051548Y-16812452D01*
X5061071Y-16802929D01*
X5070595Y-16783881D01*
X5070595Y-16736262D01*
X5061071Y-16717214D01*
X5051548Y-16707690D01*
X5032500Y-16698167D01*
X4994405Y-16698167D01*
X4975357Y-16707690D01*
X4965833Y-16717214D01*
X4956310Y-16736262D01*
X5194405Y-16621976D02*
X5213452Y-16621976D01*
X5232500Y-16631500D01*
X5242024Y-16641024D01*
X5251548Y-16660071D01*
X5261071Y-16698167D01*
X5261071Y-16745786D01*
X5251548Y-16783881D01*
X5242024Y-16802929D01*
X5232500Y-16812452D01*
X5213452Y-16821976D01*
X5194405Y-16821976D01*
X5175357Y-16812452D01*
X5165833Y-16802929D01*
X5156310Y-16783881D01*
X5146786Y-16745786D01*
X5146786Y-16698167D01*
X5156310Y-16660071D01*
X5165833Y-16641024D01*
X5175357Y-16631500D01*
X5194405Y-16621976D01*
X5384881Y-16621976D02*
X5403929Y-16621976D01*
X5422976Y-16631500D01*
X5432500Y-16641024D01*
X5442024Y-16660071D01*
X5451548Y-16698167D01*
X5451548Y-16745786D01*
X5442024Y-16783881D01*
X5432500Y-16802929D01*
X5422976Y-16812452D01*
X5403929Y-16821976D01*
X5384881Y-16821976D01*
X5365833Y-16812452D01*
X5356310Y-16802929D01*
X5346786Y-16783881D01*
X5337262Y-16745786D01*
X5337262Y-16698167D01*
X5346786Y-16660071D01*
X5356310Y-16641024D01*
X5365833Y-16631500D01*
X5384881Y-16621976D01*
X5537262Y-16821976D02*
X5537262Y-16688643D01*
X5537262Y-16707690D02*
X5546786Y-16698167D01*
X5565833Y-16688643D01*
X5594405Y-16688643D01*
X5613452Y-16698167D01*
X5622976Y-16717214D01*
X5622976Y-16821976D01*
X5622976Y-16717214D02*
X5632500Y-16698167D01*
X5651548Y-16688643D01*
X5680119Y-16688643D01*
X5699167Y-16698167D01*
X5708690Y-16717214D01*
X5708690Y-16821976D01*
X5803928Y-16821976D02*
X5803928Y-16688643D01*
X5803928Y-16707690D02*
X5813452Y-16698167D01*
X5832500Y-16688643D01*
X5861071Y-16688643D01*
X5880119Y-16698167D01*
X5889643Y-16717214D01*
X5889643Y-16821976D01*
X5889643Y-16717214D02*
X5899167Y-16698167D01*
X5918214Y-16688643D01*
X5946786Y-16688643D01*
X5965833Y-16698167D01*
X5975357Y-16717214D01*
X5975357Y-16821976D01*
X6365833Y-16612452D02*
X6194405Y-16869595D01*
X6622976Y-16621976D02*
X6642024Y-16621976D01*
X6661071Y-16631500D01*
X6670595Y-16641024D01*
X6680119Y-16660071D01*
X6689643Y-16698167D01*
X6689643Y-16745786D01*
X6680119Y-16783881D01*
X6670595Y-16802929D01*
X6661071Y-16812452D01*
X6642024Y-16821976D01*
X6622976Y-16821976D01*
X6603928Y-16812452D01*
X6594405Y-16802929D01*
X6584881Y-16783881D01*
X6575357Y-16745786D01*
X6575357Y-16698167D01*
X6584881Y-16660071D01*
X6594405Y-16641024D01*
X6603928Y-16631500D01*
X6622976Y-16621976D01*
X6775357Y-16802929D02*
X6784881Y-16812452D01*
X6775357Y-16821976D01*
X6765833Y-16812452D01*
X6775357Y-16802929D01*
X6775357Y-16821976D01*
X6908690Y-16621976D02*
X6927738Y-16621976D01*
X6946786Y-16631500D01*
X6956309Y-16641024D01*
X6965833Y-16660071D01*
X6975357Y-16698167D01*
X6975357Y-16745786D01*
X6965833Y-16783881D01*
X6956309Y-16802929D01*
X6946786Y-16812452D01*
X6927738Y-16821976D01*
X6908690Y-16821976D01*
X6889643Y-16812452D01*
X6880119Y-16802929D01*
X6870595Y-16783881D01*
X6861071Y-16745786D01*
X6861071Y-16698167D01*
X6870595Y-16660071D01*
X6880119Y-16641024D01*
X6889643Y-16631500D01*
X6908690Y-16621976D01*
X7146786Y-16621976D02*
X7108690Y-16621976D01*
X7089643Y-16631500D01*
X7080119Y-16641024D01*
X7061071Y-16669595D01*
X7051548Y-16707690D01*
X7051548Y-16783881D01*
X7061071Y-16802929D01*
X7070595Y-16812452D01*
X7089643Y-16821976D01*
X7127738Y-16821976D01*
X7146786Y-16812452D01*
X7156309Y-16802929D01*
X7165833Y-16783881D01*
X7165833Y-16736262D01*
X7156309Y-16717214D01*
X7146786Y-16707690D01*
X7127738Y-16698167D01*
X7089643Y-16698167D01*
X7070595Y-16707690D01*
X7061071Y-16717214D01*
X7051548Y-16736262D01*
X7232500Y-16621976D02*
X7356309Y-16621976D01*
X7289643Y-16698167D01*
X7318214Y-16698167D01*
X7337262Y-16707690D01*
X7346786Y-16717214D01*
X7356309Y-16736262D01*
X7356309Y-16783881D01*
X7346786Y-16802929D01*
X7337262Y-16812452D01*
X7318214Y-16821976D01*
X7261071Y-16821976D01*
X7242024Y-16812452D01*
X7232500Y-16802929D01*
X7480119Y-16621976D02*
X7499167Y-16621976D01*
X7518214Y-16631500D01*
X7527738Y-16641024D01*
X7537262Y-16660071D01*
X7546786Y-16698167D01*
X7546786Y-16745786D01*
X7537262Y-16783881D01*
X7527738Y-16802929D01*
X7518214Y-16812452D01*
X7499167Y-16821976D01*
X7480119Y-16821976D01*
X7461071Y-16812452D01*
X7451548Y-16802929D01*
X7442024Y-16783881D01*
X7432500Y-16745786D01*
X7432500Y-16698167D01*
X7442024Y-16660071D01*
X7451548Y-16641024D01*
X7461071Y-16631500D01*
X7480119Y-16621976D01*
X7622976Y-16621976D02*
X7622976Y-16660071D01*
X7699167Y-16621976D02*
X7699167Y-16660071D01*
X7994405Y-16898167D02*
X7984881Y-16888643D01*
X7965833Y-16860071D01*
X7956309Y-16841024D01*
X7946786Y-16812452D01*
X7937262Y-16764833D01*
X7937262Y-16726738D01*
X7946786Y-16679119D01*
X7956309Y-16650548D01*
X7965833Y-16631500D01*
X7984881Y-16602928D01*
X7994405Y-16593405D01*
X8175357Y-16821976D02*
X8061071Y-16821976D01*
X8118214Y-16821976D02*
X8118214Y-16621976D01*
X8099167Y-16650548D01*
X8080119Y-16669595D01*
X8061071Y-16679119D01*
X8413452Y-16821976D02*
X8413452Y-16621976D01*
X8499167Y-16821976D02*
X8499167Y-16717214D01*
X8489643Y-16698167D01*
X8470595Y-16688643D01*
X8442024Y-16688643D01*
X8422976Y-16698167D01*
X8413452Y-16707690D01*
X8622976Y-16821976D02*
X8603929Y-16812452D01*
X8594405Y-16802929D01*
X8584881Y-16783881D01*
X8584881Y-16726738D01*
X8594405Y-16707690D01*
X8603929Y-16698167D01*
X8622976Y-16688643D01*
X8651548Y-16688643D01*
X8670595Y-16698167D01*
X8680119Y-16707690D01*
X8689643Y-16726738D01*
X8689643Y-16783881D01*
X8680119Y-16802929D01*
X8670595Y-16812452D01*
X8651548Y-16821976D01*
X8622976Y-16821976D01*
X8803929Y-16821976D02*
X8784881Y-16812452D01*
X8775357Y-16793405D01*
X8775357Y-16621976D01*
X8956310Y-16812452D02*
X8937262Y-16821976D01*
X8899167Y-16821976D01*
X8880119Y-16812452D01*
X8870595Y-16793405D01*
X8870595Y-16717214D01*
X8880119Y-16698167D01*
X8899167Y-16688643D01*
X8937262Y-16688643D01*
X8956310Y-16698167D01*
X8965833Y-16717214D01*
X8965833Y-16736262D01*
X8870595Y-16755309D01*
X9032500Y-16898167D02*
X9042024Y-16888643D01*
X9061071Y-16860071D01*
X9070595Y-16841024D01*
X9080119Y-16812452D01*
X9089643Y-16764833D01*
X9089643Y-16726738D01*
X9080119Y-16679119D01*
X9070595Y-16650548D01*
X9061071Y-16631500D01*
X9042024Y-16602928D01*
X9032500Y-16593405D01*
X9394405Y-16898167D02*
X9384881Y-16888643D01*
X9365833Y-16860071D01*
X9356310Y-16841024D01*
X9346786Y-16812452D01*
X9337262Y-16764833D01*
X9337262Y-16726738D01*
X9346786Y-16679119D01*
X9356310Y-16650548D01*
X9365833Y-16631500D01*
X9384881Y-16602928D01*
X9394405Y-16593405D01*
X9470595Y-16688643D02*
X9470595Y-16821976D01*
X9470595Y-16707690D02*
X9480119Y-16698167D01*
X9499167Y-16688643D01*
X9527738Y-16688643D01*
X9546786Y-16698167D01*
X9556310Y-16717214D01*
X9556310Y-16821976D01*
X9680119Y-16821976D02*
X9661071Y-16812452D01*
X9651548Y-16802929D01*
X9642024Y-16783881D01*
X9642024Y-16726738D01*
X9651548Y-16707690D01*
X9661071Y-16698167D01*
X9680119Y-16688643D01*
X9708690Y-16688643D01*
X9727738Y-16698167D01*
X9737262Y-16707690D01*
X9746786Y-16726738D01*
X9746786Y-16783881D01*
X9737262Y-16802929D01*
X9727738Y-16812452D01*
X9708690Y-16821976D01*
X9680119Y-16821976D01*
X9803929Y-16688643D02*
X9880119Y-16688643D01*
X9832500Y-16621976D02*
X9832500Y-16793405D01*
X9842024Y-16812452D01*
X9861071Y-16821976D01*
X9880119Y-16821976D01*
X10099167Y-16688643D02*
X10099167Y-16888643D01*
X10099167Y-16698167D02*
X10118214Y-16688643D01*
X10156310Y-16688643D01*
X10175357Y-16698167D01*
X10184881Y-16707690D01*
X10194405Y-16726738D01*
X10194405Y-16783881D01*
X10184881Y-16802929D01*
X10175357Y-16812452D01*
X10156310Y-16821976D01*
X10118214Y-16821976D01*
X10099167Y-16812452D01*
X10308690Y-16821976D02*
X10289643Y-16812452D01*
X10280119Y-16793405D01*
X10280119Y-16621976D01*
X10470595Y-16821976D02*
X10470595Y-16717214D01*
X10461071Y-16698167D01*
X10442024Y-16688643D01*
X10403929Y-16688643D01*
X10384881Y-16698167D01*
X10470595Y-16812452D02*
X10451548Y-16821976D01*
X10403929Y-16821976D01*
X10384881Y-16812452D01*
X10375357Y-16793405D01*
X10375357Y-16774357D01*
X10384881Y-16755309D01*
X10403929Y-16745786D01*
X10451548Y-16745786D01*
X10470595Y-16736262D01*
X10537262Y-16688643D02*
X10613452Y-16688643D01*
X10565833Y-16621976D02*
X10565833Y-16793405D01*
X10575357Y-16812452D01*
X10594405Y-16821976D01*
X10613452Y-16821976D01*
X10756310Y-16812452D02*
X10737262Y-16821976D01*
X10699167Y-16821976D01*
X10680119Y-16812452D01*
X10670595Y-16793405D01*
X10670595Y-16717214D01*
X10680119Y-16698167D01*
X10699167Y-16688643D01*
X10737262Y-16688643D01*
X10756310Y-16698167D01*
X10765833Y-16717214D01*
X10765833Y-16736262D01*
X10670595Y-16755309D01*
X10937262Y-16821976D02*
X10937262Y-16621976D01*
X10937262Y-16812452D02*
X10918214Y-16821976D01*
X10880119Y-16821976D01*
X10861071Y-16812452D01*
X10851548Y-16802929D01*
X10842024Y-16783881D01*
X10842024Y-16726738D01*
X10851548Y-16707690D01*
X10861071Y-16698167D01*
X10880119Y-16688643D01*
X10918214Y-16688643D01*
X10937262Y-16698167D01*
X11013452Y-16898167D02*
X11022976Y-16888643D01*
X11042024Y-16860071D01*
X11051548Y-16841024D01*
X11061071Y-16812452D01*
X11070595Y-16764833D01*
X11070595Y-16726738D01*
X11061071Y-16679119D01*
X11051548Y-16650548D01*
X11042024Y-16631500D01*
X11022976Y-16602928D01*
X11013452Y-16593405D01*
X4322500Y-16911500D02*
X4322500Y-17111500D01*
X4222500Y-17011500D02*
X4422500Y-17011500D01*
X4670595Y-16921024D02*
X4680119Y-16911500D01*
X4699167Y-16901976D01*
X4746786Y-16901976D01*
X4765833Y-16911500D01*
X4775357Y-16921024D01*
X4784881Y-16940071D01*
X4784881Y-16959119D01*
X4775357Y-16987690D01*
X4661071Y-17101976D01*
X4784881Y-17101976D01*
X4870595Y-17082929D02*
X4880119Y-17092452D01*
X4870595Y-17101976D01*
X4861071Y-17092452D01*
X4870595Y-17082929D01*
X4870595Y-17101976D01*
X4946786Y-16901976D02*
X5070595Y-16901976D01*
X5003929Y-16978167D01*
X5032500Y-16978167D01*
X5051548Y-16987690D01*
X5061071Y-16997214D01*
X5070595Y-17016262D01*
X5070595Y-17063881D01*
X5061071Y-17082929D01*
X5051548Y-17092452D01*
X5032500Y-17101976D01*
X4975357Y-17101976D01*
X4956310Y-17092452D01*
X4946786Y-17082929D01*
X5194405Y-16901976D02*
X5213452Y-16901976D01*
X5232500Y-16911500D01*
X5242024Y-16921024D01*
X5251548Y-16940071D01*
X5261071Y-16978167D01*
X5261071Y-17025786D01*
X5251548Y-17063881D01*
X5242024Y-17082929D01*
X5232500Y-17092452D01*
X5213452Y-17101976D01*
X5194405Y-17101976D01*
X5175357Y-17092452D01*
X5165833Y-17082929D01*
X5156310Y-17063881D01*
X5146786Y-17025786D01*
X5146786Y-16978167D01*
X5156310Y-16940071D01*
X5165833Y-16921024D01*
X5175357Y-16911500D01*
X5194405Y-16901976D01*
X5384881Y-16901976D02*
X5403929Y-16901976D01*
X5422976Y-16911500D01*
X5432500Y-16921024D01*
X5442024Y-16940071D01*
X5451548Y-16978167D01*
X5451548Y-17025786D01*
X5442024Y-17063881D01*
X5432500Y-17082929D01*
X5422976Y-17092452D01*
X5403929Y-17101976D01*
X5384881Y-17101976D01*
X5365833Y-17092452D01*
X5356310Y-17082929D01*
X5346786Y-17063881D01*
X5337262Y-17025786D01*
X5337262Y-16978167D01*
X5346786Y-16940071D01*
X5356310Y-16921024D01*
X5365833Y-16911500D01*
X5384881Y-16901976D01*
X5537262Y-17101976D02*
X5537262Y-16968643D01*
X5537262Y-16987690D02*
X5546786Y-16978167D01*
X5565833Y-16968643D01*
X5594405Y-16968643D01*
X5613452Y-16978167D01*
X5622976Y-16997214D01*
X5622976Y-17101976D01*
X5622976Y-16997214D02*
X5632500Y-16978167D01*
X5651548Y-16968643D01*
X5680119Y-16968643D01*
X5699167Y-16978167D01*
X5708690Y-16997214D01*
X5708690Y-17101976D01*
X5803928Y-17101976D02*
X5803928Y-16968643D01*
X5803928Y-16987690D02*
X5813452Y-16978167D01*
X5832500Y-16968643D01*
X5861071Y-16968643D01*
X5880119Y-16978167D01*
X5889643Y-16997214D01*
X5889643Y-17101976D01*
X5889643Y-16997214D02*
X5899167Y-16978167D01*
X5918214Y-16968643D01*
X5946786Y-16968643D01*
X5965833Y-16978167D01*
X5975357Y-16997214D01*
X5975357Y-17101976D01*
X6365833Y-16892452D02*
X6194405Y-17149595D01*
X6622976Y-16901976D02*
X6642024Y-16901976D01*
X6661071Y-16911500D01*
X6670595Y-16921024D01*
X6680119Y-16940071D01*
X6689643Y-16978167D01*
X6689643Y-17025786D01*
X6680119Y-17063881D01*
X6670595Y-17082929D01*
X6661071Y-17092452D01*
X6642024Y-17101976D01*
X6622976Y-17101976D01*
X6603928Y-17092452D01*
X6594405Y-17082929D01*
X6584881Y-17063881D01*
X6575357Y-17025786D01*
X6575357Y-16978167D01*
X6584881Y-16940071D01*
X6594405Y-16921024D01*
X6603928Y-16911500D01*
X6622976Y-16901976D01*
X6775357Y-17082929D02*
X6784881Y-17092452D01*
X6775357Y-17101976D01*
X6765833Y-17092452D01*
X6775357Y-17082929D01*
X6775357Y-17101976D01*
X6908690Y-16901976D02*
X6927738Y-16901976D01*
X6946786Y-16911500D01*
X6956309Y-16921024D01*
X6965833Y-16940071D01*
X6975357Y-16978167D01*
X6975357Y-17025786D01*
X6965833Y-17063881D01*
X6956309Y-17082929D01*
X6946786Y-17092452D01*
X6927738Y-17101976D01*
X6908690Y-17101976D01*
X6889643Y-17092452D01*
X6880119Y-17082929D01*
X6870595Y-17063881D01*
X6861071Y-17025786D01*
X6861071Y-16978167D01*
X6870595Y-16940071D01*
X6880119Y-16921024D01*
X6889643Y-16911500D01*
X6908690Y-16901976D01*
X7070595Y-17101976D02*
X7108690Y-17101976D01*
X7127738Y-17092452D01*
X7137262Y-17082929D01*
X7156309Y-17054357D01*
X7165833Y-17016262D01*
X7165833Y-16940071D01*
X7156309Y-16921024D01*
X7146786Y-16911500D01*
X7127738Y-16901976D01*
X7089643Y-16901976D01*
X7070595Y-16911500D01*
X7061071Y-16921024D01*
X7051548Y-16940071D01*
X7051548Y-16987690D01*
X7061071Y-17006738D01*
X7070595Y-17016262D01*
X7089643Y-17025786D01*
X7127738Y-17025786D01*
X7146786Y-17016262D01*
X7156309Y-17006738D01*
X7165833Y-16987690D01*
X7289643Y-16901976D02*
X7308690Y-16901976D01*
X7327738Y-16911500D01*
X7337262Y-16921024D01*
X7346786Y-16940071D01*
X7356309Y-16978167D01*
X7356309Y-17025786D01*
X7346786Y-17063881D01*
X7337262Y-17082929D01*
X7327738Y-17092452D01*
X7308690Y-17101976D01*
X7289643Y-17101976D01*
X7270595Y-17092452D01*
X7261071Y-17082929D01*
X7251548Y-17063881D01*
X7242024Y-17025786D01*
X7242024Y-16978167D01*
X7251548Y-16940071D01*
X7261071Y-16921024D01*
X7270595Y-16911500D01*
X7289643Y-16901976D01*
X7527738Y-16901976D02*
X7489643Y-16901976D01*
X7470595Y-16911500D01*
X7461071Y-16921024D01*
X7442024Y-16949595D01*
X7432500Y-16987690D01*
X7432500Y-17063881D01*
X7442024Y-17082929D01*
X7451548Y-17092452D01*
X7470595Y-17101976D01*
X7508690Y-17101976D01*
X7527738Y-17092452D01*
X7537262Y-17082929D01*
X7546786Y-17063881D01*
X7546786Y-17016262D01*
X7537262Y-16997214D01*
X7527738Y-16987690D01*
X7508690Y-16978167D01*
X7470595Y-16978167D01*
X7451548Y-16987690D01*
X7442024Y-16997214D01*
X7432500Y-17016262D01*
X7622976Y-16901976D02*
X7622976Y-16940071D01*
X7699167Y-16901976D02*
X7699167Y-16940071D01*
X7994405Y-17178167D02*
X7984881Y-17168643D01*
X7965833Y-17140071D01*
X7956309Y-17121024D01*
X7946786Y-17092452D01*
X7937262Y-17044833D01*
X7937262Y-17006738D01*
X7946786Y-16959119D01*
X7956309Y-16930548D01*
X7965833Y-16911500D01*
X7984881Y-16882929D01*
X7994405Y-16873405D01*
X8061071Y-16921024D02*
X8070595Y-16911500D01*
X8089643Y-16901976D01*
X8137262Y-16901976D01*
X8156309Y-16911500D01*
X8165833Y-16921024D01*
X8175357Y-16940071D01*
X8175357Y-16959119D01*
X8165833Y-16987690D01*
X8051548Y-17101976D01*
X8175357Y-17101976D01*
X8413452Y-17101976D02*
X8413452Y-16901976D01*
X8499167Y-17101976D02*
X8499167Y-16997214D01*
X8489643Y-16978167D01*
X8470595Y-16968643D01*
X8442024Y-16968643D01*
X8422976Y-16978167D01*
X8413452Y-16987690D01*
X8622976Y-17101976D02*
X8603929Y-17092452D01*
X8594405Y-17082929D01*
X8584881Y-17063881D01*
X8584881Y-17006738D01*
X8594405Y-16987690D01*
X8603929Y-16978167D01*
X8622976Y-16968643D01*
X8651548Y-16968643D01*
X8670595Y-16978167D01*
X8680119Y-16987690D01*
X8689643Y-17006738D01*
X8689643Y-17063881D01*
X8680119Y-17082929D01*
X8670595Y-17092452D01*
X8651548Y-17101976D01*
X8622976Y-17101976D01*
X8803929Y-17101976D02*
X8784881Y-17092452D01*
X8775357Y-17073405D01*
X8775357Y-16901976D01*
X8956310Y-17092452D02*
X8937262Y-17101976D01*
X8899167Y-17101976D01*
X8880119Y-17092452D01*
X8870595Y-17073405D01*
X8870595Y-16997214D01*
X8880119Y-16978167D01*
X8899167Y-16968643D01*
X8937262Y-16968643D01*
X8956310Y-16978167D01*
X8965833Y-16997214D01*
X8965833Y-17016262D01*
X8870595Y-17035310D01*
X9042024Y-17092452D02*
X9061071Y-17101976D01*
X9099167Y-17101976D01*
X9118214Y-17092452D01*
X9127738Y-17073405D01*
X9127738Y-17063881D01*
X9118214Y-17044833D01*
X9099167Y-17035310D01*
X9070595Y-17035310D01*
X9051548Y-17025786D01*
X9042024Y-17006738D01*
X9042024Y-16997214D01*
X9051548Y-16978167D01*
X9070595Y-16968643D01*
X9099167Y-16968643D01*
X9118214Y-16978167D01*
X9194405Y-17178167D02*
X9203929Y-17168643D01*
X9222976Y-17140071D01*
X9232500Y-17121024D01*
X9242024Y-17092452D01*
X9251548Y-17044833D01*
X9251548Y-17006738D01*
X9242024Y-16959119D01*
X9232500Y-16930548D01*
X9222976Y-16911500D01*
X9203929Y-16882929D01*
X9194405Y-16873405D01*
X9556310Y-17178167D02*
X9546786Y-17168643D01*
X9527738Y-17140071D01*
X9518214Y-17121024D01*
X9508690Y-17092452D01*
X9499167Y-17044833D01*
X9499167Y-17006738D01*
X9508690Y-16959119D01*
X9518214Y-16930548D01*
X9527738Y-16911500D01*
X9546786Y-16882929D01*
X9556310Y-16873405D01*
X9632500Y-16968643D02*
X9632500Y-17101976D01*
X9632500Y-16987690D02*
X9642024Y-16978167D01*
X9661071Y-16968643D01*
X9689643Y-16968643D01*
X9708690Y-16978167D01*
X9718214Y-16997214D01*
X9718214Y-17101976D01*
X9842024Y-17101976D02*
X9822976Y-17092452D01*
X9813452Y-17082929D01*
X9803929Y-17063881D01*
X9803929Y-17006738D01*
X9813452Y-16987690D01*
X9822976Y-16978167D01*
X9842024Y-16968643D01*
X9870595Y-16968643D01*
X9889643Y-16978167D01*
X9899167Y-16987690D01*
X9908690Y-17006738D01*
X9908690Y-17063881D01*
X9899167Y-17082929D01*
X9889643Y-17092452D01*
X9870595Y-17101976D01*
X9842024Y-17101976D01*
X9965833Y-16968643D02*
X10042024Y-16968643D01*
X9994405Y-16901976D02*
X9994405Y-17073405D01*
X10003929Y-17092452D01*
X10022976Y-17101976D01*
X10042024Y-17101976D01*
X10261071Y-16968643D02*
X10261071Y-17168643D01*
X10261071Y-16978167D02*
X10280119Y-16968643D01*
X10318214Y-16968643D01*
X10337262Y-16978167D01*
X10346786Y-16987690D01*
X10356310Y-17006738D01*
X10356310Y-17063881D01*
X10346786Y-17082929D01*
X10337262Y-17092452D01*
X10318214Y-17101976D01*
X10280119Y-17101976D01*
X10261071Y-17092452D01*
X10470595Y-17101976D02*
X10451548Y-17092452D01*
X10442024Y-17073405D01*
X10442024Y-16901976D01*
X10632500Y-17101976D02*
X10632500Y-16997214D01*
X10622976Y-16978167D01*
X10603929Y-16968643D01*
X10565833Y-16968643D01*
X10546786Y-16978167D01*
X10632500Y-17092452D02*
X10613452Y-17101976D01*
X10565833Y-17101976D01*
X10546786Y-17092452D01*
X10537262Y-17073405D01*
X10537262Y-17054357D01*
X10546786Y-17035310D01*
X10565833Y-17025786D01*
X10613452Y-17025786D01*
X10632500Y-17016262D01*
X10699167Y-16968643D02*
X10775357Y-16968643D01*
X10727738Y-16901976D02*
X10727738Y-17073405D01*
X10737262Y-17092452D01*
X10756310Y-17101976D01*
X10775357Y-17101976D01*
X10918214Y-17092452D02*
X10899167Y-17101976D01*
X10861071Y-17101976D01*
X10842024Y-17092452D01*
X10832500Y-17073405D01*
X10832500Y-16997214D01*
X10842024Y-16978167D01*
X10861071Y-16968643D01*
X10899167Y-16968643D01*
X10918214Y-16978167D01*
X10927738Y-16997214D01*
X10927738Y-17016262D01*
X10832500Y-17035310D01*
X11099167Y-17101976D02*
X11099167Y-16901976D01*
X11099167Y-17092452D02*
X11080119Y-17101976D01*
X11042024Y-17101976D01*
X11022976Y-17092452D01*
X11013452Y-17082929D01*
X11003929Y-17063881D01*
X11003929Y-17006738D01*
X11013452Y-16987690D01*
X11022976Y-16978167D01*
X11042024Y-16968643D01*
X11080119Y-16968643D01*
X11099167Y-16978167D01*
X11175357Y-17178167D02*
X11184881Y-17168643D01*
X11203928Y-17140071D01*
X11213452Y-17121024D01*
X11222976Y-17092452D01*
X11232500Y-17044833D01*
X11232500Y-17006738D01*
X11222976Y-16959119D01*
X11213452Y-16930548D01*
X11203928Y-16911500D01*
X11184881Y-16882929D01*
X11175357Y-16873405D01*
X4393211Y-17402211D02*
X4393211Y-17260789D01*
X4251789Y-17260789D01*
X4251789Y-17402211D01*
X4393211Y-17402211D01*
X4670595Y-17241024D02*
X4680119Y-17231500D01*
X4699167Y-17221976D01*
X4746786Y-17221976D01*
X4765833Y-17231500D01*
X4775357Y-17241024D01*
X4784881Y-17260071D01*
X4784881Y-17279119D01*
X4775357Y-17307690D01*
X4661071Y-17421976D01*
X4784881Y-17421976D01*
X4870595Y-17402929D02*
X4880119Y-17412452D01*
X4870595Y-17421976D01*
X4861071Y-17412452D01*
X4870595Y-17402929D01*
X4870595Y-17421976D01*
X5061071Y-17221976D02*
X4965833Y-17221976D01*
X4956310Y-17317214D01*
X4965833Y-17307690D01*
X4984881Y-17298167D01*
X5032500Y-17298167D01*
X5051548Y-17307690D01*
X5061071Y-17317214D01*
X5070595Y-17336262D01*
X5070595Y-17383881D01*
X5061071Y-17402929D01*
X5051548Y-17412452D01*
X5032500Y-17421976D01*
X4984881Y-17421976D01*
X4965833Y-17412452D01*
X4956310Y-17402929D01*
X5194405Y-17221976D02*
X5213452Y-17221976D01*
X5232500Y-17231500D01*
X5242024Y-17241024D01*
X5251548Y-17260071D01*
X5261071Y-17298167D01*
X5261071Y-17345786D01*
X5251548Y-17383881D01*
X5242024Y-17402929D01*
X5232500Y-17412452D01*
X5213452Y-17421976D01*
X5194405Y-17421976D01*
X5175357Y-17412452D01*
X5165833Y-17402929D01*
X5156310Y-17383881D01*
X5146786Y-17345786D01*
X5146786Y-17298167D01*
X5156310Y-17260071D01*
X5165833Y-17241024D01*
X5175357Y-17231500D01*
X5194405Y-17221976D01*
X5384881Y-17221976D02*
X5403929Y-17221976D01*
X5422976Y-17231500D01*
X5432500Y-17241024D01*
X5442024Y-17260071D01*
X5451548Y-17298167D01*
X5451548Y-17345786D01*
X5442024Y-17383881D01*
X5432500Y-17402929D01*
X5422976Y-17412452D01*
X5403929Y-17421976D01*
X5384881Y-17421976D01*
X5365833Y-17412452D01*
X5356310Y-17402929D01*
X5346786Y-17383881D01*
X5337262Y-17345786D01*
X5337262Y-17298167D01*
X5346786Y-17260071D01*
X5356310Y-17241024D01*
X5365833Y-17231500D01*
X5384881Y-17221976D01*
X5537262Y-17421976D02*
X5537262Y-17288643D01*
X5537262Y-17307690D02*
X5546786Y-17298167D01*
X5565833Y-17288643D01*
X5594405Y-17288643D01*
X5613452Y-17298167D01*
X5622976Y-17317214D01*
X5622976Y-17421976D01*
X5622976Y-17317214D02*
X5632500Y-17298167D01*
X5651548Y-17288643D01*
X5680119Y-17288643D01*
X5699167Y-17298167D01*
X5708690Y-17317214D01*
X5708690Y-17421976D01*
X5803928Y-17421976D02*
X5803928Y-17288643D01*
X5803928Y-17307690D02*
X5813452Y-17298167D01*
X5832500Y-17288643D01*
X5861071Y-17288643D01*
X5880119Y-17298167D01*
X5889643Y-17317214D01*
X5889643Y-17421976D01*
X5889643Y-17317214D02*
X5899167Y-17298167D01*
X5918214Y-17288643D01*
X5946786Y-17288643D01*
X5965833Y-17298167D01*
X5975357Y-17317214D01*
X5975357Y-17421976D01*
X6365833Y-17212452D02*
X6194405Y-17469595D01*
X6622976Y-17221976D02*
X6642024Y-17221976D01*
X6661071Y-17231500D01*
X6670595Y-17241024D01*
X6680119Y-17260071D01*
X6689643Y-17298167D01*
X6689643Y-17345786D01*
X6680119Y-17383881D01*
X6670595Y-17402929D01*
X6661071Y-17412452D01*
X6642024Y-17421976D01*
X6622976Y-17421976D01*
X6603928Y-17412452D01*
X6594405Y-17402929D01*
X6584881Y-17383881D01*
X6575357Y-17345786D01*
X6575357Y-17298167D01*
X6584881Y-17260071D01*
X6594405Y-17241024D01*
X6603928Y-17231500D01*
X6622976Y-17221976D01*
X6775357Y-17402929D02*
X6784881Y-17412452D01*
X6775357Y-17421976D01*
X6765833Y-17412452D01*
X6775357Y-17402929D01*
X6775357Y-17421976D01*
X6908690Y-17221976D02*
X6927738Y-17221976D01*
X6946786Y-17231500D01*
X6956309Y-17241024D01*
X6965833Y-17260071D01*
X6975357Y-17298167D01*
X6975357Y-17345786D01*
X6965833Y-17383881D01*
X6956309Y-17402929D01*
X6946786Y-17412452D01*
X6927738Y-17421976D01*
X6908690Y-17421976D01*
X6889643Y-17412452D01*
X6880119Y-17402929D01*
X6870595Y-17383881D01*
X6861071Y-17345786D01*
X6861071Y-17298167D01*
X6870595Y-17260071D01*
X6880119Y-17241024D01*
X6889643Y-17231500D01*
X6908690Y-17221976D01*
X7070595Y-17421976D02*
X7108690Y-17421976D01*
X7127738Y-17412452D01*
X7137262Y-17402929D01*
X7156309Y-17374357D01*
X7165833Y-17336262D01*
X7165833Y-17260071D01*
X7156309Y-17241024D01*
X7146786Y-17231500D01*
X7127738Y-17221976D01*
X7089643Y-17221976D01*
X7070595Y-17231500D01*
X7061071Y-17241024D01*
X7051548Y-17260071D01*
X7051548Y-17307690D01*
X7061071Y-17326738D01*
X7070595Y-17336262D01*
X7089643Y-17345786D01*
X7127738Y-17345786D01*
X7146786Y-17336262D01*
X7156309Y-17326738D01*
X7165833Y-17307690D01*
X7280119Y-17307690D02*
X7261071Y-17298167D01*
X7251548Y-17288643D01*
X7242024Y-17269595D01*
X7242024Y-17260071D01*
X7251548Y-17241024D01*
X7261071Y-17231500D01*
X7280119Y-17221976D01*
X7318214Y-17221976D01*
X7337262Y-17231500D01*
X7346786Y-17241024D01*
X7356309Y-17260071D01*
X7356309Y-17269595D01*
X7346786Y-17288643D01*
X7337262Y-17298167D01*
X7318214Y-17307690D01*
X7280119Y-17307690D01*
X7261071Y-17317214D01*
X7251548Y-17326738D01*
X7242024Y-17345786D01*
X7242024Y-17383881D01*
X7251548Y-17402929D01*
X7261071Y-17412452D01*
X7280119Y-17421976D01*
X7318214Y-17421976D01*
X7337262Y-17412452D01*
X7346786Y-17402929D01*
X7356309Y-17383881D01*
X7356309Y-17345786D01*
X7346786Y-17326738D01*
X7337262Y-17317214D01*
X7318214Y-17307690D01*
X7527738Y-17288643D02*
X7527738Y-17421976D01*
X7480119Y-17212452D02*
X7432500Y-17355310D01*
X7556309Y-17355310D01*
X7622976Y-17221976D02*
X7622976Y-17260071D01*
X7699167Y-17221976D02*
X7699167Y-17260071D01*
X7994405Y-17498167D02*
X7984881Y-17488643D01*
X7965833Y-17460071D01*
X7956309Y-17441024D01*
X7946786Y-17412452D01*
X7937262Y-17364833D01*
X7937262Y-17326738D01*
X7946786Y-17279119D01*
X7956309Y-17250548D01*
X7965833Y-17231500D01*
X7984881Y-17202929D01*
X7994405Y-17193405D01*
X8175357Y-17421976D02*
X8061071Y-17421976D01*
X8118214Y-17421976D02*
X8118214Y-17221976D01*
X8099167Y-17250548D01*
X8080119Y-17269595D01*
X8061071Y-17279119D01*
X8346786Y-17221976D02*
X8308690Y-17221976D01*
X8289643Y-17231500D01*
X8280119Y-17241024D01*
X8261071Y-17269595D01*
X8251548Y-17307690D01*
X8251548Y-17383881D01*
X8261071Y-17402929D01*
X8270595Y-17412452D01*
X8289643Y-17421976D01*
X8327738Y-17421976D01*
X8346786Y-17412452D01*
X8356309Y-17402929D01*
X8365833Y-17383881D01*
X8365833Y-17336262D01*
X8356309Y-17317214D01*
X8346786Y-17307690D01*
X8327738Y-17298167D01*
X8289643Y-17298167D01*
X8270595Y-17307690D01*
X8261071Y-17317214D01*
X8251548Y-17336262D01*
X8603929Y-17421976D02*
X8603929Y-17221976D01*
X8689643Y-17421976D02*
X8689643Y-17317214D01*
X8680119Y-17298167D01*
X8661071Y-17288643D01*
X8632500Y-17288643D01*
X8613452Y-17298167D01*
X8603929Y-17307690D01*
X8813452Y-17421976D02*
X8794405Y-17412452D01*
X8784881Y-17402929D01*
X8775357Y-17383881D01*
X8775357Y-17326738D01*
X8784881Y-17307690D01*
X8794405Y-17298167D01*
X8813452Y-17288643D01*
X8842024Y-17288643D01*
X8861071Y-17298167D01*
X8870595Y-17307690D01*
X8880119Y-17326738D01*
X8880119Y-17383881D01*
X8870595Y-17402929D01*
X8861071Y-17412452D01*
X8842024Y-17421976D01*
X8813452Y-17421976D01*
X8994405Y-17421976D02*
X8975357Y-17412452D01*
X8965833Y-17393405D01*
X8965833Y-17221976D01*
X9146786Y-17412452D02*
X9127738Y-17421976D01*
X9089643Y-17421976D01*
X9070595Y-17412452D01*
X9061071Y-17393405D01*
X9061071Y-17317214D01*
X9070595Y-17298167D01*
X9089643Y-17288643D01*
X9127738Y-17288643D01*
X9146786Y-17298167D01*
X9156310Y-17317214D01*
X9156310Y-17336262D01*
X9061071Y-17355310D01*
X9232500Y-17412452D02*
X9251548Y-17421976D01*
X9289643Y-17421976D01*
X9308690Y-17412452D01*
X9318214Y-17393405D01*
X9318214Y-17383881D01*
X9308690Y-17364833D01*
X9289643Y-17355310D01*
X9261071Y-17355310D01*
X9242024Y-17345786D01*
X9232500Y-17326738D01*
X9232500Y-17317214D01*
X9242024Y-17298167D01*
X9261071Y-17288643D01*
X9289643Y-17288643D01*
X9308690Y-17298167D01*
X9384881Y-17498167D02*
X9394405Y-17488643D01*
X9413452Y-17460071D01*
X9422976Y-17441024D01*
X9432500Y-17412452D01*
X9442024Y-17364833D01*
X9442024Y-17326738D01*
X9432500Y-17279119D01*
X9422976Y-17250548D01*
X9413452Y-17231500D01*
X9394405Y-17202929D01*
X9384881Y-17193405D01*
X9746786Y-17498167D02*
X9737262Y-17488643D01*
X9718214Y-17460071D01*
X9708690Y-17441024D01*
X9699167Y-17412452D01*
X9689643Y-17364833D01*
X9689643Y-17326738D01*
X9699167Y-17279119D01*
X9708690Y-17250548D01*
X9718214Y-17231500D01*
X9737262Y-17202929D01*
X9746786Y-17193405D01*
X9822976Y-17288643D02*
X9822976Y-17421976D01*
X9822976Y-17307690D02*
X9832500Y-17298167D01*
X9851548Y-17288643D01*
X9880119Y-17288643D01*
X9899167Y-17298167D01*
X9908690Y-17317214D01*
X9908690Y-17421976D01*
X10032500Y-17421976D02*
X10013452Y-17412452D01*
X10003929Y-17402929D01*
X9994405Y-17383881D01*
X9994405Y-17326738D01*
X10003929Y-17307690D01*
X10013452Y-17298167D01*
X10032500Y-17288643D01*
X10061071Y-17288643D01*
X10080119Y-17298167D01*
X10089643Y-17307690D01*
X10099167Y-17326738D01*
X10099167Y-17383881D01*
X10089643Y-17402929D01*
X10080119Y-17412452D01*
X10061071Y-17421976D01*
X10032500Y-17421976D01*
X10156310Y-17288643D02*
X10232500Y-17288643D01*
X10184881Y-17221976D02*
X10184881Y-17393405D01*
X10194405Y-17412452D01*
X10213452Y-17421976D01*
X10232500Y-17421976D01*
X10451548Y-17288643D02*
X10451548Y-17488643D01*
X10451548Y-17298167D02*
X10470595Y-17288643D01*
X10508690Y-17288643D01*
X10527738Y-17298167D01*
X10537262Y-17307690D01*
X10546786Y-17326738D01*
X10546786Y-17383881D01*
X10537262Y-17402929D01*
X10527738Y-17412452D01*
X10508690Y-17421976D01*
X10470595Y-17421976D01*
X10451548Y-17412452D01*
X10661071Y-17421976D02*
X10642024Y-17412452D01*
X10632500Y-17393405D01*
X10632500Y-17221976D01*
X10822976Y-17421976D02*
X10822976Y-17317214D01*
X10813452Y-17298167D01*
X10794405Y-17288643D01*
X10756310Y-17288643D01*
X10737262Y-17298167D01*
X10822976Y-17412452D02*
X10803929Y-17421976D01*
X10756310Y-17421976D01*
X10737262Y-17412452D01*
X10727738Y-17393405D01*
X10727738Y-17374357D01*
X10737262Y-17355310D01*
X10756310Y-17345786D01*
X10803929Y-17345786D01*
X10822976Y-17336262D01*
X10889643Y-17288643D02*
X10965833Y-17288643D01*
X10918214Y-17221976D02*
X10918214Y-17393405D01*
X10927738Y-17412452D01*
X10946786Y-17421976D01*
X10965833Y-17421976D01*
X11108690Y-17412452D02*
X11089643Y-17421976D01*
X11051548Y-17421976D01*
X11032500Y-17412452D01*
X11022976Y-17393405D01*
X11022976Y-17317214D01*
X11032500Y-17298167D01*
X11051548Y-17288643D01*
X11089643Y-17288643D01*
X11108690Y-17298167D01*
X11118214Y-17317214D01*
X11118214Y-17336262D01*
X11022976Y-17355310D01*
X11289643Y-17421976D02*
X11289643Y-17221976D01*
X11289643Y-17412452D02*
X11270595Y-17421976D01*
X11232500Y-17421976D01*
X11213452Y-17412452D01*
X11203928Y-17402929D01*
X11194405Y-17383881D01*
X11194405Y-17326738D01*
X11203928Y-17307690D01*
X11213452Y-17298167D01*
X11232500Y-17288643D01*
X11270595Y-17288643D01*
X11289643Y-17298167D01*
X11365833Y-17498167D02*
X11375357Y-17488643D01*
X11394405Y-17460071D01*
X11403928Y-17441024D01*
X11413452Y-17412452D01*
X11422976Y-17364833D01*
X11422976Y-17326738D01*
X11413452Y-17279119D01*
X11403928Y-17250548D01*
X11394405Y-17231500D01*
X11375357Y-17202929D01*
X11365833Y-17193405D01*
M02*
