G04 #@! TF.GenerationSoftware,KiCad,Pcbnew,6.0.7-f9a2dced07~116~ubuntu22.04.1*
G04 #@! TF.CreationDate,2023-05-03T15:08:04+01:00*
G04 #@! TF.ProjectId,hiltop_backplane_brd,68696c74-6f70-45f6-9261-636b706c616e,A*
G04 #@! TF.SameCoordinates,Original*
G04 #@! TF.FileFunction,Other,ECO1*
%FSLAX46Y46*%
G04 Gerber Fmt 4.6, Leading zero omitted, Abs format (unit mm)*
G04 Created by KiCad (PCBNEW 6.0.7-f9a2dced07~116~ubuntu22.04.1) date 2023-05-03 15:08:04*
%MOMM*%
%LPD*%
G01*
G04 APERTURE LIST*
G04 #@! TA.AperFunction,Profile*
%ADD10C,0.150000*%
G04 #@! TD*
%ADD11C,0.030000*%
G04 APERTURE END LIST*
D10*
X179840000Y-50700000D02*
G75*
G03*
X179840000Y-50700000I-5000000J0D01*
G01*
X210320000Y-50700000D02*
G75*
G03*
X210320000Y-50700000I-5000000J0D01*
G01*
X240800000Y-50700000D02*
G75*
G03*
X240800000Y-50700000I-5000000J0D01*
G01*
X210320000Y-93700000D02*
G75*
G03*
X210320000Y-93700000I-5000000J0D01*
G01*
X240800000Y-93700000D02*
G75*
G03*
X240800000Y-93700000I-5000000J0D01*
G01*
X179840000Y-136700000D02*
G75*
G03*
X179840000Y-136700000I-5000000J0D01*
G01*
X210320000Y-136700000D02*
G75*
G03*
X210320000Y-136700000I-5000000J0D01*
G01*
X240800000Y-136700000D02*
G75*
G03*
X240800000Y-136700000I-5000000J0D01*
G01*
X179840000Y-93700000D02*
G75*
G03*
X179840000Y-93700000I-5000000J0D01*
G01*
X271600000Y-136700000D02*
G75*
G03*
X271600000Y-136700000I-5000000J0D01*
G01*
X65300000Y-136200000D02*
X74500000Y-136200000D01*
X75500000Y-135200000D02*
X75500000Y-127700000D01*
X98600000Y-126200000D02*
X119300000Y-126200000D01*
X302080000Y-136700000D02*
G75*
G03*
X302080000Y-136700000I-5000000J0D01*
G01*
X332560000Y-93700000D02*
G75*
G03*
X332560000Y-93700000I-5000000J0D01*
G01*
X75500000Y-135200000D02*
X74500000Y-136200000D01*
X97600000Y-136200000D02*
X98600000Y-135200000D01*
X332560000Y-50700000D02*
G75*
G03*
X332560000Y-50700000I-5000000J0D01*
G01*
X271600000Y-50700000D02*
G75*
G03*
X271600000Y-50700000I-5000000J0D01*
G01*
X302080000Y-93700000D02*
G75*
G03*
X302080000Y-93700000I-5000000J0D01*
G01*
X44300000Y-29200000D02*
X335300000Y-29200000D01*
X64300000Y-135200000D02*
X64300000Y-126200000D01*
X271600000Y-93700000D02*
G75*
G03*
X271600000Y-93700000I-5000000J0D01*
G01*
X332560000Y-136700000D02*
G75*
G03*
X332560000Y-136700000I-5000000J0D01*
G01*
X77400000Y-135200000D02*
X78400000Y-136200000D01*
X119300000Y-136200000D02*
X119300000Y-158200000D01*
X44300000Y-126200000D02*
X44300000Y-29200000D01*
X119300000Y-126200000D02*
X119300000Y-136200000D01*
X78400000Y-136200000D02*
X97600000Y-136200000D01*
X64300000Y-135200000D02*
X65300000Y-136200000D01*
X75500000Y-127700000D02*
X77400000Y-127700000D01*
X98600000Y-135200000D02*
X98600000Y-127700000D01*
X335300000Y-29200000D02*
X335300000Y-158200000D01*
X302080000Y-50700000D02*
G75*
G03*
X302080000Y-50700000I-5000000J0D01*
G01*
X98600000Y-127700000D02*
X98600000Y-126200000D01*
X335300000Y-158200000D02*
X119300000Y-158200000D01*
X77400000Y-127700000D02*
X77400000Y-135200000D01*
X64300000Y-126200000D02*
X44300000Y-126200000D01*
D11*
X106157142Y-49635714D02*
X106157142Y-49850000D01*
X106142857Y-49892857D01*
X106114285Y-49921428D01*
X106071428Y-49935714D01*
X106042857Y-49935714D01*
X106457142Y-49935714D02*
X106285714Y-49935714D01*
X106371428Y-49935714D02*
X106371428Y-49635714D01*
X106342857Y-49678571D01*
X106314285Y-49707142D01*
X106285714Y-49721428D01*
X106742857Y-49935714D02*
X106571428Y-49935714D01*
X106657142Y-49935714D02*
X106657142Y-49635714D01*
X106628571Y-49678571D01*
X106600000Y-49707142D01*
X106571428Y-49721428D01*
M02*
